<svg width="36" height="36" viewBox="0 0 36 36" fill="none" xmlns="http://www.w3.org/2000/svg">
<path d="M20.6937 33.5887L18.9099 35.4188C18.1547 36.1937 16.9334 36.1937 16.1861 35.4188L0.566455 19.4014C-0.188818 18.6265 -0.188818 17.3735 0.566455 16.6068L16.1861 0.581177C16.9414 -0.193726 18.1627 -0.193726 18.9099 0.581177L20.6937 2.41127C21.457 3.19441 21.4409 4.47218 20.6615 5.23884L10.9796 14.7025H34.0716C35.1403 14.7025 36 15.5846 36 16.681V19.319C36 20.4154 35.1403 21.2975 34.0716 21.2975H10.9796L20.6615 30.7612C21.4489 31.5278 21.465 32.8056 20.6937 33.5887Z" fill="black"/>
</svg>
