<svg width="76" height="31" viewBox="0 0 76 31" fill="none" xmlns="http://www.w3.org/2000/svg">
<path opacity="0.45" d="M38 31C58.9868 31 76 28.9853 76 26.5C76 24.0147 58.9868 22 38 22C17.0132 22 0 24.0147 0 26.5C0 28.9853 17.0132 31 38 31Z" fill="#E6E6E6"/>
<path d="M50.6208 4.819L47.4618 0H36.6617L33.3993 4.819H24V26H59V4.819H50.6208Z" fill="#FEBF25"/>
<path opacity="0.08" d="M50.6208 4.819L47.4618 0H36.6617L33.3993 4.819H24V26H59V4.819H50.6208Z" fill="black"/>
<path d="M45.379 4.819L42.1297 0H31.021L27.6679 4.819H18V26H54V4.819H45.379Z" fill="#FEBF25"/>
<path d="M56 3H50V5H56V3Z" fill="#FFD200"/>
<path opacity="0.08" d="M56 3H50V5H56V3Z" fill="black"/>
<path opacity="0.08" d="M35 23C39.9706 23 44 18.9706 44 14C44 9.02944 39.9706 5 35 5C30.0294 5 26 9.02944 26 14C26 18.9706 30.0294 23 35 23Z" fill="black"/>
<path d="M54 3H48V5H54V3Z" fill="#FFD200"/>
<path d="M24 5H16V26H24V5Z" fill="#FEBF25"/>
<path d="M31.5 23C36.7467 23 41 18.9706 41 14C41 9.02944 36.7467 5 31.5 5C26.2533 5 22 9.02944 22 14C22 18.9706 26.2533 23 31.5 23Z" fill="#FEBF25"/>
<path opacity="0.46" d="M31.5 23C36.7467 23 41 18.9706 41 14C41 9.02944 36.7467 5 31.5 5C26.2533 5 22 9.02944 22 14C22 18.9706 26.2533 23 31.5 23Z" fill="white"/>
<path d="M31.5 21C35.6421 21 39 17.866 39 14C39 10.134 35.6421 7 31.5 7C27.3579 7 24 10.134 24 14C24 17.866 27.3579 21 31.5 21Z" fill="#24285B"/>
<path opacity="0.08" d="M33 17C35.2091 17 37 15.433 37 13.5C37 11.567 35.2091 10 33 10C30.7909 10 29 11.567 29 13.5C29 15.433 30.7909 17 33 17Z" fill="white"/>
<path opacity="0.08" d="M34.5 14C35.3284 14 36 13.3284 36 12.5C36 11.6716 35.3284 11 34.5 11C33.6716 11 33 11.6716 33 12.5C33 13.3284 33.6716 14 34.5 14Z" fill="white"/>
<path d="M49 12H46V17H49V12Z" fill="#FFD200"/>
<path opacity="0.39" d="M22 6H18V8H22V6Z" fill="white"/>
<path d="M18 11H5V26H18V11Z" fill="#FEBF25"/>
<path opacity="0.46" d="M18 11H5V26H18V11Z" fill="white"/>
<path d="M17 13H6V24H17V13Z" fill="#FEBF25"/>
<path d="M6 24L9.33577 17L11.8966 21.8206L13.7472 17.9665L17 24H6Z" fill="#24285B"/>
<path d="M11.5 17C12.3284 17 13 16.3284 13 15.5C13 14.6716 12.3284 14 11.5 14C10.6716 14 10 14.6716 10 15.5C10 16.3284 10.6716 17 11.5 17Z" fill="#24285B"/>
<path opacity="0.08" d="M21 12H18V26H21V12Z" fill="black"/>
<path d="M69 23H59V26H69V23Z" fill="#C9C9C9"/>
<path opacity="0.28" d="M65 20H59V23H65V20Z" fill="#C9C9C9"/>
</svg>
