<svg xmlns="http://www.w3.org/2000/svg" width="149" height="151" viewBox="0 0 149 151" fill="none">
  <g clip-path="url(#clip0_215_62)">
    <path d="M74.5 151C115.645 151 149 117.197 149 75.5C149 33.8025 115.645 0 74.5 0C33.3548 0 0 33.8025 0 75.5C0 117.197 33.3548 151 74.5 151Z" fill="#FECC51" fill-opacity="0.7"/>
    <path d="M74.2916 49C73.9474 49 73.6033 49.2555 73.3967 49.575L66.9262 61.1381C66.7885 61.4575 66.4443 61.7131 66.0313 61.7131H56.3254C50.612 61.7131 46 65.9934 46 71.2958V99.469C46 99.7885 46.2753 100.044 46.6195 100.044H100.38C100.725 100.044 101 99.7885 101 99.469V62.3519C101 61.9686 100.725 61.777 100.38 61.777H94.8048C94.4606 61.777 94.1164 61.5214 93.9099 61.202L87.4393 49.6388C87.2328 49.3194 86.9574 49.0639 86.5444 49.0639H74.0851L74.2916 49ZM56.4631 68.1655C58.3905 68.1655 59.9049 69.5709 59.9049 71.3597C59.9049 73.1485 58.3905 74.5539 56.4631 74.5539C54.5357 74.5539 53.0213 73.1485 53.0213 71.3597C53.0213 69.5709 54.5357 68.1655 56.4631 68.1655ZM80.5557 68.1655C88.1277 68.1655 94.3229 73.9151 94.3229 80.9424C94.3229 87.9698 88.1277 93.7194 80.5557 93.7194C72.9837 93.7194 66.7885 87.9698 66.7885 80.9424C66.7885 73.9151 72.9837 68.1655 80.5557 68.1655ZM80.5557 74.5539C76.7697 74.5539 73.6721 77.4288 73.6721 80.9424C73.6721 84.4561 76.7697 87.3309 80.5557 87.3309C84.3417 87.3309 87.4393 84.4561 87.4393 80.9424C87.4393 77.4288 84.3417 74.5539 80.5557 74.5539Z" fill="black" fill-opacity="0.8"/>
  </g>
  <defs>
    <clipPath id="clip0_215_62">
      <rect width="149" height="151" fill="white"/>
    </clipPath>
  </defs>
</svg>

