<svg width="65" height="63" viewBox="0 0 65 63" fill="none" xmlns="http://www.w3.org/2000/svg">
<path d="M36.2901 7.37988C29.8768 7.51988 23.4901 7.55322 17.1301 7.47988C10.8001 7.41988 8.5701 10.2599 8.5501 16.5799C8.52344 23.1399 8.51677 29.6965 8.5301 36.2499" stroke="#FDA331" stroke-width="2"/>
<path d="M36.7705 7.53979L36.8005 26.9398" stroke="#FEC13D" stroke-width="2"/>
<path d="M36.7998 26.9399C35.7065 26.9666 34.6431 26.9866 33.6098 26.9999C28.2698 27.0699 25.7598 30.7699 26.2698 36.2499" stroke="#EABB37" stroke-width="2"/>
<path d="M26.2703 36.25H8.53027" stroke="#FEC13D" stroke-width="2"/>
<path d="M55.7598 27.22C55.6531 33.7866 55.6398 40.3 55.7198 46.76C55.7898 52.7 51.6298 54.22 46.2598 54.24C40.0064 54.26 33.7531 54.3033 27.4998 54.37C27.1264 54.37 26.7131 54.43 26.2598 54.55" stroke="#8AC383" stroke-width="2"/>
<path d="M26.0303 54.22L26.2703 36.25" stroke="#EBC64B" stroke-width="2"/>
<path d="M55.6298 26.46C55.5298 26.5333 55.4465 26.6166 55.3798 26.71C55.2598 26.8633 55.0998 26.94 54.8998 26.94H36.7998" stroke="#EBC64B" stroke-width="2"/>
<path d="M36.2903 7.37993C29.877 7.51993 23.4903 7.55326 17.1303 7.47993C10.8003 7.41993 8.5703 10.2599 8.5503 16.5799C8.52363 23.1399 8.51697 29.6966 8.5303 36.2499C4.5203 34.6099 3.5203 32.0499 3.5203 27.6599C3.51363 21.8466 3.50363 16.0433 3.4903 10.2499C3.4703 4.74993 7.9303 3.27993 12.8703 3.25993C18.7436 3.23993 24.6203 3.24326 30.5003 3.26993C32.9403 3.28326 34.8703 4.65326 36.2903 7.37993Z" fill="#FD9038"/>
<path d="M36.2901 7.37988L36.7701 7.53988L36.8001 26.9399C35.7068 26.9666 34.6434 26.9865 33.6101 26.9999C28.2701 27.0699 25.7601 30.7699 26.2701 36.2499H8.5301C8.51677 29.6965 8.52344 23.1399 8.5501 16.5799C8.5701 10.2599 10.8001 7.41988 17.1301 7.47988C23.4901 7.55322 29.8768 7.51988 36.2901 7.37988Z" fill="#FDB629"/>
<path d="M36.7695 7.53996C41.5495 7.49996 52.3995 5.94996 54.7995 11.07C56.4295 14.54 55.6095 22.18 55.6295 26.46C55.5295 26.5333 55.4462 26.6166 55.3795 26.71C55.2595 26.8633 55.0995 26.94 54.8995 26.94H36.7995L36.7695 7.53996Z" fill="#FECC51"/>
<path d="M55.6303 26.46L55.7603 27.22C55.6536 33.7866 55.6403 40.3 55.7203 46.76C55.7903 52.7 51.6303 54.22 46.2603 54.24C40.0069 54.26 33.7536 54.3033 27.5003 54.37C27.1269 54.37 26.7136 54.43 26.2603 54.55C26.5736 54.4433 26.4969 54.3333 26.0303 54.22L26.2703 36.25C25.7603 30.77 28.2703 27.07 33.6103 27C34.6436 26.9866 35.7069 26.9666 36.8003 26.94H54.9003C55.1003 26.94 55.2603 26.8633 55.3803 26.71C55.4469 26.6166 55.5303 26.5333 55.6303 26.46Z" fill="#D7C044"/>
<path d="M55.7598 27.22C59.5598 28.41 60.7298 30.91 60.7498 34.92C60.7831 40.66 60.7964 46.4066 60.7898 52.16C60.7898 58.08 58.9098 61.13 52.8498 61.2C46.9298 61.2666 41.0098 61.2666 35.0898 61.2C30.1398 61.15 26.7598 59.75 26.2598 54.55C26.7131 54.43 27.1264 54.37 27.4998 54.37C33.7531 54.3033 40.0064 54.26 46.2598 54.24C51.6298 54.22 55.7898 52.7 55.7198 46.76C55.6398 40.3 55.6531 33.7866 55.7598 27.22Z" fill="#3DC6C1"/>
<path d="M26.2703 36.25L26.0303 54.22C19.2503 54.3 8.54027 56.63 8.60027 46.02C8.62027 42.76 8.59694 39.5033 8.53027 36.25H26.2703Z" fill="#FECC51"/>
</svg>
