<?xml version="1.0" encoding="UTF-8" standalone="no"?>
<!DOCTYPE svg PUBLIC "-//W3C//DTD SVG 1.1//EN"
 "http://www.w3.org/Graphics/SVG/1.1/DTD/svg11.dtd">
<!-- Generated by graphviz version 2.47.0 (20210316.0004)
 -->
<!-- Title: dependencies Pages: 1 -->
<svg width="510pt" height="211pt"
 viewBox="0.00 0.00 510.00 211.00" xmlns="http://www.w3.org/2000/svg" xmlns:xlink="http://www.w3.org/1999/xlink">
<g id="graph0" class="graph" transform="scale(1 1) rotate(0) translate(4 207)">
<title>dependencies</title>
<polygon fill="white" stroke="transparent" points="-4,4 -4,-207 506,-207 506,4 -4,4"/>
<text text-anchor="start" x="230.01" y="-42.4" font-family="Times-12" font-weight="bold" font-size="14.00">Legend</text>
<polygon fill="#ffffb3" stroke="transparent" points="17,-10 17,-30 37,-30 37,-10 17,-10"/>
<text text-anchor="start" x="40.63" y="-15.4" font-family="Times-12" font-size="14.00"> &#160;Declarations</text>
<polygon fill="#8dd3c7" stroke="transparent" points="130,-10 130,-30 150,-30 150,-10 130,-10"/>
<text text-anchor="start" x="153.73" y="-15.4" font-family="Times-12" font-size="14.00"> &#160;Module</text>
<polygon fill="#80b1d3" stroke="transparent" points="216,-10 216,-30 236,-30 236,-10 216,-10"/>
<text text-anchor="start" x="239.78" y="-15.4" font-family="Times-12" font-size="14.00"> &#160;Bootstrap</text>
<polygon fill="#fdb462" stroke="transparent" points="313,-10 313,-30 333,-30 333,-10 313,-10"/>
<text text-anchor="start" x="336.67" y="-15.4" font-family="Times-12" font-size="14.00"> &#160;Providers</text>
<polygon fill="#fb8072" stroke="transparent" points="409,-10 409,-30 429,-30 429,-10 409,-10"/>
<text text-anchor="start" x="432.73" y="-15.4" font-family="Times-12" font-size="14.00"> &#160;Exports</text>
<g id="clust1" class="cluster">
<title>cluster_ForgotPasswordModalPageModule</title>
<polygon fill="none" stroke="black" stroke-dasharray="1,5" points="8,-70 8,-195 494,-195 494,-70 8,-70"/>
</g>
<g id="clust2" class="cluster">
<title>cluster_ForgotPasswordModalPageModule_declarations</title>
<polygon fill="none" stroke="black" points="300,-78 300,-130 486,-130 486,-78 300,-78"/>
</g>
<g id="clust4" class="cluster">
<title>cluster_ForgotPasswordModalPageModule_imports</title>
<polygon fill="none" stroke="black" points="16,-78 16,-130 292,-130 292,-78 16,-78"/>
</g>
<!-- ForgotPasswordModalPage -->
<g id="node1" class="node">
<title>ForgotPasswordModalPage</title>
<polygon fill="#ffffb3" stroke="black" points="478.25,-122 307.75,-122 307.75,-86 478.25,-86 478.25,-122"/>
<text text-anchor="middle" x="393" y="-99.8" font-family="Times,serif" font-size="14.00">ForgotPasswordModalPage</text>
</g>
<!-- ForgotPasswordModalPageModule -->
<g id="node2" class="node">
<title>ForgotPasswordModalPageModule</title>
<polygon fill="#8dd3c7" stroke="black" points="373.3,-187 370.3,-191 349.3,-191 346.3,-187 158.7,-187 158.7,-151 373.3,-151 373.3,-187"/>
<text text-anchor="middle" x="266" y="-164.8" font-family="Times,serif" font-size="14.00">ForgotPasswordModalPageModule</text>
</g>
<!-- ForgotPasswordModalPage&#45;&gt;ForgotPasswordModalPageModule -->
<g id="edge1" class="edge">
<title>ForgotPasswordModalPage&#45;&gt;ForgotPasswordModalPageModule</title>
<path fill="none" stroke="black" d="M340.39,-122.11C340.39,-122.11 340.39,-140.99 340.39,-140.99"/>
<polygon fill="black" stroke="black" points="336.89,-140.99 340.39,-150.99 343.89,-140.99 336.89,-140.99"/>
</g>
<!-- ForgotPasswordModalPageRoutingModule -->
<g id="node3" class="node">
<title>ForgotPasswordModalPageRoutingModule</title>
<polygon fill="#8dd3c7" stroke="black" points="283.92,-122 280.92,-126 259.92,-126 256.92,-122 24.08,-122 24.08,-86 283.92,-86 283.92,-122"/>
<text text-anchor="middle" x="154" y="-99.8" font-family="Times,serif" font-size="14.00">ForgotPasswordModalPageRoutingModule</text>
</g>
<!-- ForgotPasswordModalPageRoutingModule&#45;&gt;ForgotPasswordModalPageModule -->
<g id="edge2" class="edge">
<title>ForgotPasswordModalPageRoutingModule&#45;&gt;ForgotPasswordModalPageModule</title>
<path fill="none" stroke="black" d="M221.28,-122.11C221.28,-122.11 221.28,-140.99 221.28,-140.99"/>
<polygon fill="black" stroke="black" points="217.78,-140.99 221.28,-150.99 224.78,-140.99 217.78,-140.99"/>
</g>
</g>
</svg>
