<?xml version="1.0" encoding="UTF-8" standalone="no"?>
<!DOCTYPE svg PUBLIC "-//W3C//DTD SVG 1.1//EN"
 "http://www.w3.org/Graphics/SVG/1.1/DTD/svg11.dtd">
<!-- Generated by graphviz version 2.47.0 (20210316.0004)
 -->
<!-- Title: dependencies Pages: 1 -->
<svg width="504pt" height="211pt"
 viewBox="0.00 0.00 504.00 211.00" xmlns="http://www.w3.org/2000/svg" xmlns:xlink="http://www.w3.org/1999/xlink">
<g id="graph0" class="graph" transform="scale(1 1) rotate(0) translate(4 207)">
<title>dependencies</title>
<polygon fill="white" stroke="transparent" points="-4,4 -4,-207 500,-207 500,4 -4,4"/>
<text text-anchor="start" x="227.01" y="-42.4" font-family="Times-12" font-weight="bold" font-size="14.00">Legend</text>
<polygon fill="#ffffb3" stroke="transparent" points="14,-10 14,-30 34,-30 34,-10 14,-10"/>
<text text-anchor="start" x="37.63" y="-15.4" font-family="Times-12" font-size="14.00"> &#160;Declarations</text>
<polygon fill="#8dd3c7" stroke="transparent" points="127,-10 127,-30 147,-30 147,-10 127,-10"/>
<text text-anchor="start" x="150.73" y="-15.4" font-family="Times-12" font-size="14.00"> &#160;Module</text>
<polygon fill="#80b1d3" stroke="transparent" points="213,-10 213,-30 233,-30 233,-10 213,-10"/>
<text text-anchor="start" x="236.78" y="-15.4" font-family="Times-12" font-size="14.00"> &#160;Bootstrap</text>
<polygon fill="#fdb462" stroke="transparent" points="310,-10 310,-30 330,-30 330,-10 310,-10"/>
<text text-anchor="start" x="333.67" y="-15.4" font-family="Times-12" font-size="14.00"> &#160;Providers</text>
<polygon fill="#fb8072" stroke="transparent" points="406,-10 406,-30 426,-30 426,-10 406,-10"/>
<text text-anchor="start" x="429.73" y="-15.4" font-family="Times-12" font-size="14.00"> &#160;Exports</text>
<g id="clust1" class="cluster">
<title>cluster_ChatPageModule</title>
<polygon fill="none" stroke="black" stroke-dasharray="1,5" points="45,-70 45,-195 451,-195 451,-70 45,-70"/>
</g>
<g id="clust5" class="cluster">
<title>cluster_ChatPageModule_imports</title>
<polygon fill="none" stroke="black" points="269,-78 269,-130 443,-130 443,-78 269,-78"/>
</g>
<g id="clust2" class="cluster">
<title>cluster_ChatPageModule_declarations</title>
<polygon fill="none" stroke="black" points="53,-78 53,-130 261,-130 261,-78 53,-78"/>
</g>
<!-- ChatPage -->
<g id="node1" class="node">
<title>ChatPage</title>
<polygon fill="#ffffb3" stroke="black" points="252.65,-122 183.35,-122 183.35,-86 252.65,-86 252.65,-122"/>
<text text-anchor="middle" x="218" y="-99.8" font-family="Times,serif" font-size="14.00">ChatPage</text>
</g>
<!-- ChatPageModule -->
<g id="node3" class="node">
<title>ChatPageModule</title>
<polygon fill="#8dd3c7" stroke="black" points="274.7,-187 271.7,-191 250.7,-191 247.7,-187 161.3,-187 161.3,-151 274.7,-151 274.7,-187"/>
<text text-anchor="middle" x="218" y="-164.8" font-family="Times,serif" font-size="14.00">ChatPageModule</text>
</g>
<!-- ChatPage&#45;&gt;ChatPageModule -->
<g id="edge1" class="edge">
<title>ChatPage&#45;&gt;ChatPageModule</title>
<path fill="none" stroke="black" d="M218,-122.11C218,-122.11 218,-140.99 218,-140.99"/>
<polygon fill="black" stroke="black" points="214.5,-140.99 218,-150.99 221.5,-140.99 214.5,-140.99"/>
</g>
<!-- WordLimitPipe -->
<g id="node2" class="node">
<title>WordLimitPipe</title>
<polygon fill="#ffffb3" stroke="black" points="164.88,-122 61.12,-122 61.12,-86 164.88,-86 164.88,-122"/>
<text text-anchor="middle" x="113" y="-99.8" font-family="Times,serif" font-size="14.00">WordLimitPipe</text>
</g>
<!-- WordLimitPipe&#45;&gt;ChatPageModule -->
<g id="edge2" class="edge">
<title>WordLimitPipe&#45;&gt;ChatPageModule</title>
<path fill="none" stroke="black" d="M165.05,-104C170.47,-104 174.06,-104 174.06,-104 174.06,-104 174.06,-140.89 174.06,-140.89"/>
<polygon fill="black" stroke="black" points="170.56,-140.89 174.06,-150.89 177.56,-140.89 170.56,-140.89"/>
</g>
<!-- ChatPageRoutingModule -->
<g id="node4" class="node">
<title>ChatPageRoutingModule</title>
<polygon fill="#8dd3c7" stroke="black" points="435.32,-122 432.32,-126 411.32,-126 408.32,-122 276.68,-122 276.68,-86 435.32,-86 435.32,-122"/>
<text text-anchor="middle" x="356" y="-99.8" font-family="Times,serif" font-size="14.00">ChatPageRoutingModule</text>
</g>
<!-- ChatPageRoutingModule&#45;&gt;ChatPageModule -->
<g id="edge3" class="edge">
<title>ChatPageRoutingModule&#45;&gt;ChatPageModule</title>
<path fill="none" stroke="black" d="M276.55,-104C268.78,-104 263.71,-104 263.71,-104 263.71,-104 263.71,-140.89 263.71,-140.89"/>
<polygon fill="black" stroke="black" points="260.21,-140.89 263.71,-150.89 267.21,-140.89 260.21,-140.89"/>
</g>
</g>
</svg>
