<svg width="245" height="119" viewBox="0 0 245 119" fill="none" xmlns="http://www.w3.org/2000/svg">
<g clip-path="url(#clip0_223_2)">
<path opacity="0.18" d="M14.0204 97.7172C9.98549 94.6111 6.65724 90.6888 4.25492 86.2087C1.8526 81.7286 0.430742 76.7924 0.0830288 71.7253C-0.264685 66.6582 0.469638 61.5752 2.23762 56.8113C4.00559 52.0474 6.76709 47.7106 10.3402 44.0867C15.6826 38.7196 22.5881 35.2693 28.5138 30.6225C38.7613 22.6357 46.3492 11.0999 57.7806 5.00089C71.545 -2.34694 88.2255 -0.406878 103.343 3.25832C118.46 6.92353 133.648 12.1745 149.15 10.8501C158.383 10.0543 167.272 6.94095 176.417 5.42492C185.562 3.90888 195.593 4.18189 203.246 9.49091C214.385 17.2686 217.033 32.9865 226.173 43.1225C230.599 48.0365 236.478 51.5333 240.398 56.8772C246.702 65.468 246.539 78.3688 240.019 86.7971C231.667 97.5719 216.596 99.2797 204.441 105.204C197.676 108.504 191.61 113.261 184.611 116.026C169.902 121.834 153.356 118.053 138.273 113.36C123.191 108.666 107.653 103.02 92.0399 105.321C77.459 107.481 64.3187 116.444 49.6153 117.803C42.7914 118.436 34.9994 117.222 30.8293 111.356C26.3442 105.065 20.0919 102.364 14.0204 97.7172Z" fill="#1E9A96"/>
<path d="M17.9756 64.4286C21.9358 60.0431 21.9358 60.0431 26.4267 54.7806L45.5393 32.5047C49.7678 27.6778 51.4417 25.488 53.7046 22.0493H71.7849C71.268 26.8838 71.0324 31.744 71.0792 36.6056V65.1314H73.6338C76.563 65.1041 79.4866 64.8692 82.3824 64.4286V80.3905C79.5185 80.0401 76.6358 79.8656 73.7505 79.8677H71.1084V84.2532C71.024 87.8624 71.2602 91.4719 71.8141 95.0397H53.6405C54.1405 91.4078 54.3764 87.7447 54.3462 84.0789V79.7806H29.4245C23.6971 79.7806 21.2592 79.8677 17.9756 80.1291V64.4286ZM54.4337 55.1349C54.4337 51.1851 54.6086 46.364 54.9644 42.5013C53.2147 44.9583 51.8791 46.7125 49.5053 49.6923L36.645 65.3057H54.4337V55.1349Z" fill="#FD9038"/>
<path d="M17.9756 64.4286C21.9358 60.0431 21.9358 60.0431 26.4267 54.7806L45.5393 32.5047C49.7678 27.6778 51.4417 25.488 53.7046 22.0493H71.7849C71.268 26.8838 71.0324 31.744 71.0792 36.6056V65.1314H73.6338C76.563 65.1041 79.4866 64.8692 82.3824 64.4286V80.3905C79.5185 80.0401 76.6358 79.8656 73.7505 79.8677H71.1084V84.2532C71.024 87.8624 71.2602 91.4719 71.8141 95.0397H53.6405C54.1405 91.4078 54.3764 87.7447 54.3462 84.0789V79.7806H29.4245C23.6971 79.7806 21.2592 79.8677 17.9756 80.1291V64.4286ZM54.4337 55.1349C54.4337 51.1851 54.6086 46.364 54.9644 42.5013C53.2147 44.9583 51.8791 46.7125 49.5053 49.6923L36.645 65.3057H54.4337V55.1349Z" fill="url(#paint0_linear_223_2)"/>
<path d="M115.983 42.4316C117.732 42.722 119.36 43.7908 121.115 44.1741C122.649 44.5226 124.265 44.3426 125.781 44.877C128.61 45.876 130.447 49.274 130.849 52.6837C131.252 56.0933 130.534 59.5436 129.718 62.8545C127.572 71.5789 124.655 80.2918 119.406 86.9077C119.039 87.3666 118.596 87.8487 118.053 87.8371C117.677 87.7855 117.325 87.6214 117.044 87.3666C115.942 86.615 114.934 85.7356 114.041 84.7469C112.641 83.0682 111.83 80.8552 111.124 78.6595C109.136 72.4792 105.339 68.5643 104.633 62.0122C103.863 55.1407 107.637 41.0607 115.983 42.4316Z" fill="#FD9038"/>
<path d="M110.337 46.8345C109.592 46.7006 108.823 46.8388 108.173 47.2237C107.49 47.6417 106.901 48.1943 106.44 48.8476C105.98 49.5009 105.658 50.241 105.496 51.0225C105.18 52.5885 105.123 54.1953 105.327 55.7797C105.726 60.4292 106.631 65.0217 108.027 69.4763C108.435 70.7658 107.269 73.8269 108.114 74.884C108.803 75.7437 108.459 80.9075 109.357 81.5464C111.847 83.3355 117.02 82.348 119.511 84.1371C122.736 86.4605 122.52 80.3267 122.007 77.7999C121.424 74.9828 117.044 75.4765 113.69 65.9621C109.228 53.2994 111.48 47.0959 110.337 46.8345Z" fill="url(#paint1_linear_223_2)"/>
<path d="M153.957 64.1033C157.917 59.7179 157.917 59.7179 162.408 54.4553L181.521 32.1737C184.504 28.8989 187.233 25.4037 189.686 21.7183H207.766C207.249 26.5547 207.014 31.4168 207.061 36.2803V64.7887H209.615C212.535 64.7571 215.448 64.5223 218.335 64.0859V80.0478C215.471 79.6926 212.588 79.5161 209.703 79.5192H207.061V83.9047C206.976 87.5139 207.212 91.1235 207.766 94.6912H189.622C190.12 91.0747 190.356 87.4272 190.328 83.7769V79.4786H165.406C159.679 79.4786 157.211 79.5657 153.957 79.8329V64.1033ZM190.415 54.8096C190.415 50.8598 190.59 46.0387 190.94 42.1818C189.19 44.633 187.861 46.3872 185.481 49.3728L172.65 64.9862H190.438L190.415 54.8096Z" fill="#FD9038"/>
<path d="M153.957 64.1033C157.917 59.7179 157.917 59.7179 162.408 54.4553L181.521 32.1737C184.504 28.8989 187.233 25.4037 189.686 21.7183H207.766C207.249 26.5547 207.014 31.4168 207.061 36.2803V64.7887H209.615C212.535 64.7571 215.448 64.5223 218.335 64.0859V80.0478C215.471 79.6926 212.588 79.5161 209.703 79.5192H207.061V83.9047C206.976 87.5139 207.212 91.1235 207.766 94.6912H189.622C190.12 91.0747 190.356 87.4272 190.328 83.7769V79.4786H165.406C159.679 79.4786 157.211 79.5657 153.957 79.8329V64.1033ZM190.415 54.8096C190.415 50.8598 190.59 46.0387 190.94 42.1818C189.19 44.633 187.861 46.3872 185.481 49.3728L172.65 64.9862H190.438L190.415 54.8096Z" fill="url(#paint2_linear_223_2)"/>
<path d="M96.9695 87.808C94.1611 85.0512 91.9741 81.7307 90.5539 78.0671C88.2334 71.6246 87.0706 64.8254 87.1186 57.9811C87.1186 48.7745 89.3233 39.2136 92.671 33.6897C98.0426 24.7387 107.199 19.8304 118.298 19.8304C126.843 19.8304 134.326 22.7347 139.697 27.9624C142.506 30.7171 144.693 34.0357 146.113 37.6976C148.438 44.1688 149.599 50.9978 149.542 57.8707C149.542 67.0831 147.344 76.7311 143.996 82.2667C138.712 91.0492 129.467 95.9749 118.281 95.9749C109.649 95.9749 102.341 93.1519 96.9695 87.808ZM105.135 57.284C105.135 72.9672 109.626 81.0527 118.345 81.0527C127.064 81.0527 131.38 73.1588 131.38 57.5454C131.38 42.5477 126.802 34.6539 118.258 34.6539C110.005 34.6539 105.158 42.9834 105.158 57.284H105.135Z" fill="#FD9038"/>
<path d="M96.9695 87.808C94.1611 85.0512 91.9741 81.7307 90.5539 78.0671C88.2334 71.6246 87.0706 64.8254 87.1186 57.9811C87.1186 48.7745 89.3233 39.2136 92.671 33.6897C98.0426 24.7387 107.199 19.8304 118.298 19.8304C126.843 19.8304 134.326 22.7347 139.697 27.9624C142.506 30.7171 144.693 34.0357 146.113 37.6976C148.438 44.1688 149.599 50.9978 149.542 57.8707C149.542 67.0831 147.344 76.7311 143.996 82.2667C138.712 91.0492 129.467 95.9749 118.281 95.9749C109.649 95.9749 102.341 93.1519 96.9695 87.808ZM105.135 57.284C105.135 72.9672 109.626 81.0527 118.345 81.0527C127.064 81.0527 131.38 73.1588 131.38 57.5454C131.38 42.5477 126.802 34.6539 118.258 34.6539C110.005 34.6539 105.158 42.9834 105.158 57.284H105.135Z" fill="url(#paint3_linear_223_2)"/>
<path d="M19.9521 64.1033C23.9182 59.7179 23.9182 59.7179 28.4091 54.4553L47.5217 32.1737C50.5047 28.8989 53.2343 25.4037 55.687 21.7183H73.7673C73.2502 26.5547 73.0146 31.4168 73.0616 36.2803V64.7887H75.6162C78.5453 64.7585 81.4687 64.5236 84.3647 64.0859V80.0478C81.5013 79.6926 78.6184 79.5161 75.7328 79.5192H73.0908V83.9047C73.006 87.5139 73.2422 91.1235 73.7965 94.6912H55.6229C56.1207 91.0747 56.3565 87.4272 56.3286 83.7769V79.4786H31.4011C25.6795 79.4786 23.2358 79.5657 19.9521 79.8329V64.1033ZM56.4161 54.8096C56.4161 50.8598 56.591 46.0387 56.941 42.1818C55.1913 44.633 53.8615 46.3872 51.4819 49.3728L38.6507 64.9862H56.4161V54.8096Z" fill="#FD9038"/>
<path d="M98.9456 88.1333C96.1377 85.3784 93.9507 82.0598 92.53 78.3981C90.2037 71.9567 89.0349 65.1575 89.0773 58.3121C89.0773 49.1056 91.2819 39.5447 94.6297 34.0149C100.001 25.0697 109.158 20.1615 120.257 20.1615C128.796 20.1615 136.284 23.0658 141.656 28.2935C144.466 31.0468 146.653 34.3658 148.072 38.0286C150.41 44.5031 151.579 51.3388 151.524 58.2192C151.524 67.4258 149.326 77.0796 145.978 82.6152C140.694 91.3861 131.444 96.2943 120.263 96.2943C111.631 96.2885 104.323 93.483 98.9456 88.1333ZM107.158 57.6383C107.158 73.3215 111.649 81.407 120.368 81.407C129 81.407 133.403 73.5131 133.403 57.9055C133.403 42.902 128.819 35.0082 120.28 35.0082C111.981 34.9849 107.158 43.3144 107.158 57.6383Z" fill="#FD9038"/>
<path d="M134.628 27.1144C135.284 27.5907 135.784 28.2495 136.065 29.0081C136.346 29.7667 136.396 30.5912 136.208 31.3779C137.309 31.4825 138.377 31.8033 139.352 32.3218C140.327 32.8402 141.189 33.546 141.889 34.3983C143.143 36.0457 143.901 38.0136 144.076 40.0733C144.244 42.1209 144.199 44.1803 143.942 46.2187C143.913 46.9232 143.767 47.618 143.51 48.275C143.209 48.8449 142.784 49.341 142.267 49.7277C141.749 50.1144 141.152 50.382 140.518 50.5113C139.252 50.7631 137.954 50.8238 136.669 50.6913L133.607 50.5287C133.506 50.531 133.406 50.5091 133.315 50.4648C133.254 50.4128 133.205 50.3489 133.169 50.2769C133.134 50.205 133.115 50.1265 133.111 50.0466C132.901 48.7977 132.581 48.2517 132.353 47.0029C131.785 44.3662 130.673 41.8759 129.087 39.6899C128.806 39.3632 128.606 38.9751 128.504 38.5572C128.469 37.9795 128.598 37.4037 128.877 36.896C129.292 35.8972 129.635 34.8704 129.903 33.8233C130.151 32.5702 130.472 31.3327 130.866 30.1174C131.267 28.8891 132.094 27.843 133.199 27.1667" fill="url(#paint4_linear_223_2)"/>
<path d="M133.199 63.598C133.199 63.598 144.409 64.5854 149.53 57.7894C151.571 55.0942 147.022 42.3967 147.022 42.3967L141.849 51.6207L133.683 53.4679L133.199 63.598Z" fill="url(#paint5_linear_223_2)"/>
<path d="M156.104 64.1033C160.064 59.7179 160.064 59.7179 164.555 54.4553L183.667 32.1737C187.896 27.3526 189.57 25.1569 191.833 21.7183H209.913C209.401 26.5608 209.171 31.4288 209.225 36.2978V64.8062H211.779C214.699 64.7746 217.612 64.5397 220.499 64.1033V80.0653C217.635 79.7101 214.752 79.5335 211.867 79.5367H209.225V83.9221C209.14 87.5313 209.376 91.1409 209.93 94.7086H191.768C192.267 91.0864 192.503 87.433 192.474 83.7769V79.4786H167.552C161.825 79.4786 159.358 79.5657 156.104 79.8329V64.1033ZM192.562 54.8096C192.562 50.8598 192.737 46.0387 193.092 42.1818C191.343 44.633 190.007 46.3872 187.633 49.3728L174.773 64.9862H192.562V54.8096Z" fill="#FD9038"/>
<path d="M106.895 43.7327C106.593 43.8424 106.3 43.9765 106.02 44.1334C105.757 44.2661 105.526 44.4544 105.343 44.6853C105.254 44.8023 105.197 44.94 105.176 45.0854C105.156 45.2308 105.173 45.379 105.227 45.5159C105.345 45.6977 105.516 45.8399 105.717 45.9238C105.917 46.0077 106.139 46.0295 106.352 45.9864C107.07 45.9167 107.734 45.5624 108.452 45.4404C109.169 45.3184 109.846 44.8247 109.338 44.0637C108.831 43.3028 107.612 43.4655 106.895 43.7327Z" fill="#F7AF87"/>
<path d="M109.181 45.4403C108.132 45.1673 107.035 45.6262 106.09 46.1548C105.867 46.2629 105.669 46.4151 105.507 46.6021C105.41 46.6792 105.34 46.7852 105.307 46.9047C105.275 47.0242 105.282 47.1509 105.327 47.2664C105.371 47.3818 105.452 47.4799 105.557 47.5464C105.662 47.6129 105.785 47.6443 105.909 47.636C106.124 47.6574 106.341 47.6436 106.551 47.5953L108.003 47.3455C108.341 47.3062 108.67 47.212 108.977 47.0667C109.636 46.6834 110.196 45.6901 109.181 45.4403Z" fill="#F7AF87"/>
<path d="M107.158 47.363C106.857 47.4772 106.564 47.6131 106.283 47.7696C106.017 47.9106 105.786 48.109 105.607 48.3504C105.519 48.467 105.462 48.6037 105.442 48.7479C105.422 48.8921 105.438 49.0391 105.49 49.1752C105.609 49.3571 105.779 49.4992 105.98 49.5831C106.181 49.667 106.402 49.6889 106.616 49.6457C107.333 49.576 107.998 49.2217 108.715 49.0997C109.433 48.9777 110.109 48.4898 109.602 47.7231C109.094 46.9564 107.864 47.0958 107.158 47.363Z" fill="#F7AF87"/>
<path d="M109.421 48.8268C108.342 48.7397 107.344 49.4076 106.504 50.0698C106.3 50.2185 106.128 50.4061 105.997 50.6216C105.917 50.7152 105.869 50.8316 105.859 50.9542C105.85 51.0767 105.88 51.1991 105.944 51.3037C106.009 51.4083 106.106 51.4898 106.22 51.5363C106.334 51.5828 106.46 51.592 106.58 51.5626C106.793 51.5468 107.002 51.4958 107.198 51.4116L108.581 50.9063C108.909 50.8083 109.218 50.6572 109.496 50.459C110.074 49.9827 110.465 48.9255 109.421 48.8268Z" fill="#F7AF87"/>
<path d="M140.333 32.4292C138.633 31.622 136.763 31.2336 134.88 31.2965C134.562 31.2812 134.244 31.3327 133.947 31.4475C133.802 31.5107 133.678 31.6146 133.591 31.7467C133.504 31.8787 133.457 32.0331 133.457 32.191C133.514 32.4666 133.672 32.7111 133.9 32.8764C134.589 33.5002 135.363 34.0243 136.198 34.4331C136.451 34.5323 136.68 34.6804 136.875 34.8688C136.97 34.9641 137.031 35.0878 137.049 35.221C137.067 35.3542 137.041 35.4896 136.974 35.6065C136.781 35.8737 136.338 35.8853 136.192 36.1873C136 36.5649 136.484 36.9366 136.904 37.0063C137.35 37.0824 137.809 37.0404 138.234 36.8843C138.531 36.7319 138.857 36.641 139.19 36.6171C139.52 36.6875 139.83 36.8282 140.1 37.0296C141.022 37.5523 143.885 37.5698 143.704 35.9782C143.535 34.5028 141.512 33.0391 140.333 32.4292Z" fill="#F7AF87"/>
<path d="M126.242 45.2371C126.242 45.2371 139.138 50.5287 140.613 50.2557C142.089 49.9827 139.703 37.3084 139.703 37.3084L144.101 35.3044C144.101 35.3044 154.016 54.8793 145.897 57.7255C140.877 59.3986 135.437 59.3413 130.453 57.5628L126.242 45.2371Z" fill="#FD9038"/>
<path d="M133.101 37.8892C133.056 39.0263 132.786 40.1434 132.308 41.1769C131.84 41.947 131.198 42.5981 130.434 43.079C129.67 43.5598 128.804 43.8571 127.904 43.9475C127.249 43.9896 126.598 44.0809 125.956 44.2205C125.659 44.2812 125.381 44.4143 125.148 44.6079C124.915 44.8015 124.734 45.0496 124.621 45.33C124.102 46.5846 123.565 47.8567 121.891 47.4327C121.734 47.3979 121.581 47.3453 121.436 47.2759C120.91 47.0298 120.437 46.6846 120.042 46.2594C119.551 45.7643 119.124 45.2102 118.771 44.6097C118.588 44.3319 118.465 44.0194 118.409 43.692C118.375 43.2897 118.423 42.8847 118.549 42.5012C119.132 40.1778 119.226 37.5465 120.054 35.2812C120.902 32.9848 122.522 31.0515 124.638 29.8095C126.732 28.5955 129.642 28.5781 131.421 30.2335C132.394 31.2039 133.011 32.4726 133.171 33.8348C133.311 35.1842 133.287 36.5454 133.101 37.8892Z" fill="#F7AF87"/>
<path d="M118.915 34.9849C119.026 33.8929 119.02 32.7835 119.236 31.7089C119.399 30.611 119.952 29.6076 120.793 28.8801C121.004 28.713 121.241 28.5797 121.493 28.4852C121.721 28.4038 121.96 28.3574 122.193 28.2935C122.878 28.05 123.532 27.7263 124.141 27.3293C125.064 26.7784 126.074 26.3857 127.127 26.1676C127.839 26.0591 128.559 26.0086 129.279 26.0165C130.601 25.9933 131.929 25.9817 133.263 25.9817C133.576 25.9583 133.89 26.0101 134.179 26.1327C134.496 26.3276 134.727 26.6347 134.826 26.9924C135.08 27.7939 135.08 28.6537 134.826 29.4552C134.568 30.2481 134.226 31.0114 133.805 31.7322C133.6 32.1864 133.311 32.5982 132.954 32.9461C132.645 32.4118 132.37 31.8599 132.091 31.3023C131.198 32.2259 129.793 32.464 128.509 32.3653C127.226 32.2665 125.967 31.9355 124.683 31.918C124.378 31.8858 124.07 31.9139 123.776 32.0006C123.481 32.0873 123.207 32.231 122.969 32.4234C122.681 32.7569 122.481 33.156 122.385 33.5851C122.116 34.5412 121.896 35.5106 121.726 36.4894C121.575 36.2047 120.962 35.4612 120.642 35.4729C120.549 35.4818 120.459 35.5096 120.378 35.5545C120.297 35.5995 120.226 35.6607 120.169 35.7343C119.638 36.3151 119.901 38.4469 120.391 39.0626C120.489 39.1558 120.563 39.2714 120.607 39.3995C120.617 39.485 120.609 39.5717 120.585 39.6545C120.561 39.7373 120.521 39.8144 120.467 39.8816C120.332 40.04 120.161 40.1639 119.968 40.2427C119.775 40.3216 119.566 40.3531 119.358 40.3346C118.845 40.3346 118.746 39.3588 118.694 38.9987C118.478 37.6569 118.787 36.3035 118.915 34.9849Z" fill="#606060"/>
<path d="M120.963 37.4361C120.891 37.2861 120.859 37.1201 120.87 36.954C120.882 36.7877 120.864 36.6205 120.817 36.4603C120.764 36.3134 120.658 36.1914 120.52 36.1176C120.48 36.1061 120.437 36.1061 120.397 36.1176C120.363 36.1319 120.333 36.1541 120.31 36.1825C120.287 36.2108 120.271 36.2443 120.263 36.2802C120.059 36.9169 120.082 37.6042 120.327 38.2261C120.36 38.3376 120.417 38.4404 120.495 38.5269C120.572 38.6134 120.669 38.6813 120.776 38.7256C120.871 38.7446 120.97 38.7397 121.062 38.7113C121.155 38.6829 121.239 38.6319 121.307 38.563C121.399 38.4663 121.462 38.346 121.488 38.2157C121.515 38.0853 121.505 37.9501 121.459 37.8253C121.36 37.593 121.085 37.6453 120.963 37.4361Z" fill="url(#paint6_linear_223_2)"/>
<path d="M125.955 44.2089C125.658 44.2696 125.38 44.4027 125.147 44.5963C124.914 44.7899 124.733 45.038 124.619 45.3184C124.1 46.573 123.564 47.8451 121.89 47.4211C121.733 47.3863 121.58 47.3337 121.435 47.2642C121.293 47.1436 121.178 46.9954 121.097 46.8286C121.022 46.6326 120.987 46.4235 120.995 46.214C121.003 46.0044 121.054 45.7986 121.143 45.6088C121.345 45.1207 121.686 44.7016 122.123 44.4025C122.56 44.1035 123.074 43.9373 123.604 43.9243C124.05 43.9448 124.493 44.0031 124.928 44.0986C125.197 44.1334 125.512 44.0986 125.757 44.1276C125.828 44.1403 125.895 44.1681 125.955 44.2089Z" fill="url(#paint7_linear_223_2)"/>
</g>
<defs>
<linearGradient id="paint0_linear_223_2" x1="-38.0676" y1="4.8734" x2="152.819" y2="112.126" gradientUnits="userSpaceOnUse">
<stop stop-opacity="0"/>
<stop offset="0.99"/>
</linearGradient>
<linearGradient id="paint1_linear_223_2" x1="126.498" y1="58.6549" x2="67.2349" y2="95.2735" gradientUnits="userSpaceOnUse">
<stop stop-opacity="0"/>
<stop offset="0.99"/>
</linearGradient>
<linearGradient id="paint2_linear_223_2" x1="247.928" y1="107.714" x2="80.5346" y2="-35.5736" gradientUnits="userSpaceOnUse">
<stop stop-opacity="0"/>
<stop offset="0.99"/>
</linearGradient>
<linearGradient id="paint3_linear_223_2" x1="172.417" y1="60.0838" x2="-10.7459" y2="52.623" gradientUnits="userSpaceOnUse">
<stop stop-opacity="0"/>
<stop offset="0.99"/>
</linearGradient>
<linearGradient id="paint4_linear_223_2" x1="151.04" y1="24.1694" x2="98.6617" y2="80.4706" gradientUnits="userSpaceOnUse">
<stop stop-opacity="0"/>
<stop offset="0.99"/>
</linearGradient>
<linearGradient id="paint5_linear_223_2" x1="143.569" y1="67.7046" x2="135.919" y2="31.4697" gradientUnits="userSpaceOnUse">
<stop stop-opacity="0"/>
<stop offset="0.99"/>
</linearGradient>
<linearGradient id="paint6_linear_223_2" x1="120.356" y1="37.5175" x2="121.866" y2="36.9909" gradientUnits="userSpaceOnUse">
<stop stop-opacity="0"/>
<stop offset="0.99"/>
</linearGradient>
<linearGradient id="paint7_linear_223_2" x1="120.758" y1="43.3377" x2="129.647" y2="50.6514" gradientUnits="userSpaceOnUse">
<stop stop-opacity="0"/>
<stop offset="0.99"/>
</linearGradient>
<clipPath id="clip0_223_2">
<rect width="245" height="119" fill="white"/>
</clipPath>
</defs>
</svg>
