<svg width="305" height="231" viewBox="0 0 305 231" fill="none" xmlns="http://www.w3.org/2000/svg">
<path opacity="0.18" d="M259.578 134.819C263.551 124.039 266.006 111.403 260.402 101.363C256.589 94.5404 249.727 90.136 242.864 86.4554C223.176 75.9218 201.3 68.9456 184.274 54.4773C181.483 52.1057 178.799 49.5185 175.497 47.9708C171.997 46.323 168.055 45.9688 164.205 45.6608C147.544 44.2979 130.449 43.2815 114.459 48.1787C98.4696 53.0759 83.6237 65.1187 79.9027 81.5659C77.0433 94.2632 81.0236 107.923 77.3331 120.405C74.2831 130.753 66.2387 139.1 63.5318 149.557C58.9568 167.02 71.2636 185.462 87.3218 193.447C103.38 201.432 122.13 201.147 139.934 199.707C148.894 198.975 157.876 197.959 166.561 195.634C174.361 193.547 181.948 190.398 189.985 189.882C202.52 189.073 216.421 194.448 226.928 187.502C230.596 185.085 233.325 181.389 237.077 179.102C244.839 174.374 248.697 173.103 250.398 163.917C252.319 153.646 256.002 144.536 259.578 134.819Z" fill="#3DC6C1"/>
<path d="M150.816 140.987C150.816 140.987 96.7549 147.54 91.1734 161.292C87.457 170.224 83.1256 178.882 78.2109 187.202C78.2109 187.202 123.359 224.709 159.15 212.874C194.942 201.039 197.939 193.285 216.018 194.64C234.096 195.996 249.125 175.729 249.125 167.29C249.125 158.851 193.226 141.518 184.221 142.073C175.216 142.627 150.816 140.987 150.816 140.987Z" fill="#FEBF25"/>
<path d="M152.081 140.463C152.081 142.396 151.57 139.216 150.8 140.987C149.778 143.343 148.07 150.15 146.942 152.444C144.998 156.379 146.881 161.407 150.19 164.295C153.499 167.182 157.884 168.399 162.146 169.369C168.452 170.801 175.658 171.679 180.85 167.829C185.814 164.125 187.225 157.195 186.813 150.981C186.551 147.899 186.113 144.834 185.502 141.803L181.834 121.66C181.82 121.404 181.749 121.154 181.626 120.929C181.503 120.705 181.331 120.511 181.124 120.363C180.916 120.215 180.678 120.116 180.428 120.074C180.177 120.032 179.92 120.047 179.676 120.12C172.814 120.035 161.742 120.243 155.749 124.116C150.152 127.666 152.066 133.903 152.081 140.463Z" fill="#EFD4D1"/>
<path d="M151.738 144.922C152.807 147.112 154.36 149.026 156.277 150.515C158.194 152.003 160.424 153.027 162.795 153.507C167.583 154.419 172.537 153.511 176.703 150.958C180.103 148.926 183.024 145.853 184.221 142.057C184.797 139.892 185.094 137.662 185.105 135.42L185.403 128.998C183.481 131.816 179.989 133.094 176.634 133.572C168.186 134.75 160.827 131.67 152.92 129.36C149.207 128.259 149.276 130.546 149.573 133.726C149.924 137.445 150.16 141.449 151.738 144.922Z" fill="#EFD4D1"/>
<path d="M138.287 118.187C138.287 118.187 152.012 141.156 161.643 142.234C171.273 143.312 185.707 142.904 195.955 118.749C206.203 94.5943 208.003 62.4622 191.7 56.7411C191.685 56.7411 111.76 35.1888 138.287 118.187Z" fill="#EFD4D1"/>
<path d="M194.735 119.127C194.445 120.667 194.079 122.345 192.89 123.338C191.258 124.732 188.742 124.278 186.866 123.269C183.053 121.221 180.468 117.417 177.495 114.214C176.207 112.805 174.738 111.577 173.126 110.564L174.857 114.037C175.2 114.667 175.474 115.333 175.672 116.023C175.857 116.782 175.857 117.575 175.672 118.333C175.642 118.507 175.572 118.67 175.466 118.811C175.306 118.974 175.102 119.086 174.879 119.134C173.94 119.377 172.974 119.499 172.005 119.496C170.305 119.678 168.587 119.518 166.949 119.026C166.477 118.849 165.951 118.518 165.905 118.002C165.844 117.286 166.736 116.886 167.43 116.793C168.398 116.793 169.313 116.67 170.266 116.793C171.578 116.917 171.532 117.024 171.54 115.646C171.54 113.667 171.54 111.711 171.486 109.709C169.803 108.896 167.913 108.627 166.073 108.939C162.489 109.648 159.889 112.736 157.883 115.808C155.878 118.88 154.025 122.299 150.975 124.262C147.536 126.434 141.436 125.995 140.872 121.182C140.262 116.062 143.213 109.756 146.042 105.721C149.846 100.332 155.34 96.3981 161.635 94.5559C163.85 93.847 166.185 93.6033 168.497 93.8398C171.036 94.1709 173.408 95.3182 175.718 96.4424L187.849 102.325C189.931 103.334 192.081 104.396 193.523 106.221C196.245 109.717 195.558 114.73 194.735 119.127Z" fill="url(#paint0_linear_129_14)"/>
<path d="M219.12 54.3465C219.181 54.924 219.745 55.2936 220.179 55.7017C221.987 57.4496 221.224 60.6528 219.516 62.5008C217.808 64.3488 215.421 65.396 213.515 67.0361C212.354 67.9665 211.579 69.301 211.342 70.7783C211.007 72.8034 211.594 74.9825 211.67 77.2617C211.696 77.902 211.668 78.5434 211.586 79.179C210.87 84.6329 208.85 89.8286 205.7 94.3172C204.762 95.6031 203.526 96.9198 201.948 96.9891C199.394 97.1046 197.937 94.1247 197.251 91.6376C195.856 86.5881 194.837 81.4404 194.201 76.2376C193.957 74.2664 193.769 72.2926 193.637 70.3163C193.134 72.7033 189.71 73.2808 187.689 71.941C187.575 71.864 187.468 71.787 187.354 71.6946C185.562 70.3163 184.632 68.0525 183.64 65.9735C182.573 63.7713 181.109 61.469 178.768 60.853C176.115 60.1677 173.431 60.853 170.708 60.7452C166.538 60.5681 162.359 60.0984 158.196 59.7827C155.908 59.6133 153.621 59.4439 151.486 60.2678C150.736 60.5448 150.045 60.9628 149.45 61.4998C148.89 61.9804 148.452 62.5904 148.175 63.278C147.897 63.9656 147.788 64.7106 147.856 65.4499C143.632 65.3036 143.48 68.7301 140.353 71.6099C137.227 74.4897 131.646 77.1385 134.078 80.6266C136.609 84.261 134.696 86.6557 134.459 90.9523C134.07 98.0825 131.897 104.982 129.747 111.796C126.483 107.076 123.167 102.24 121.703 96.6888C120.94 93.8937 120.49 91.1525 119.979 88.4575C119.217 84.1609 118.302 79.9336 116.167 75.7063C115.223 74.0997 114.4 72.4241 113.704 70.6936C112.819 68.0525 112.941 65.1881 113.124 62.4084C113.475 56.4717 113.94 50.0884 117.608 45.4684C118.958 43.8051 120.677 42.4862 122.625 41.6184C125.309 40.3402 128.176 39.5548 130.639 37.6529C131.948 36.5439 132.962 35.1227 133.59 33.518C134.932 30.4919 135.679 26.8652 137.296 24.278C140.206 19.7556 144.343 16.174 149.214 13.96C157.296 10.2255 166.576 9.99449 175.39 11.2111C182.687 12.2198 190 14.2372 196.062 18.4568C198.633 20.3274 201.041 22.4166 203.26 24.7015C208.696 30.053 213.797 35.828 220.98 37.8377C223.397 38.523 226.241 38.9157 227.606 41.0409C228.971 43.1661 228.033 46.3 226.257 48.225C224.48 50.15 222.07 51.305 219.996 52.9066C219.6 53.2685 219.059 53.7536 219.12 54.3465Z" fill="#3F3D56"/>
<path d="M125.881 70.3163C124.585 72.6263 123.594 75.3984 124.524 77.8932C125.759 77.1771 127.01 76.4918 128.222 75.7988L119.987 88.4267C119.187 84.1301 118.31 79.9028 116.175 75.6755C115.234 74.0688 114.413 72.3932 113.72 70.6628C112.827 68.0217 112.957 65.1574 113.132 62.3777C113.483 56.441 113.956 50.0576 117.624 45.4376C118.971 43.7745 120.687 42.4555 122.633 41.5876C123.177 41.8508 123.666 42.2167 124.074 42.6656C125.988 44.7754 126.461 48.148 127.239 50.7814C128.428 54.7623 130.403 59.0127 129.412 63.2477C128.809 65.8272 127.162 68.0063 125.881 70.3163Z" fill="url(#paint1_linear_129_14)"/>
<path d="M212.548 62.6317C210.848 64.9417 210.939 67.8369 211.328 70.7783C211.488 71.9872 211.679 73.1961 211.854 74.3511C212.053 75.3188 211.984 76.323 211.656 77.254C211.584 77.4161 211.498 77.5708 211.396 77.716C210.169 79.4023 207.584 78.871 205.647 78.178C200.874 76.4686 197.367 76.9152 194.21 76.1991C191.991 75.6909 189.924 74.6591 187.69 71.9025C187.598 71.8012 187.487 71.72 187.363 71.6638C185.563 70.2855 184.633 68.014 183.642 65.935C182.582 63.7328 181.118 61.4305 178.769 60.8222C176.116 60.1292 173.432 60.8222 170.71 60.7144C166.539 60.5296 162.322 60.0676 158.197 59.7519C155.909 59.5748 153.622 59.4131 151.495 60.237C150.74 60.5185 150.046 60.9447 149.451 61.4921C148.544 61.2842 147.865 60.6297 147.53 59.1821C146.706 55.5246 148.056 50.4426 150.694 47.8323C153.332 45.222 157.19 44.5367 160.858 44.1748C168.658 43.4048 177.015 43.7359 183.565 48.0633C186.57 50.0499 189.086 52.7911 192.281 54.4543C198.099 57.4727 205.06 56.4178 211.549 57.2109C212.647 57.3418 213.92 57.6729 214.332 58.7509C214.874 60.1138 213.448 61.4228 212.548 62.6317Z" fill="url(#paint2_linear_129_14)"/>
<path d="M158.494 81.1887C157.653 79.4971 156.44 78.0222 154.948 76.8767C149.168 72.1104 141.132 70.0314 133.957 72.1027C132.563 72.4816 131.234 73.0708 130.014 73.8506C128.087 75.2468 126.456 77.0194 125.218 79.0635C117.357 90.8599 114.726 105.351 113.613 119.481C113.361 122.684 113.705 126.087 112.408 129.021C101.566 153.561 77.9434 184.399 78.2331 187.202C86.7045 194.363 101.436 204.181 108.108 204.427C111.852 197.497 126.293 147.555 129.328 140.263C130.525 137.399 132.645 131.115 134.399 128.559C139.096 121.691 146.462 121.629 152.02 115.469C153.488 113.965 154.556 112.111 155.124 110.079C155.407 108.312 155.451 106.514 155.253 104.735C155.042 100.415 155.419 96.0854 156.374 91.8686C157.167 88.3189 160.126 84.8693 158.494 81.1887Z" fill="#EFD4D1"/>
<path d="M122.228 93.4087H121.344C119.634 93.4087 118.248 94.8083 118.248 96.5349V97.636C118.248 99.3625 119.634 100.762 121.344 100.762H122.228C123.938 100.762 125.324 99.3625 125.324 97.636V96.5349C125.324 94.8083 123.938 93.4087 122.228 93.4087Z" fill="#FEBF25"/>
<path d="M122.847 93.4087H121.963C120.253 93.4087 118.867 94.8083 118.867 96.5349V97.636C118.867 99.3625 120.253 100.762 121.963 100.762H122.847C124.557 100.762 125.943 99.3625 125.943 97.636V96.5349C125.943 94.8083 124.557 93.4087 122.847 93.4087Z" fill="url(#paint3_linear_129_14)"/>
<path d="M178.722 81.1887C179.567 79.4929 180.788 78.0172 182.29 76.8767C188.063 72.1104 196.107 70.0314 203.282 72.1027C204.673 72.4816 206 73.0709 207.217 73.8506C209.146 75.2447 210.778 77.0177 212.013 79.0635C219.866 90.8522 222.497 105.351 223.618 119.481C223.87 122.684 223.519 126.087 224.815 129.021C235.658 153.553 252.09 165.819 251.808 168.622C256.672 184.453 235.033 194.032 226.218 193.216C222.474 186.286 210.968 147.547 207.918 140.248C206.729 137.383 204.609 131.1 202.855 128.544C198.158 121.675 190.808 121.652 185.234 115.454C183.764 113.951 182.696 112.097 182.13 110.064C181.847 108.297 181.803 106.499 182.001 104.72C182.208 100.399 181.831 96.0706 180.88 91.8532C180.049 88.3189 177.113 84.8693 178.722 81.1887Z" fill="#EFD4D1"/>
<path d="M212.769 93.4087H211.885C210.175 93.4087 208.789 94.8083 208.789 96.5349V97.636C208.789 99.3625 210.175 100.762 211.885 100.762H212.769C214.479 100.762 215.865 99.3625 215.865 97.636V96.5349C215.865 94.8083 214.479 93.4087 212.769 93.4087Z" fill="#FEBF25"/>
<path d="M212.053 93.4087H211.168C209.458 93.4087 208.072 94.8083 208.072 96.5349V97.636C208.072 99.3625 209.458 100.762 211.168 100.762H212.053C213.762 100.762 215.148 99.3625 215.148 97.636V96.5349C215.148 94.8083 213.762 93.4087 212.053 93.4087Z" fill="url(#paint4_linear_129_14)"/>
<path d="M157.777 85.47C157.777 85.47 165.707 90.7137 176.375 85.0542V103.003C176.375 103.003 166.935 96.2346 158.73 103.003L157.777 85.47Z" fill="#FEBF25"/>
<path d="M157.777 85.47C157.777 85.47 165.707 90.7137 176.375 85.0542V103.003C176.375 103.003 166.935 96.2346 158.73 103.003L157.777 85.47Z" fill="url(#paint5_linear_129_14)"/>
<path d="M175.932 91.5066H159.012V96.9582H175.932V91.5066Z" fill="#FEBF25"/>
<path opacity="0.69" d="M175.932 91.5066H159.012V96.9582H175.932V91.5066Z" fill="url(#paint6_linear_129_14)"/>
<path d="M141.566 115.993C152.329 115.993 161.055 107.181 161.055 96.3116C161.055 85.4419 152.329 76.6304 141.566 76.6304C130.802 76.6304 122.076 85.4419 122.076 96.3116C122.076 107.181 130.802 115.993 141.566 115.993Z" fill="#FEBF25"/>
<path opacity="0.69" d="M141.566 115.993C152.329 115.993 161.055 107.181 161.055 96.3116C161.055 85.4419 152.329 76.6304 141.566 76.6304C130.802 76.6304 122.076 85.4419 122.076 96.3116C122.076 107.181 130.802 115.993 141.566 115.993Z" fill="url(#paint7_linear_129_14)"/>
<path d="M141.452 113.536C150.772 113.536 158.326 105.907 158.326 96.4964C158.326 87.0854 150.772 79.4563 141.452 79.4563C132.133 79.4563 124.578 87.0854 124.578 96.4964C124.578 105.907 132.133 113.536 141.452 113.536Z" fill="white"/>
<path d="M192.722 115.993C203.486 115.993 212.211 107.181 212.211 96.3116C212.211 85.4419 203.486 76.6304 192.722 76.6304C181.958 76.6304 173.232 85.4419 173.232 96.3116C173.232 107.181 181.958 115.993 192.722 115.993Z" fill="#FEBF25"/>
<path opacity="0.69" d="M192.722 115.993C203.486 115.993 212.211 107.181 212.211 96.3116C212.211 85.4419 203.486 76.6304 192.722 76.6304C181.958 76.6304 173.232 85.4419 173.232 96.3116C173.232 107.181 181.958 115.993 192.722 115.993Z" fill="url(#paint8_linear_129_14)"/>
<path d="M192.601 113.536C201.92 113.536 209.475 105.907 209.475 96.4964C209.475 87.0854 201.92 79.4563 192.601 79.4563C183.281 79.4563 175.727 87.0854 175.727 96.4964C175.727 105.907 183.281 113.536 192.601 113.536Z" fill="white"/>
<path d="M166.752 85.262H166.043C164.822 85.262 163.832 86.2617 163.832 87.495V88.6269C163.832 89.8601 164.822 90.8599 166.043 90.8599H166.752C167.974 90.8599 168.964 89.8601 168.964 88.6269V87.495C168.964 86.2617 167.974 85.262 166.752 85.262Z" fill="#FEBF25"/>
<path opacity="0.69" d="M203.275 24.7092C202.709 25.3951 202.063 26.0103 201.353 26.5418C196.328 30.2301 189.328 28.0818 183.564 25.7718C177.22 23.1692 170.8 20.5281 163.937 20.0892C157.075 19.6503 149.762 21.8371 145.637 27.3349C143.296 30.4149 141.405 34.9117 137.539 35.1273C136.805 35.1463 136.074 35.0118 135.393 34.7322C134.712 34.4526 134.095 34.034 133.582 33.5026C134.916 30.4765 135.664 26.8498 137.28 24.2626C140.192 19.7417 144.329 16.1605 149.198 13.9446C157.288 10.2332 166.568 10.0099 175.375 11.2188C182.664 12.2275 189.984 14.2449 196.038 18.4645C198.623 20.3325 201.044 22.4217 203.275 24.7092Z" fill="url(#paint9_linear_129_14)"/>
<path opacity="0.69" d="M213.127 40.294C215.3 41.7724 218 42.1959 220.615 42.3114C221.572 42.3046 222.526 42.4263 223.452 42.6733C223.914 42.8001 224.339 43.0368 224.692 43.3637C225.045 43.6906 225.315 44.0981 225.48 44.5521C225.544 45.1217 225.695 45.6777 225.93 46.1999C225.983 46.2789 226.061 46.3383 226.151 46.3693C226.22 46.3694 226.288 46.3526 226.349 46.3204C226.41 46.2882 226.462 46.2416 226.502 46.1845C227.077 45.5378 227.43 44.7207 227.508 43.855C227.587 42.9892 227.386 42.121 226.936 41.3797C225.785 39.5856 223.482 39.0697 221.461 38.3844C218.893 37.5445 216.479 36.2827 214.317 34.6499C213.059 33.6951 210.154 31.6854 209.971 34.5575C209.826 36.829 211.343 39.0851 213.127 40.294Z" fill="url(#paint10_linear_129_14)"/>
<path opacity="0.69" d="M144.822 44.5368C145.76 42.3885 146.812 40.1786 148.589 38.654C150.716 36.8445 153.583 36.2439 156.321 35.7973C159.461 35.1877 162.654 34.8988 165.852 34.9349C172.096 35.2481 178.115 37.3883 183.176 41.0949C187.301 44.044 191.564 48.0711 196.558 47.3704C200.858 49.5187 194.85 55.6479 193.264 54.9934C190.023 53.6459 183.405 47.4089 180.195 45.9844C173.881 43.1816 166.729 43.3664 159.836 43.8361C158.193 43.8374 156.568 44.1808 155.063 44.8448C153.638 45.7097 152.438 46.9055 151.563 48.3329C150.108 50.296 149.035 52.5194 148.398 54.8856C147.964 56.7028 148.726 59.136 146.355 58.3198C140.995 56.4949 143.351 47.9864 144.822 44.5368Z" fill="url(#paint11_linear_129_14)"/>
<defs>
<linearGradient id="paint0_linear_129_14" x1="167.78" y1="129.691" x2="171.528" y2="-18.5707" gradientUnits="userSpaceOnUse">
<stop stop-opacity="0"/>
<stop offset="0.99"/>
</linearGradient>
<linearGradient id="paint1_linear_129_14" x1="146.08" y1="47.8477" x2="86.936" y2="87.7034" gradientUnits="userSpaceOnUse">
<stop stop-opacity="0"/>
<stop offset="0.99"/>
</linearGradient>
<linearGradient id="paint2_linear_129_14" x1="147.293" y1="61.3381" x2="214.454" y2="61.3381" gradientUnits="userSpaceOnUse">
<stop stop-opacity="0"/>
<stop offset="0.99"/>
</linearGradient>
<linearGradient id="paint3_linear_129_14" x1="118.867" y1="97.0893" x2="125.943" y2="97.0893" gradientUnits="userSpaceOnUse">
<stop stop-opacity="0"/>
<stop offset="0.99"/>
</linearGradient>
<linearGradient id="paint4_linear_129_14" x1="216.978" y1="96.9276" x2="207.149" y2="97.2145" gradientUnits="userSpaceOnUse">
<stop stop-opacity="0"/>
<stop offset="0.99"/>
</linearGradient>
<linearGradient id="paint5_linear_129_14" x1="167.004" y1="81.4968" x2="167.843" y2="123.623" gradientUnits="userSpaceOnUse">
<stop stop-opacity="0"/>
<stop offset="0.99"/>
</linearGradient>
<linearGradient id="paint6_linear_129_14" x1="167.353" y1="91.6375" x2="167.563" y2="96.1957" gradientUnits="userSpaceOnUse">
<stop offset="0.02" stop-color="white" stop-opacity="0"/>
<stop offset="0.58" stop-color="white" stop-opacity="0.39"/>
<stop offset="0.68" stop-color="white" stop-opacity="0.68"/>
<stop offset="1" stop-color="white"/>
</linearGradient>
<linearGradient id="paint7_linear_129_14" x1="139.751" y1="94.1941" x2="131.732" y2="85.0163" gradientUnits="userSpaceOnUse">
<stop offset="0.02" stop-color="white" stop-opacity="0"/>
<stop offset="0.58" stop-color="white" stop-opacity="0.39"/>
<stop offset="0.68" stop-color="white" stop-opacity="0.68"/>
<stop offset="1" stop-color="white"/>
</linearGradient>
<linearGradient id="paint8_linear_129_14" x1="192.135" y1="95.9497" x2="179.35" y2="88.3295" gradientUnits="userSpaceOnUse">
<stop offset="0.02" stop-color="white" stop-opacity="0"/>
<stop offset="0.58" stop-color="white" stop-opacity="0.39"/>
<stop offset="0.68" stop-color="white" stop-opacity="0.68"/>
<stop offset="1" stop-color="white"/>
</linearGradient>
<linearGradient id="paint9_linear_129_14" x1="168.497" y1="38.0918" x2="167.556" y2="-74.713" gradientUnits="userSpaceOnUse">
<stop offset="0.02" stop-color="white" stop-opacity="0"/>
<stop offset="0.58" stop-color="white" stop-opacity="0.39"/>
<stop offset="0.68" stop-color="white" stop-opacity="0.68"/>
<stop offset="1" stop-color="white"/>
</linearGradient>
<linearGradient id="paint10_linear_129_14" x1="210.054" y1="42.1343" x2="253.403" y2="30.1269" gradientUnits="userSpaceOnUse">
<stop offset="0.02" stop-color="white" stop-opacity="0"/>
<stop offset="0.58" stop-color="white" stop-opacity="0.39"/>
<stop offset="0.68" stop-color="white" stop-opacity="0.68"/>
<stop offset="1" stop-color="white"/>
</linearGradient>
<linearGradient id="paint11_linear_129_14" x1="135.07" y1="44.7832" x2="406.385" y2="68.5489" gradientUnits="userSpaceOnUse">
<stop offset="0.02" stop-color="white" stop-opacity="0"/>
<stop offset="0.58" stop-color="white" stop-opacity="0.39"/>
<stop offset="0.68" stop-color="white" stop-opacity="0.68"/>
<stop offset="1" stop-color="white"/>
</linearGradient>
</defs>
</svg>
