<svg width="395" height="270" viewBox="0 0 395 270" fill="none" xmlns="http://www.w3.org/2000/svg">
<g clip-path="url(#clip0_126_1252)">
<path opacity="0.1" d="M234.472 44.5157C209.91 43.6171 186.517 35.2693 164.179 26.1344C141.842 16.9995 119.701 6.87812 95.7389 2.03703C80.3195 -1.07438 62.6875 -1.51356 50.251 7.18893C38.2965 15.5671 34.4331 30.0262 32.3572 43.4448C30.7936 53.5391 29.8752 64.1639 34.1561 73.6129C37.1276 80.1736 42.4066 85.6903 46.0575 91.974C58.7596 113.842 49.7804 140.804 36.0195 162.158C29.5678 172.171 22.0725 181.728 17.0896 192.39C12.1066 203.052 9.80302 215.268 14.1636 226.143C18.4824 236.923 28.7784 245.021 39.9322 250.717C62.5851 262.284 89.2683 265.581 115.306 267.47C172.923 271.618 230.852 269.834 288.624 268.024C310.002 267.348 331.478 266.672 352.511 263.199C364.192 261.267 376.249 258.2 384.727 250.791C395.494 241.389 398.162 225.454 390.947 213.677C378.848 193.9 345.406 188.988 336.939 167.763C332.287 156.08 337.065 143.067 343.831 132.233C358.34 108.99 382.666 88.5991 383.945 62.0321C384.826 43.7894 373.133 25.5128 355.053 16.8813C336.104 7.8308 309.823 8.96929 295.85 23.9486C281.459 39.3739 256.161 45.3096 234.472 44.5157Z" fill="white"/>
<path d="M161.629 88.3558L141.409 91.1767L131.049 92.055L128.286 92.2915C128.286 92.2915 123.352 92.9874 122.87 92.2915C122.388 91.5956 112.881 92.2915 112.881 92.2915C112.881 92.2915 107.105 86.1633 93.3823 89.3997C91.9967 90.1301 90.4356 90.5563 88.8282 90.6429C88.8263 90.6182 88.8263 90.5933 88.8282 90.5686C88.8775 89.1598 88.6802 84.3018 83.8642 81.6431C82.4944 81.7692 81.1654 82.1318 79.9515 82.7107L79.8415 82.7647L79.5151 82.9336L79.4733 82.9742C79.6153 82.4181 79.7117 81.8535 79.7618 81.285C79.7618 81.0722 79.7617 80.8593 79.7883 80.6465C80.3407 80.5102 80.8242 80.2098 81.1583 79.7952C81.2956 79.5494 81.3547 79.2748 81.3291 79.0013C81.3291 78.9033 81.3291 78.802 81.3291 78.704C81.3273 78.6826 81.3273 78.6612 81.3291 78.6398C81.3291 78.6398 81.3291 78.6398 81.3291 78.6601C81.2496 77.6594 81.0846 76.6656 80.8358 75.6872L82.3234 76.5655C82.6802 76.775 83.128 76.998 83.553 76.8797C83.6896 76.8364 83.8128 76.7653 83.913 76.672C84.0131 76.5788 84.0874 76.4659 84.1299 76.3426C84.3955 75.7007 84.202 74.9338 84.7637 74.4034C84.8965 74.2784 85.0635 74.1771 85.1773 74.0453C85.3322 73.8649 85.4065 73.6399 85.3861 73.4136C85.3875 73.2823 85.376 73.1512 85.3519 73.0217V73.0487C85.2535 72.718 85.2379 72.372 85.3064 72.0352C85.5047 72.1041 85.7228 72.114 85.928 72.0635C86.1332 72.0129 86.3145 71.9047 86.4449 71.7549C86.649 71.4701 86.7497 71.1363 86.7333 70.7988C86.7675 70.2279 86.794 69.6434 86.7789 69.0624C86.7807 69.0512 86.7807 69.0398 86.7789 69.0286C86.7409 67.6536 86.4487 66.2989 85.3861 65.201C85.6631 63.6267 83.739 61.9105 81.591 61.6943C81.0635 61.6436 80.4145 61.6166 80.1792 61.2619C80.0997 61.0933 80.0646 60.9107 80.0767 60.7281C80.0236 60.1301 79.5606 59.5998 79.1166 59.0964C78.936 58.8765 78.7184 58.6828 78.4714 58.5221C77.7655 58.1167 76.7636 58.2248 75.8908 58.3633C74.2918 58.6133 72.7029 58.8926 71.1241 59.2011C70.9346 58.5209 70.9463 57.8085 71.1583 57.1336C71.305 56.7959 71.3945 56.4407 71.424 56.0796C71.4311 55.9657 71.417 55.8515 71.3822 55.7417V55.7857C71.3602 55.7293 71.3349 55.6741 71.3063 55.6201C71.2306 55.4966 71.1217 55.3918 70.9891 55.3151C70.8566 55.2385 70.7048 55.1923 70.5473 55.1809C70.3413 55.1749 70.1378 55.2221 69.9614 55.3168C69.7849 55.4115 69.6431 55.5497 69.553 55.7147C68.6499 56.8852 68.0237 58.207 67.7124 59.5997C67.1101 59.2258 66.4125 58.9916 65.6829 58.9184C64.9532 58.8453 64.2146 58.9355 63.534 59.1808C63.1912 59.3452 62.8208 59.4593 62.4372 59.5187C62.1179 59.5195 61.804 59.446 61.5264 59.3056C61.2488 59.1651 61.0173 58.9626 60.8546 58.718C60.4182 58.1403 60.2247 57.4512 59.3821 57.0694C59.1942 56.9837 58.9861 56.939 58.7749 56.939C58.5638 56.939 58.3557 56.9837 58.1677 57.0694C58.0692 57.1154 57.9822 57.1786 57.9118 57.2552C57.8413 57.3318 57.789 57.4203 57.7579 57.5153C57.7597 57.4985 57.7597 57.4815 57.7579 57.4647C57.7521 57.5141 57.7521 57.5639 57.7579 57.6133C57.7579 57.6336 57.7579 57.6539 57.7579 57.6741C57.7579 57.6944 57.7579 57.7248 57.7579 57.7484C57.7275 58.4005 58.2398 59.245 57.6592 59.7585C57.426 59.9319 57.1545 60.0596 56.8622 60.1335L54.7977 60.7923C53.6953 61.1998 52.5294 61.455 51.3404 61.549C50.2588 61.5828 49.1658 61.37 48.0994 61.3936C48.0492 61.3709 48.001 61.345 47.9552 61.3159C47.717 61.3271 47.48 61.352 47.2455 61.3902C47.2688 61.4166 47.2941 61.4414 47.3214 61.4646H47.2455C47.7891 62.0025 48.5062 62.3777 49.2986 62.5389C49.7882 62.647 50.3043 62.6808 50.7787 62.8159C51.2531 62.951 51.7047 63.2213 51.7882 63.5929C51.7969 63.904 51.7131 64.2117 51.5453 64.4848L51.5263 64.4577C51.4767 64.5777 51.4522 64.7049 51.4542 64.8327C51.445 64.8933 51.445 64.9546 51.4542 65.0152C51.5373 65.2278 51.7044 65.4063 51.9243 65.5175C52.1441 65.6288 52.4019 65.6651 52.6497 65.6199L50.2094 66.9881C50.0276 67.0852 49.8572 67.1984 49.7009 67.3259L49.6326 67.309C49.5632 67.3696 49.5085 67.4423 49.4719 67.5225C49.4354 67.6027 49.4177 67.6887 49.4201 67.7752C49.4122 67.8415 49.4213 67.9085 49.4466 67.9712L50.2322 68.1705L48.088 70.8123C47.9573 70.9658 47.8429 71.1298 47.7464 71.3022L47.7236 71.2684C47.6749 71.3758 47.6492 71.4904 47.6477 71.6062C47.6402 71.6634 47.6402 71.7213 47.6477 71.7785C47.6661 71.8735 47.707 71.9639 47.7677 72.0436C47.8285 72.1233 47.9078 72.1906 48.0001 72.2408C48.0925 72.291 48.1959 72.3231 48.3033 72.3348C48.4108 72.3466 48.5198 72.3377 48.6231 72.3089C48.1532 72.7286 47.7749 73.2223 47.5073 73.7649L47.4732 73.7447L47.439 73.8156C47.3855 73.9218 47.3583 74.037 47.3593 74.1534C47.3434 74.2423 47.3636 74.3334 47.4162 74.4102C47.5126 74.5003 47.6318 74.5685 47.7639 74.609C47.8959 74.6496 48.037 74.6613 48.1753 74.6433C49.3138 74.6433 50.3726 73.9507 50.551 73.1231C50.9001 73.4609 50.5244 73.8629 50.1943 74.2109C48.8508 75.6095 47.4846 77.0317 46.7787 78.6635C46.5306 79.2232 46.3796 79.8133 46.3309 80.4134C46.3309 80.4134 46.3309 80.3864 46.3309 80.3729C46.3309 80.4168 46.3309 80.4607 46.3309 80.5046C46.2357 81.625 46.633 82.7345 47.439 83.5992C47.7375 83.8683 48.0045 84.1638 48.236 84.4809C48.661 85.1836 48.4182 86.0856 49.0785 86.6802C49.6114 85.416 50.256 84.1915 51.0064 83.0181C50.9945 83.3356 50.9411 83.6508 50.847 83.9573V83.9302C50.847 84.0113 50.8166 84.089 50.8091 84.1667C50.8053 84.2241 50.8053 84.2816 50.8091 84.339C50.7914 84.5427 50.847 84.746 50.9677 84.9197C51.0885 85.0934 51.2682 85.2284 51.4808 85.3052C52.1525 85.518 52.847 85.0856 53.3024 84.6532C53.3669 84.8018 53.4315 84.9471 53.5036 85.0924C54.9162 87.8896 57.4689 90.1052 60.6459 91.2915L60.7066 91.403C58.145 92.7543 52.1905 96.0414 51.8034 97.3015C51.3062 98.9096 51.4846 103.139 55.052 103.997C55.824 104.185 56.6249 104.26 57.4239 104.22C57.2721 104.433 57.1241 104.649 56.9799 104.859C55.9931 106.284 55.1658 107.605 54.9153 108.315C54.1943 110.386 47.4542 112.892 47.4542 112.892C47.4542 112.892 41.3138 117.284 39.9931 125.73C39.9931 125.73 33.4921 133.25 29.883 134.817C26.2738 136.385 20.0157 145.993 20.0157 145.993C20.0157 145.993 13.8184 149.864 12.5015 153.638C11.1846 157.412 7.94737 158.341 7.94737 158.341C7.94737 158.341 8.24338 158.469 8.70638 158.726C8.55838 158.797 8.40278 158.878 8.2282 158.972C5.28322 160.533 -1.21776 164.807 0.220574 171.472C1.61716 177.891 9.76901 171.644 13.7311 168.151L14.0878 167.834C14.0272 168.193 13.9436 168.55 13.8373 168.901C14.6944 167.71 15.7575 166.648 16.9873 165.753C18.3106 164.801 19.3974 163.615 20.1789 162.269C20.7785 161.256 21.7387 160.243 23.215 159.905C26.4636 159.175 42.9494 147.895 46.5661 142.044C50.1829 136.192 57.7579 133.936 57.7579 133.936L61.2342 143.615C61.7644 145.094 61.8572 146.671 61.5036 148.192C60.7446 151.489 59.792 157.861 62.0918 162.817C62.0918 162.817 62.1981 162.729 62.3917 162.584C62.7066 163.84 63.1089 165.492 63.4733 167.117C63.5605 167.516 63.644 167.915 63.7237 168.307C63.9552 169.411 64.1488 170.448 64.2588 171.276C64.7408 174.83 66.0653 182.978 67.1469 183.813C68.2285 184.647 74.3576 201.569 74.3576 201.569C74.3576 201.569 79.7731 212.643 78.9344 217.552C78.858 218.153 78.8695 218.761 78.9686 219.359C79.1553 220.58 79.4316 221.789 79.7959 222.977C79.9022 223.336 80.0084 223.7 80.1299 224.072C80.2286 224.393 80.3348 224.721 80.4411 225.048C83.0635 232.97 88.0806 243.561 88.0806 243.561C88.0806 243.561 88.498 244.524 89.0407 245.811C89.2191 246.244 89.4202 246.713 89.6138 247.196C90.5056 249.359 91.4468 251.784 91.4468 252.335C91.4468 252.46 91.6366 252.598 91.9668 252.74C91.1072 254.012 90.3464 255.335 89.6897 256.7C88.6347 258.916 85.5986 261.112 85.5986 261.112C85.5986 261.112 81.9857 262.024 81.9857 264.828V266.97C81.9857 266.97 89.6593 266.838 92.1869 267.466C94.7144 268.095 98.0844 267.02 98.0844 267.02L98.8055 266.189C98.8055 266.189 107.561 266.527 108.103 264.591C108.263 264.024 108.255 262.814 108.126 261.372C107.961 259.613 107.669 257.865 107.253 256.139C107.83 256.118 108.225 256.085 108.225 256.085C108.225 256.085 112.229 258.382 112.646 260.656C112.774 261.324 113.064 261.959 113.495 262.518C113.926 263.077 114.489 263.546 115.143 263.892C115.143 263.892 119.299 265.581 127.269 264.807C131.443 264.412 132.229 262.52 131.845 260.838C131.496 259.297 130.16 257.933 129.527 258.044C128.206 258.281 122.878 251.463 122.878 251.463L120.172 246.396C120.415 243.693 119.701 242.413 118.699 241.869C119.386 236.17 119.477 228.531 119.477 228.531C119.477 228.531 120.081 219.339 119.477 211.086C118.874 202.833 118.874 186.644 116.821 181.212C115.872 178.685 114.498 171.607 113.307 164.763C113.215 164.249 113.124 163.749 113.041 163.232C112.752 161.567 112.483 159.938 112.232 158.411C112.35 158.361 112.472 158.31 112.578 158.256L111.933 153.243L111.842 152.55C111.864 152.57 111.895 152.584 111.917 152.601C114.084 154.374 111.196 144.557 111.196 144.557C111.196 144.557 109.895 133.267 109.982 126.774C109.99 124.464 109.852 122.155 109.568 119.858C109.348 117.926 109.861 115.416 113.14 113.649C114.001 113.165 114.809 112.61 115.553 111.99C116.468 111.25 118.464 110.301 122.764 110.19C129.975 109.984 137.185 106.639 137.185 106.639C137.185 106.639 145.493 107.058 149.329 102.67C153.166 98.2812 162.81 97.2407 162.81 97.2407L161.629 88.3558ZM12.9379 162.472L11.8715 161.141C12.2677 161.558 12.6243 162.003 12.9379 162.472ZM103.705 216.812C103.644 217.488 103.599 218.282 103.591 219.177C103.561 221.974 103.872 225.704 105.287 229.268L104.684 243.305H104.635C104.126 243.257 103.652 244.69 103.284 246.578C102.983 245.799 102.609 245.043 102.168 244.318C101.447 243.379 102.05 238.159 102.05 238.159C102.05 238.159 99.037 233.876 98.8017 232.933C98.5664 231.991 94.9459 216.741 94.9459 216.741C94.9459 216.741 94.7068 204.836 93.3823 201.809C92.0578 198.782 91.6973 185.617 91.6973 185.617C91.6973 185.617 98.3159 195.12 98.8017 199.927L103.974 214.657C103.974 214.657 103.815 215.461 103.705 216.812Z" fill="url(#paint0_linear_126_1252)"/>
<path d="M118.183 228.096C118.183 228.096 117.986 244.808 116.008 247.082C114.031 249.355 103.69 247.186 103.69 247.186L104.449 228.819C103.079 225.292 102.775 221.596 102.809 218.826C102.809 217.94 102.858 217.136 102.915 216.484C103.025 215.133 103.177 214.336 103.177 214.336L98.1791 199.748C97.7123 194.985 91.3214 185.56 91.3214 185.56C91.3214 185.56 91.6705 198.596 92.9495 201.596C94.2284 204.596 94.4675 216.39 94.4675 216.39C94.4675 216.39 97.9552 231.498 98.1867 232.43C98.4182 233.362 101.325 237.602 101.325 237.602C101.325 237.602 100.745 242.774 101.443 243.707C102.141 244.639 105.044 251.882 104.346 253.227C103.648 254.571 91.0975 252.706 91.0975 251.673C91.0975 251.129 90.1866 248.723 89.3252 246.582L88.7711 245.21C88.2474 243.936 87.8413 242.984 87.8413 242.984C87.8413 242.984 82.9988 232.491 80.4674 224.643C80.3612 224.305 80.2625 223.994 80.1638 223.68C80.05 223.309 79.9437 222.947 79.845 222.592C79.494 221.415 79.2266 220.219 79.0443 219.011C78.949 218.418 78.9376 217.817 79.0101 217.221C79.8223 212.356 74.5927 201.39 74.5927 201.39C74.5927 201.39 68.6647 184.627 67.6173 183.799C66.5698 182.972 65.2909 174.904 64.8279 171.384C64.7216 170.56 64.5357 169.533 64.3118 168.442C64.2359 168.053 64.1524 167.658 64.0689 167.259C63.3592 163.999 62.4863 160.624 62.4863 160.624L75.5224 152.966L109.811 149.655C109.811 149.655 110.767 156.195 111.97 163.405C112.054 163.905 112.141 164.418 112.229 164.922C113.367 171.698 114.707 178.712 115.621 181.212C117.595 186.593 117.595 202.63 118.179 210.802C118.764 218.974 118.183 228.096 118.183 228.096Z" fill="#63667E"/>
<path opacity="0.1" d="M84.4561 159.212L88.7711 178.823H90.8204L86.7217 158.53L84.4561 159.212Z" fill="black"/>
<path opacity="0.1" d="M64.3269 168.445C64.251 168.057 64.1675 167.661 64.084 167.263C66.0916 166.898 70.6343 165.408 69.9284 159.435H71.3212C71.3212 159.435 72.6419 167.303 64.3269 168.445Z" fill="black"/>
<path opacity="0.1" d="M112.244 164.935C109.64 165.361 101.504 166.607 99.7997 165.783C97.7693 164.8 95.7617 159.472 95.7617 159.472L97.6213 159.212C97.6213 159.212 95.9818 167.026 111.986 163.418C112.069 163.918 112.156 164.425 112.244 164.935Z" fill="black"/>
<path d="M111.541 158.489C109.196 159.702 103.689 160.286 97.2792 160.516C96.6948 160.536 96.1065 160.557 95.5069 160.57C85.116 160.861 72.9831 160.337 68.1481 160.091C66.7857 160.023 66.0039 159.976 66.0039 159.976L70.2468 157.364L77.2222 155.087L91.894 152.527L110.695 152.06L110.885 153.496L111.541 158.489Z" fill="#33363D"/>
<path d="M97.2794 160.53C96.6949 160.55 96.1067 160.57 95.5071 160.584C94.7708 157.807 92.4482 153.368 92.4482 153.368L94.4217 153.135L97.2794 160.53Z" fill="#63667E"/>
<path d="M18.1182 166.29C18.1182 166.29 17.2984 167.134 16.0385 168.276C12.213 171.739 4.33821 177.925 2.99475 171.567C1.60195 164.976 7.88282 160.756 10.7253 159.195C11.5299 158.753 12.0574 158.52 12.0574 158.52L18.1182 166.29Z" fill="#FFA2A2"/>
<path d="M88.5545 91.8322C88.5545 91.8322 84.1105 89.3492 83.2831 89.5823C82.4558 89.8154 83.2831 93.1464 83.2831 93.1464C82.2114 94.9667 80.5167 96.4362 78.4444 97.3422C76.0689 98.4478 73.7688 99.6774 71.5563 101.025C69.8435 100.876 68.1146 101.048 66.4807 101.529C64.8468 102.01 63.3439 102.79 62.0686 103.818C61.1769 104.352 60.1682 104.711 59.109 104.872C58.0498 105.033 56.9643 104.991 55.9244 104.751C52.4784 103.899 52.3076 99.7104 52.7858 98.1192C53.1653 96.8693 58.9111 93.6261 61.3855 92.2748C62.0686 91.9032 62.5012 91.6768 62.5012 91.6768C62.5012 91.6768 73.6664 91.339 76.1863 87.0992C76.9616 85.7889 78.1175 84.6876 79.5336 83.9101L79.5981 83.8797L79.9169 83.7108L80.0194 83.6601C81.1922 83.0847 82.4826 82.7241 83.8144 82.5994C89.268 85.7006 88.5545 91.8322 88.5545 91.8322Z" fill="#CED7E7"/>
<path opacity="0.1" d="M88.5545 91.8322C88.5545 91.8322 84.1105 89.3492 83.2831 89.5823C82.4558 89.8154 83.2831 93.1464 83.2831 93.1464C82.2114 94.9667 80.5167 96.4362 78.4444 97.3422C76.0689 98.4478 73.7688 99.6774 71.5563 101.025C69.8435 100.876 68.1146 101.048 66.4807 101.529C64.8468 102.01 63.3439 102.79 62.0686 103.818C61.1769 104.352 60.1682 104.711 59.109 104.872C58.0498 105.033 56.9643 104.991 55.9244 104.751C52.4784 103.899 52.3076 99.7104 52.7858 98.1192C53.1653 96.8693 58.9111 93.6261 61.3855 92.2748C62.0686 91.9032 62.5012 91.6768 62.5012 91.6768C62.5012 91.6768 73.6664 91.339 76.1863 87.0992C76.9616 85.7889 78.1175 84.6876 79.5336 83.9101L79.5981 83.8797L79.9169 83.7108L80.0194 83.6601C81.1922 83.0847 82.4826 82.7241 83.8144 82.5994C89.268 85.7006 88.5545 91.8322 88.5545 91.8322Z" fill="black"/>
<path opacity="0.1" d="M110.885 153.51C108.794 151.75 95.7768 154.956 95.7768 154.956C95.7768 154.956 86.8128 157.246 79.9741 157.618C79.043 157.673 78.1093 157.683 77.1771 157.648C74.3042 157.516 71.3099 158.55 68.7975 159.79L68.1638 160.128C66.8013 160.06 66.0195 160.013 66.0195 160.013L70.2624 157.402L77.2378 155.125L91.9096 152.564L110.71 152.098L110.885 153.51Z" fill="black"/>
<path opacity="0.1" d="M16.0377 168.276C16.9068 163.121 12.4134 160.124 10.7246 159.195C11.5292 158.753 12.0567 158.52 12.0567 158.52L18.1288 166.29C18.1288 166.29 17.2977 167.134 16.0377 168.276Z" fill="black"/>
<path d="M160.039 98.0415C160.039 98.0415 150.737 99.055 147.022 103.42C143.307 107.784 135.28 107.352 135.28 107.352C135.28 107.352 128.305 110.663 121.333 110.869C117.193 110.991 115.261 111.916 114.381 112.649C113.665 113.263 112.884 113.813 112.05 114.294C108.885 116.044 108.388 118.527 108.604 120.443C108.876 122.719 109.009 125.006 109.003 127.294C108.919 133.713 110.176 144.909 110.176 144.909C110.176 144.909 112.965 154.635 110.87 152.878C108.775 151.121 95.7619 154.324 95.7619 154.324C95.7619 154.324 86.7979 156.614 79.9591 156.989C79.028 157.043 78.0943 157.052 77.1621 157.016C74.2893 156.885 71.2949 157.918 68.7826 159.162C66.6207 160.247 64.5986 161.54 62.7522 163.016C60.5283 158.108 61.4543 151.794 62.1829 148.53C62.5234 147.023 62.4347 145.465 61.9249 143.996L58.5662 134.409C58.5662 134.409 51.2455 136.632 47.7578 142.426C44.2701 148.219 28.346 159.395 25.2036 160.121C23.7653 160.459 22.8393 161.455 22.2587 162.449C21.5121 163.777 20.4641 164.952 19.1808 165.901C17.9915 166.793 16.9669 167.845 16.1448 169.019C18.2397 161.982 10.4521 158.567 10.4521 158.567C10.4521 158.567 13.5869 157.635 14.8658 153.918C16.1448 150.202 22.0765 146.368 22.0765 146.368C22.0765 146.368 28.1221 136.848 31.6098 135.294C35.0974 133.74 41.3745 126.294 41.3745 126.294C42.6497 117.913 48.5852 113.568 48.5852 113.568C48.5852 113.568 55.0975 111.085 55.7958 109.034C56.0387 108.332 56.8357 107.024 57.7882 105.612C58.6763 104.281 59.6858 102.866 60.5017 101.761C61.3177 100.656 61.959 99.805 61.959 99.805L72.3955 99.7171L74.2931 99.7002L79.8529 90.3829C79.8529 90.3829 81.8301 88.6262 85.2571 90.6937C86.2423 91.2793 87.4137 91.5661 88.5967 91.5113C90.1502 91.4218 91.6565 91 92.9876 90.2816C106.24 87.0722 111.819 93.1463 111.819 93.1463C111.819 93.1463 120.999 92.4538 121.462 93.1463C121.925 93.8389 126.692 93.1463 126.692 93.1463L139.364 92.0383L158.893 89.2478L160.039 98.0415Z" fill="#CED7E7"/>
<path d="M83.7881 94.9368L77.8602 103.626C77.8602 103.626 61.7045 114.078 64.0309 105.903C64.4079 104.528 64.5423 103.109 64.4294 101.697C64.3952 101.146 64.3231 100.595 64.232 100.052C63.8107 97.7971 63.0659 95.6001 62.0157 93.5146C61.898 93.2646 61.7766 93.0247 61.6362 92.7882C61.454 92.4504 61.2757 92.1126 61.0973 91.795C60.3491 90.4465 59.4983 89.1451 58.5508 87.8999C58.5508 87.8999 76.103 75.1738 76.6837 83.1398C76.8109 84.9394 77.2726 86.7078 78.0499 88.3728L78.1865 88.6532C79.1634 90.617 80.5681 92.3887 82.3194 93.8659C82.7774 94.2559 83.2684 94.6139 83.7881 94.9368Z" fill="#FFA2A2"/>
<path d="M60.3115 103.008L63.044 110.247L74.1598 111.852L80.5355 105.609C80.5355 105.609 84.1978 100.954 84.4293 100.849C84.6608 100.744 85.2414 96.2984 85.2414 96.2984L85.9246 93.7849L81.6247 92.4978L75.5791 98.3422L73.1086 99.6936L70.3647 100.288L61.2565 102.653L60.3115 103.008Z" fill="#CED7E7"/>
<path opacity="0.1" d="M88.5543 92.4539C88.5543 92.4539 85.5182 92.4268 84.7099 92.6599C83.9015 92.8931 83.2829 93.7646 83.2829 93.7646C82.212 95.5864 80.5172 97.0572 78.4442 97.9639C76.0687 99.0694 73.7686 100.299 71.5561 101.646C69.8432 101.497 68.1141 101.668 66.48 102.149C64.846 102.63 63.3432 103.411 62.0684 104.44C60.7966 105.2 59.3002 105.607 57.7686 105.609C58.6566 104.278 59.6661 102.862 60.482 101.758C64.2316 101.393 72.1671 100.099 72.1671 100.099L72.3758 99.7138C73.1121 98.3625 75.6055 93.7984 76.5239 92.4201C77.5941 90.812 80.9489 85.7885 81.0552 85.6297L77.7611 88.3121L79.522 84.5351L79.5865 84.5047L79.9053 84.3358L80.0078 84.2852C81.1806 83.7097 82.471 83.3491 83.8028 83.2244C87.9585 85.5892 88.5505 89.6769 88.596 91.5181C88.602 91.8305 88.5881 92.1429 88.5543 92.4539Z" fill="black"/>
<path opacity="0.1" d="M61.3746 91.6566L62.2361 93.3457C62.2361 93.3457 62.164 93.3998 62.0122 93.5011C61.8945 93.2511 61.7731 93.0113 61.6327 92.7748C61.4505 92.437 61.2721 92.0991 61.0938 91.7816C61.1848 91.7343 61.2683 91.6836 61.3518 91.6431L61.3746 91.6566Z" fill="black"/>
<path opacity="0.1" d="M82.334 93.8658C81.2884 95.0599 79.9603 96.0345 78.444 96.7204C76.068 97.8264 73.7679 99.0572 71.556 100.406C69.0885 100.189 66.6048 100.639 64.4288 101.697C64.3946 101.146 64.3225 100.595 64.2314 100.051C67.9658 99.5379 72.167 98.8521 72.167 98.8521C72.167 98.8521 75.4383 92.8016 76.5237 91.1733C76.9032 90.626 77.5256 89.6699 78.2012 88.6531C79.178 90.6168 80.5827 92.3886 82.334 93.8658Z" fill="black"/>
<path d="M88.5545 91.8322C88.5545 91.8322 85.5184 91.8052 84.7063 92.0383C83.8941 92.2714 83.2831 93.1463 83.2831 93.1463C82.2114 94.9667 80.5167 96.4362 78.4444 97.3422C76.0689 98.4478 73.7688 99.6773 71.5563 101.025C69.8435 100.876 68.1146 101.048 66.4807 101.529C64.8468 102.01 63.3439 102.79 62.0686 103.818C61.1769 104.352 60.1682 104.711 59.109 104.872C58.0498 105.033 56.9643 104.991 55.9244 104.751C52.4784 103.899 52.3076 99.7104 52.7858 98.1192C53.1653 96.8692 58.9111 93.6261 61.3855 92.2748L62.247 93.9808C60.4522 95.2055 58.5724 96.3281 56.6189 97.3422C52.9111 99.3185 54.7858 101.454 54.7858 101.454C56.1199 101.248 57.4748 101.169 58.8276 101.217C60.7479 101.332 72.1673 99.4705 72.1673 99.4705C72.1673 99.4705 75.4387 93.4166 76.5241 91.7917C77.6095 90.1667 80.9492 85.1601 81.0554 85.0013L77.7613 87.7039L79.5222 83.927L79.5867 83.8966L79.9055 83.7277L80.008 83.677C81.1808 83.1016 82.4712 82.7409 83.8031 82.6162C89.268 85.7006 88.5545 91.8322 88.5545 91.8322Z" fill="#CED7E7"/>
<path opacity="0.1" d="M78.0651 88.3796C76.3577 90.7283 73.7687 92.4609 70.7597 93.2684C67.7507 94.0758 64.5174 93.9057 61.6362 92.7882C60.7593 91.0865 59.7274 89.4516 58.5508 87.8999C58.5508 87.8999 76.103 75.1738 76.6837 83.1398C76.8149 84.9425 77.2817 86.7132 78.0651 88.3796Z" fill="black"/>
<path d="M79.8527 81.3492C79.8527 81.6443 79.8413 81.9348 79.8185 82.2208C79.569 85.311 77.9669 88.1906 75.3569 90.2401C72.7469 92.2897 69.3375 93.3454 65.8621 93.1803C62.3867 93.0152 59.1228 91.6425 56.7727 89.3573C54.4226 87.0721 53.1739 84.0572 53.2952 80.9609C53.4165 77.8646 54.8982 74.9344 57.4215 72.8006C59.9448 70.6668 63.3082 69.4998 66.7881 69.5507C70.268 69.6016 73.5865 70.8662 76.0297 73.0727C78.4729 75.2792 79.8457 78.2511 79.8527 81.3492Z" fill="#FFA2A2"/>
<path opacity="0.1" d="M45.4346 119.355C45.4346 119.355 48.353 124.217 51.9431 126.892C55.5333 129.568 57.6358 133.723 57.6358 133.723C57.6358 133.723 56.5921 125.666 45.4346 119.355Z" fill="black"/>
<path opacity="0.1" d="M40.8994 131.564C40.8994 131.564 51.1461 129.287 56.3037 131.564H40.8994Z" fill="black"/>
<path opacity="0.1" d="M37.1807 145.135L48.2054 141.757C48.2054 141.757 41.1427 146.256 37.1807 145.135Z" fill="black"/>
<path opacity="0.1" d="M18.1182 158.361C18.1182 158.361 22.8848 158.155 24.3952 159.499C24.3952 159.499 19.7463 159.81 18.1182 158.361Z" fill="black"/>
<path opacity="0.1" d="M129.344 92.9099C129.344 92.9099 118.657 98.5584 118.183 107.663L129.344 92.9099Z" fill="black"/>
<path opacity="0.1" d="M142.255 101.454C142.255 101.454 129.003 103.835 126.794 105.075C124.585 106.315 119.822 106.937 119.822 106.937C119.822 106.937 138.999 104.663 142.255 101.454Z" fill="black"/>
<path opacity="0.1" d="M103.382 151.388C102.418 152.28 90.5203 154.794 79.8865 156.895C78.9213 156.952 77.9534 156.962 76.987 156.925C74.0079 156.79 70.9149 157.854 68.2963 159.131C65.0856 159.739 63.0097 160.121 63.0097 160.121C63.0097 160.121 59.5144 157.668 64.3342 152.131C69.154 146.594 70.0003 137.858 70.0003 137.858L91.4577 132.973C91.4577 132.973 97.2452 140.068 100.016 141.206C102.786 142.345 105.166 149.746 103.382 151.388Z" fill="black"/>
<path d="M102.623 151.635C101.689 152.506 90.2166 154.945 79.9623 156.989C79.0312 157.043 78.0975 157.052 77.1653 157.016C74.2924 156.885 71.2981 157.918 68.7858 159.161C65.689 159.749 63.6852 160.121 63.6852 160.121C63.6852 160.121 60.3151 157.739 64.9641 152.351C69.6131 146.962 70.4252 138.483 70.4252 138.483L91.116 133.726C91.116 133.726 96.6948 140.618 99.3666 141.726C102.038 142.834 104.331 150.043 102.623 151.635Z" fill="#CED7E7"/>
<path opacity="0.1" d="M85.826 219.457L79.8525 222.606C79.5015 221.428 79.2341 220.232 79.0518 219.025C79.9208 219.67 85.826 219.457 85.826 219.457Z" fill="black"/>
<path opacity="0.1" d="M80.1787 223.694C82.2888 223.336 87.2983 222.444 90.0459 221.606C87.5564 222.687 83.0516 224.494 80.4937 224.646C80.3761 224.332 80.2774 224.008 80.1787 223.694Z" fill="black"/>
<path opacity="0.1" d="M91.8069 220.809C91.5868 221.048 90.9416 221.319 90.0498 221.592C91.1162 221.146 91.8069 220.809 91.8069 220.809Z" fill="black"/>
<path opacity="0.1" d="M95.4123 246.822C93.7197 246.947 90.9683 246.744 89.3402 246.595L88.7861 245.224C90.5281 245.389 93.9854 245.649 95.4123 245.271C97.3592 244.757 97.9437 246.643 95.4123 246.822Z" fill="black"/>
<path opacity="0.1" d="M110.536 219.326C110.255 219.292 105.739 218.839 102.832 218.826C102.832 217.94 102.881 217.136 102.938 216.484C104.942 217.238 110.236 219.234 110.536 219.326Z" fill="black"/>
<path d="M107.211 263.818C106.687 265.74 98.2318 265.402 98.2318 265.402L97.5335 266.226C97.5335 266.226 94.2811 267.287 91.8409 266.666C89.4006 266.044 81.9736 266.176 81.9736 266.176V264.051C81.9736 261.284 85.4613 260.379 85.4613 260.379C85.4613 260.379 88.3949 258.206 89.412 256.007C90.0462 254.646 90.7829 253.324 91.6169 252.051C91.6169 252.051 88.8883 249.102 96.209 248.335C103.42 247.592 100.592 253.419 100.513 253.581C100.63 253.487 103.336 251.321 104.839 252.004C105.924 252.5 106.907 257.203 107.215 260.608C107.355 262.054 107.363 263.254 107.211 263.818Z" fill="#CED7E7"/>
<path opacity="0.1" d="M107.211 263.818C106.687 265.74 98.2318 265.402 98.2318 265.402L97.5335 266.226C97.5335 266.226 94.2811 267.287 91.8409 266.666C89.4006 266.044 81.9736 266.176 81.9736 266.176V264.149C86.4442 264.345 95.3931 264.608 97.4044 263.686C97.4044 263.686 99.8143 263.142 100.368 262.781C100.835 262.473 105.746 261.044 107.2 260.622C107.355 262.054 107.363 263.254 107.211 263.818Z" fill="black"/>
<path d="M125.72 264.031C118.02 264.781 114.009 263.122 114.009 263.122C113.371 262.774 112.825 262.307 112.409 261.754C111.993 261.2 111.717 260.573 111.599 259.916C111.193 257.666 107.325 255.392 107.325 255.392C107.325 255.392 102.563 255.804 101.978 254.561C101.838 254.034 101.784 253.491 101.819 252.95C101.819 249.615 102.756 242.612 103.838 242.714C105.113 242.839 109.056 247.487 109.451 247.953C109.105 247.453 105.675 242.247 113.284 241.629C113.284 241.629 119.5 238.501 118.863 245.795L121.477 250.811C121.477 250.811 126.623 257.568 127.899 257.331C128.51 257.22 129.796 258.571 130.138 260.098C130.506 261.764 129.743 263.639 125.72 264.031Z" fill="#CED7E7"/>
<path opacity="0.1" d="M79.8526 81.3492C79.8526 81.6443 79.8412 81.9348 79.8184 82.2208L79.4958 82.3289L78.2473 82.7343C78.0369 82.8147 77.8118 82.8604 77.5831 82.8695C77.4047 82.8629 77.2303 82.8202 77.0731 82.7447C76.916 82.6692 76.7802 82.5628 76.6761 82.4337C76.4964 82.1893 76.3678 81.9181 76.2966 81.633L75.3516 78.4C75.1619 77.7581 74.8696 77.0182 74.0613 76.7784C73.8252 76.7324 73.5931 76.6714 73.3668 76.596C72.862 76.3831 72.7558 75.8831 72.585 75.4642C72.2055 74.4879 71.1922 73.7075 70.0954 73.0994C69.3539 72.6373 68.473 72.3853 67.5679 72.3765C67.0832 72.3832 66.6147 72.5329 66.2358 72.8021C65.4426 73.4001 65.5527 74.2075 65.6476 75.0588C65.7425 75.9102 65.9967 76.8189 65.7159 77.6703C65.5261 78.2243 65.1201 78.7412 65.048 79.3155C64.9872 79.7783 65.158 80.2479 65.1277 80.7107C65.1218 80.9607 65.0211 81.2016 64.8419 81.3942C64.6628 81.5867 64.4157 81.7197 64.1409 81.7715C64.0916 81.4911 63.6324 81.3999 63.325 81.2479C62.6305 80.91 62.5925 80.1736 62.6229 79.5587C62.676 78.6398 62.7254 77.7176 62.7747 76.7987C62.4681 78.8539 61.9924 80.8863 61.3516 82.8796C61.2726 83.2261 61.0919 83.5479 60.8278 83.812C60.6722 83.95 60.4737 84.0433 60.258 84.0801C60.0422 84.1168 59.819 84.0952 59.6172 84.0181C59.3824 83.8862 59.2086 83.6836 59.1276 83.4471C58.6428 82.3768 58.4755 81.2134 58.6419 80.0688C58.2206 81.5654 57.7994 83.0789 56.9872 84.4843C56.6646 85.0417 56.1751 85.6464 55.3819 85.7579C55.1399 85.7647 54.9 85.7999 54.6684 85.8626C54.576 85.9017 54.4924 85.9555 54.4217 86.0214C53.6484 84.4142 53.2861 82.674 53.3613 80.9268C53.4364 79.1796 53.947 77.4691 54.8561 75.9192C55.7652 74.3693 57.0501 73.0187 58.6177 71.9653C60.1853 70.9118 61.9965 70.1818 63.92 69.8281C65.8436 69.4744 67.8315 69.5058 69.7397 69.9201C71.6479 70.3345 73.4288 71.1213 74.9534 72.2237C76.478 73.3261 77.7081 74.7165 78.5548 76.2942C79.4015 77.8718 79.8435 79.5974 79.8488 81.3458L79.8526 81.3492Z" fill="black"/>
<path d="M66.2352 72.1976C66.6132 71.9264 67.082 71.7754 67.5673 71.7685C68.4722 71.7784 69.3528 72.0303 70.0948 72.4915C71.1916 73.0861 72.1897 73.8631 72.5844 74.8563C72.7552 75.2752 72.8576 75.7786 73.3434 75.9914C73.5707 76.0633 73.8026 76.1231 74.0379 76.1704C74.8501 76.4103 75.1423 77.1501 75.3282 77.792L76.2808 81.0251C76.3427 81.3099 76.465 81.5817 76.6413 81.8257C76.7451 81.9555 76.8807 82.0625 77.0378 82.1386C77.195 82.2147 77.3696 82.2579 77.5484 82.2649C77.7787 82.2558 78.0052 82.2089 78.2163 82.1264L79.4649 81.721C80.1214 81.5082 80.8349 81.2548 81.1347 80.7615C81.292 80.4433 81.3446 80.0919 81.2865 79.7481C81.2136 78.716 81.0512 77.6904 80.8008 76.6806L82.2353 77.5488C82.5807 77.7549 83.0133 77.9744 83.4232 77.8596C83.5564 77.8153 83.6761 77.7441 83.773 77.6514C83.8698 77.5587 83.9411 77.4473 83.981 77.3258C84.2391 76.6907 84.0531 75.9306 84.592 75.4069C84.7211 75.2853 84.8805 75.1806 84.9943 75.0522C85.4839 74.4914 84.9032 73.7313 85.1044 73.0759C85.2981 73.1439 85.5115 73.1533 85.7118 73.1026C85.912 73.0519 86.088 72.944 86.2126 72.7955C86.4098 72.5122 86.5063 72.1826 86.4896 71.8496C86.6034 69.9409 86.6566 67.8734 85.1879 66.3193C85.4573 64.7586 83.5977 63.0593 81.5408 62.8464C81.0285 62.7924 80.4023 62.7654 80.1784 62.4174C80.0989 62.25 80.0638 62.0685 80.0759 61.887C80.0228 61.2958 79.5787 60.7688 79.1499 60.2722C78.9785 60.0531 78.7683 59.8603 78.5275 59.7013C77.8482 59.3026 76.8804 59.4107 76.0379 59.5459C74.4921 59.7913 72.9563 60.0672 71.4307 60.3735C71.2517 59.706 71.2634 59.0091 71.4648 58.3466C71.6204 57.8466 71.8861 57.3331 71.5977 56.8331C71.5244 56.7082 71.4159 56.6024 71.2828 56.526C71.1498 56.4496 70.9967 56.4052 70.8387 56.3973C70.6379 56.3926 70.44 56.4403 70.2694 56.5346C70.0988 56.6288 69.9629 56.7655 69.8785 56.9277C69.0046 58.091 68.4007 59.3981 68.1024 60.7722C67.529 60.4111 66.8625 60.1846 66.1646 60.1137C65.4667 60.0429 64.76 60.1299 64.11 60.3668C63.7819 60.531 63.4253 60.6452 63.0549 60.7046C62.7463 60.7008 62.4441 60.6256 62.1779 60.4864C61.9118 60.3473 61.6909 60.1489 61.5369 59.9107C61.1195 59.3364 60.9297 58.654 60.1175 58.279C59.9368 58.1941 59.7356 58.1497 59.5312 58.1497C59.3269 58.1497 59.1256 58.1941 58.9449 58.279C57.8709 58.8364 59.2105 60.2181 58.4136 60.9445C58.1923 61.114 57.9338 61.2405 57.6545 61.3161L55.6621 61.9681C54.6 62.372 53.4729 62.624 52.3224 62.7147C51.0018 62.762 49.6659 62.4005 48.368 62.6438C48.8899 63.1728 49.5834 63.5446 50.3528 63.7079C50.8234 63.8126 51.3205 63.8464 51.7797 63.9816C52.0024 64.0257 52.2088 64.1195 52.3794 64.2543C52.5501 64.3891 52.6793 64.5603 52.7551 64.7518C52.8576 65.2281 52.3414 65.6876 52.4439 66.1639C52.5218 66.3684 52.6796 66.5412 52.8885 66.6509C53.0974 66.7607 53.3437 66.8 53.5824 66.7619L51.2257 68.1132C50.8006 68.3564 50.3262 68.7112 50.4856 69.0963L51.2446 69.2922L49.1991 71.9037C48.9334 72.1684 48.7815 72.5082 48.7702 72.8631C48.7901 72.9541 48.8308 73.0404 48.8898 73.1168C48.9488 73.1931 49.0247 73.2579 49.113 73.307C49.2013 73.3561 49.3 73.3885 49.4029 73.4022C49.5058 73.416 49.6109 73.4107 49.7114 73.3867C49.2213 73.8411 48.8347 74.3757 48.5729 74.961C48.5253 75.0376 48.4987 75.1232 48.4954 75.2107C48.4921 75.2982 48.5122 75.3851 48.5539 75.4644C48.644 75.5512 48.7561 75.6177 48.8809 75.6582C49.0056 75.6987 49.1394 75.7122 49.2712 75.6975C50.3718 75.6975 51.3926 75.0218 51.5482 74.1874C51.886 74.5252 51.5255 74.9238 51.2029 75.2651C49.9088 76.6502 48.5881 78.0623 47.9012 79.6771C47.2143 81.2919 47.2446 83.177 48.5312 84.5655C48.816 84.8342 49.0702 85.1273 49.2902 85.4405C49.7 86.1364 49.4647 87.0283 50.1023 87.6195C50.615 86.3687 51.2367 85.1556 51.9619 83.9912C51.9209 84.4008 51.8538 84.808 51.7608 85.2108C51.7302 85.424 51.7765 85.6404 51.8932 85.8287C52.0099 86.017 52.1908 86.1673 52.4097 86.258C53.0777 86.4742 53.7722 86.0114 54.2086 85.5824C54.3172 85.4548 54.4558 85.3498 54.6147 85.2749C54.8453 85.2136 55.0838 85.1784 55.3244 85.1702C56.1175 85.0587 56.6033 84.4574 56.9297 83.8966C57.7418 82.4946 58.1669 80.9811 58.5843 79.4778C58.4168 80.6226 58.5854 81.7866 59.0739 82.8561C59.1524 83.0927 59.3251 83.2957 59.5597 83.427C59.7621 83.5028 59.9852 83.5234 60.2007 83.4861C60.4163 83.4488 60.6145 83.3553 60.7703 83.2176C61.0352 82.9539 61.216 82.632 61.294 82.2852C61.9335 80.2916 62.4091 78.2592 62.7172 76.2042L62.5654 78.9643C62.5312 79.5859 62.5654 80.3156 63.2637 80.6534C63.5787 80.8055 64.0227 80.8967 64.0834 81.1737C64.3585 81.1242 64.6061 80.9922 64.785 80.7998C64.9639 80.6073 65.0632 80.3661 65.0663 80.1163C65.1005 79.6501 64.9297 79.1839 64.9904 78.7177C65.0625 78.1467 65.4724 77.6299 65.6584 77.0724C65.9392 76.2245 65.6925 75.336 65.5901 74.4644C65.4876 73.5928 65.4307 72.7922 66.2352 72.1976Z" fill="#896363"/>
<path opacity="0.1" d="M125.72 264.031C118.02 264.78 114.009 263.122 114.009 263.122C113.371 262.774 112.825 262.307 112.409 261.754C111.993 261.2 111.717 260.573 111.599 259.916C111.193 257.666 107.325 255.392 107.325 255.392C107.325 255.392 102.563 255.804 101.978 254.561C101.838 254.034 101.784 253.491 101.819 252.95C103.58 253.325 107.637 254.186 108.893 254.507C110.525 254.919 115.291 261.801 115.291 261.801C119.88 263.949 127.474 261.193 130.138 260.112C130.506 261.764 129.743 263.639 125.72 264.031Z" fill="black"/>
<path opacity="0.1" d="M91.6174 252.051C91.6174 252.051 89.272 255.254 100.513 253.598L91.6174 252.051Z" fill="black"/>
<path opacity="0.1" d="M109.454 247.953C109.454 247.953 121.31 250.247 118.866 245.794L109.454 247.953Z" fill="black"/>
<g opacity="0.1">
<path d="M52.5272 65.5896C52.4621 65.7389 52.4412 65.9006 52.4664 66.0592C52.5161 66.2415 52.6442 66.3992 52.8232 66.4984L53.6239 66.0389C53.4115 66.0724 53.1926 66.0474 52.9966 65.967C52.8006 65.8867 52.6368 65.7551 52.5272 65.5896Z" fill="black"/>
<path d="M50.357 63.6065C50.8314 63.7112 51.3286 63.745 51.7878 63.8801C52.1712 63.9708 52.4995 64.1915 52.7024 64.495C52.7676 64.3469 52.7885 64.1862 52.7631 64.0288C52.6874 63.8372 52.5581 63.666 52.3874 63.5313C52.2168 63.3965 52.0104 63.3027 51.7878 63.2585C51.3286 63.1234 50.8314 63.0896 50.357 62.9849C49.8948 62.8819 49.4566 62.7069 49.0629 62.468C48.832 62.4758 48.6022 62.5007 48.376 62.5423C48.8971 63.0706 49.5891 63.4423 50.357 63.6065Z" fill="black"/>
<path d="M52.019 83.268C51.2926 84.4324 50.6696 85.6455 50.1557 86.8963C49.5219 86.3051 49.7534 85.4132 49.3435 84.7173C49.1249 84.4033 48.8705 84.11 48.5845 83.8423C47.9379 83.1359 47.564 82.2629 47.5181 81.3525C47.413 82.473 47.7947 83.5866 48.5845 84.4639C48.8705 84.7317 49.1249 85.0249 49.3435 85.3389C49.7534 86.0349 49.5219 86.9233 50.1557 87.5179C50.638 86.3482 51.2151 85.2113 51.8824 84.116C51.9655 83.8391 52.0114 83.5545 52.019 83.268Z" fill="black"/>
<path d="M48.8806 72.3359C48.8133 72.4693 48.7858 72.616 48.8009 72.7616C48.8227 72.8653 48.8715 72.963 48.9433 73.0469C49.0152 73.1308 49.1081 73.1985 49.2146 73.2447C49.3731 73.039 49.5495 72.8448 49.7421 72.6636C49.5781 72.7079 49.4019 72.6993 49.2444 72.6394C49.0868 72.5794 48.958 72.472 48.8806 72.3359Z" fill="black"/>
<path d="M71.3434 59.0289C71.3599 58.764 71.4069 58.5014 71.4838 58.2451C71.6204 57.8127 71.8329 57.3735 71.7001 56.9343C71.647 57.1641 71.5559 57.3972 71.4838 57.61C71.3428 58.0718 71.2953 58.5522 71.3434 59.0289Z" fill="black"/>
<path d="M58.5616 58.6504C58.519 59.0435 58.5537 59.4402 58.664 59.8227C58.7078 59.4296 58.6731 59.0327 58.5616 58.6504Z" fill="black"/>
<path d="M51.59 73.4644C51.4192 74.2853 50.3945 74.9576 49.3129 74.9745C49.0735 74.9913 48.8359 74.926 48.6488 74.792L48.6147 74.8596C48.5673 74.9362 48.5406 75.0215 48.5366 75.1089C48.5327 75.1962 48.5516 75.2832 48.5919 75.363C48.6831 75.4492 48.7961 75.515 48.9214 75.555C49.0467 75.5949 49.1809 75.6078 49.3129 75.5927C49.7609 75.5859 50.1991 75.4753 50.5843 75.2717C50.8082 75.0251 51.0359 74.7819 51.2598 74.542C51.3785 74.4205 51.4875 74.2918 51.5862 74.1569C51.5943 74.1337 51.6007 74.11 51.6052 74.086V74.1028C51.6853 74.011 51.7276 73.8975 51.7248 73.7812C51.722 73.6649 51.6744 73.5531 51.59 73.4644Z" fill="black"/>
<path d="M50.695 68.4204C50.607 68.4912 50.5432 68.5826 50.511 68.6842C50.4788 68.7858 50.4794 68.8934 50.5129 68.9947L50.8696 69.0859L51.2719 68.5691L50.695 68.4204Z" fill="black"/>
<path d="M85.0139 74.3494C84.9 74.4778 84.7406 74.5825 84.6116 74.6873C84.0689 75.2109 84.2587 75.971 84.0006 76.6061C83.9601 76.7273 83.8887 76.8386 83.7919 76.9312C83.6951 77.0238 83.5756 77.0952 83.4427 77.1399C83.0328 77.2548 82.6002 77.0352 82.2549 76.8291L80.8203 75.9609C80.8772 76.1973 80.9304 76.4372 80.9797 76.6771L82.2549 77.4473C82.6002 77.6568 83.0328 77.8764 83.4427 77.7615C83.5753 77.7163 83.6945 77.6448 83.7912 77.5522C83.8879 77.4597 83.9596 77.3487 84.0006 77.2277C84.2587 76.5926 84.0689 75.8325 84.6116 75.3089C84.7406 75.1839 84.9 75.0825 85.0139 74.9541C85.1135 74.8178 85.1795 74.6642 85.2076 74.5035C85.2358 74.3428 85.2254 74.1786 85.1771 74.0217C85.1516 74.1406 85.0958 74.2528 85.0139 74.3494Z" fill="black"/>
<path d="M81.2979 79.5959C81.282 79.7502 81.2331 79.9005 81.1537 80.0384C80.8539 80.5317 80.1404 80.785 79.48 80.9979L78.2352 81.4033C78.0235 81.4842 77.7974 81.5311 77.5673 81.5418C77.3886 81.5348 77.214 81.4916 77.0568 81.4155C76.8996 81.3394 76.764 81.2324 76.6603 81.1026C76.4793 80.8589 76.3506 80.5874 76.2808 80.3019L75.332 77.0689C75.1423 76.427 74.8538 75.6872 74.0417 75.4473C73.8064 75.4 73.5745 75.3402 73.3472 75.2683C72.8424 75.0521 72.7362 74.5521 72.5882 74.1332C72.2087 73.1535 71.1954 72.3765 70.0986 71.7684C69.3563 71.3078 68.4758 71.056 67.5711 71.0454C67.0856 71.0518 66.6166 71.2029 66.239 71.4744C65.6052 71.9508 65.5483 72.5623 65.5976 73.2244C65.6122 73.0068 65.6765 72.7941 65.7868 72.5995C65.8971 72.4049 66.051 72.2324 66.239 72.0927C66.6183 71.8238 67.0863 71.6731 67.5711 71.6636C68.4753 71.6772 69.3547 71.9288 70.0986 72.3866C71.1954 72.9846 72.1935 73.7616 72.5882 74.7514C72.7551 75.1703 72.8614 75.6703 73.3472 75.8865C73.5745 75.9584 73.8064 76.0182 74.0417 76.0655C74.8538 76.3054 75.1423 77.0453 75.332 77.6871L76.2808 80.9168C76.3496 81.2025 76.4784 81.4742 76.6603 81.7174C76.7632 81.8482 76.8985 81.9561 77.0558 82.0329C77.2131 82.1096 77.3881 82.1531 77.5673 82.16C77.7971 82.1477 78.023 82.1008 78.2352 82.0215L79.4725 81.6228C80.1328 81.41 80.8463 81.1566 81.1461 80.6634C81.3034 80.3452 81.356 79.9937 81.2979 79.6499C81.3017 79.6432 81.3017 79.6229 81.2979 79.5959Z" fill="black"/>
<path d="M86.509 71.1501C86.5257 71.483 86.4291 71.8127 86.2319 72.096C86.1074 72.2445 85.9314 72.3524 85.7311 72.4031C85.5309 72.4537 85.3174 72.4444 85.1238 72.3764C85.0694 72.599 85.0694 72.8295 85.1238 73.0521V73.0048C85.3174 73.0727 85.5309 73.0821 85.7311 73.0314C85.9314 72.9808 86.1074 72.8729 86.2319 72.7244C86.4287 72.4409 86.5252 72.1114 86.509 71.7785C86.5431 71.2278 86.5697 70.6636 86.5545 70.1062C86.5469 70.4474 86.5279 70.8123 86.509 71.1501Z" fill="black"/>
<path d="M58.6413 78.7446C58.2856 80.2701 57.7303 81.7531 56.9866 83.1634C56.6603 83.7242 56.1745 84.3256 55.3775 84.437C55.137 84.4458 54.8987 84.481 54.6678 84.5418C54.5107 84.6176 54.3736 84.7224 54.2656 84.8492C53.8291 85.2884 53.127 85.7512 52.4667 85.5249C52.3101 85.4707 52.1717 85.3817 52.0647 85.2664C51.9578 85.151 51.8858 85.0132 51.8557 84.8661C51.8557 84.9472 51.8253 85.0249 51.8177 85.1026C51.7837 85.3157 51.8286 85.533 51.9457 85.7213C52.0628 85.9097 52.2457 86.059 52.4667 86.1465C53.1346 86.3661 53.8291 85.8999 54.2656 85.4708C54.3748 85.3459 54.5117 85.2424 54.6678 85.1668C54.8978 85.1027 55.1366 85.0675 55.3775 85.062C56.1745 84.9505 56.6603 84.3492 56.9866 83.7884C57.6974 82.4505 58.231 81.0436 58.5768 79.596C58.5773 79.3112 58.5989 79.0268 58.6413 78.7446Z" fill="black"/>
<path d="M62.7742 75.4812C62.4661 77.5362 61.9905 79.5686 61.351 81.5621C61.2732 81.9097 61.0909 82.2319 60.8235 82.4945C60.668 82.6327 60.4698 82.7264 60.2541 82.7637C60.0385 82.801 59.8152 82.7802 59.6129 82.704C59.3809 82.5709 59.21 82.3684 59.1309 82.1331C58.817 81.4316 58.6374 80.6882 58.5996 79.9338C58.5502 80.8979 58.7354 81.8601 59.1423 82.7547C59.2212 82.991 59.392 83.1946 59.6243 83.329C59.8268 83.4043 60.0498 83.4246 60.2652 83.3873C60.4806 83.3501 60.6789 83.2569 60.8349 83.1195C61.1016 82.8565 61.2838 82.5344 61.3624 82.1871C61.9701 80.291 62.4292 78.3596 62.7362 76.4069L62.7742 75.4812Z" fill="black"/>
<path d="M65.712 76.3596C65.526 76.917 65.1199 77.4305 65.0478 78.0048C65.0231 78.19 65.0231 78.3771 65.0478 78.5622C65.1389 78.015 65.5222 77.5183 65.7006 76.9812C65.821 76.5888 65.8609 76.1802 65.8182 75.7751C65.8052 75.9727 65.7696 76.1685 65.712 76.3596Z" fill="black"/>
<path d="M64.1402 80.4608C64.087 80.1838 63.6316 80.0926 63.3204 79.9405C63.1041 79.8162 62.9268 79.6449 62.8053 79.4428C62.6838 79.2407 62.6221 79.0144 62.6259 78.7852V78.8629C62.5918 79.4845 62.6259 80.2142 63.3242 80.552C63.6354 80.704 64.0832 80.7919 64.144 81.0723C64.4187 81.0209 64.6656 80.888 64.8443 80.6952C65.0229 80.5024 65.1225 80.2613 65.1269 80.0115C65.1357 79.8514 65.1294 79.6909 65.1079 79.5318C65.0798 79.7585 64.9705 79.9712 64.7963 80.1384C64.6221 80.3057 64.392 80.4187 64.1402 80.4608Z" fill="black"/>
</g>
<path d="M182.433 270H138.224C137.702 270.001 137.186 269.903 136.71 269.713C136.233 269.524 135.807 269.246 135.46 268.899C135.113 268.552 134.853 268.144 134.696 267.7C134.539 267.257 134.49 266.789 134.551 266.328L145.314 184.911L145.538 183.191C145.644 182.391 146.076 181.653 146.752 181.118C147.429 180.582 148.302 180.286 149.207 180.286H172.418C173.33 180.286 174.209 180.587 174.887 181.129C175.566 181.672 175.994 182.418 176.092 183.225L176.285 184.857L186.115 266.358C186.17 266.818 186.116 267.283 185.956 267.722C185.797 268.162 185.534 268.567 185.187 268.911C184.84 269.254 184.415 269.529 183.941 269.717C183.466 269.904 182.953 270.001 182.433 270Z" fill="#4E5A86"/>
<path opacity="0.1" d="M148.365 190.022C148.365 190.022 149.989 226.957 143.716 241.034C143.716 241.034 144.369 244.034 146.133 241.034C147.898 238.035 153.944 206.785 151.037 190.542C151.037 190.539 150.441 188.779 148.365 190.022Z" fill="black"/>
<path opacity="0.1" d="M156.153 190.022C156.153 190.022 157.777 226.957 151.504 241.034C151.504 241.034 152.157 244.034 153.921 241.034C155.686 238.035 161.732 206.785 158.825 190.542C158.825 190.539 158.244 188.779 156.153 190.022Z" fill="black"/>
<path opacity="0.1" d="M175.109 190.022C175.109 190.022 173.481 226.957 179.758 241.034C179.758 241.034 179.102 244.034 177.337 241.034C175.572 238.035 169.519 206.782 172.422 190.539C172.422 190.539 173.007 188.779 175.109 190.022Z" fill="black"/>
<path opacity="0.1" d="M167.31 190.022C167.31 190.022 165.682 226.957 171.959 241.034C171.959 241.034 171.302 244.034 169.537 241.034C167.773 238.035 161.731 206.782 164.634 190.539C164.634 190.539 165.219 188.779 167.31 190.022Z" fill="black"/>
<path d="M171.158 6.56055H150.148V169.742H171.158V6.56055Z" fill="#4E5A86"/>
<path opacity="0.1" d="M176.285 184.867C176.049 184.923 175.805 184.951 175.56 184.951H145.75C145.604 184.952 145.458 184.941 145.313 184.921L145.537 183.201C145.643 182.401 146.075 181.663 146.752 181.128C147.428 180.592 148.302 180.296 149.207 180.296H172.418C173.33 180.297 174.209 180.597 174.887 181.139C175.565 181.682 175.994 182.428 176.092 183.235L176.285 184.867Z" fill="black"/>
<path opacity="0.1" d="M171.374 166.482H150.148V169.742H171.374V166.482Z" fill="black"/>
<path d="M175.314 167.104H145.993C144.316 167.104 142.957 168.314 142.957 169.807V181.627C142.957 183.12 144.316 184.33 145.993 184.33H175.314C176.991 184.33 178.35 183.12 178.35 181.627V169.807C178.35 168.314 176.991 167.104 175.314 167.104Z" fill="#4E5A86"/>
<path opacity="0.1" d="M154.581 6.56055H151.561V161.982H154.581V6.56055Z" fill="black"/>
<path opacity="0.1" d="M159.636 6.56055H156.615V161.982H159.636V6.56055Z" fill="black"/>
<path opacity="0.1" d="M164.692 6.56055H161.671V161.982H164.692V6.56055Z" fill="black"/>
<path opacity="0.1" d="M169.75 6.56055H166.729V161.982H169.75V6.56055Z" fill="black"/>
<path d="M172.471 84.4742C172.471 84.4742 165.557 82.5587 166.604 89.3356C167.652 96.1124 170.323 96.5279 170.323 96.5279C170.323 96.5279 172.646 96.0617 172.938 93.3726C173.23 90.6835 172.471 84.4742 172.471 84.4742Z" fill="#FFA2A2"/>
<g opacity="0.1">
<path d="M330.131 228.835C335.948 236.481 334.089 263.851 334.089 263.851C334.089 263.851 304.867 255.237 299.03 247.592C297.646 245.773 296.679 243.729 296.183 241.577C295.686 239.426 295.671 237.208 296.138 235.051C297.08 230.695 299.928 226.85 304.055 224.363C308.181 221.875 313.249 220.949 318.143 221.788C323.036 222.627 327.355 225.162 330.15 228.835H330.131Z" fill="white"/>
<path opacity="0.1" d="M330.131 228.835C335.948 236.481 334.089 263.851 334.089 263.851C334.089 263.851 304.867 255.237 299.03 247.592C297.646 245.773 296.679 243.729 296.183 241.577C295.686 239.426 295.671 237.208 296.138 235.051C297.08 230.695 299.928 226.85 304.055 224.363C308.181 221.875 313.249 220.949 318.143 221.788C323.036 222.627 327.355 225.162 330.15 228.835H330.131Z" fill="black"/>
<path d="M304.161 224.39C304.161 224.39 326.074 239.45 334.203 263.872" stroke="#535461" stroke-miterlimit="10"/>
<path d="M339.721 243.126C339.721 243.126 324.161 240.761 334.787 263.703C334.787 263.703 345.599 260.037 346.442 250.909C346.61 249.133 346.04 247.364 344.841 245.937C343.641 244.51 341.895 243.524 339.933 243.166L339.721 243.126Z" fill="white"/>
<path d="M339.953 243.105C339.953 243.105 342.917 255.794 334.807 263.713" stroke="#535461" stroke-miterlimit="10"/>
</g>
<g opacity="0.1">
<path d="M169.436 205.944C169.436 205.944 192.806 152.905 237.485 132.841C256.241 124.423 271.664 111.085 280.996 94.3288C285.408 86.3761 288.993 78.0804 291.706 69.5457" stroke="#535461" stroke-width="2" stroke-miterlimit="10"/>
<path d="M319.778 56.752C315.163 62.0458 291.019 69.951 291.019 69.951C291.019 69.951 293.637 47.1678 298.252 41.8774C299.334 40.5832 300.695 39.494 302.255 38.6738C303.816 37.8535 305.544 37.3187 307.34 37.1005C309.135 36.8823 310.962 36.9851 312.712 37.4031C314.463 37.821 316.102 38.5455 317.534 39.5343C318.965 40.5231 320.161 41.7562 321.051 43.1615C321.941 44.5668 322.507 46.116 322.716 47.7185C322.925 49.3209 322.773 50.9443 322.268 52.4937C321.764 54.0432 320.917 55.4874 319.778 56.7419V56.752Z" fill="white"/>
<path d="M312.005 98.359C304.901 100.568 279.804 95.5213 279.804 95.5213C279.804 95.5213 295.914 77.667 303.018 75.4576C304.707 74.9323 306.496 74.7083 308.283 74.7985C310.069 74.8887 311.818 75.2912 313.43 75.983C315.042 76.6749 316.485 77.6426 317.676 78.8309C318.868 80.0191 319.785 81.4047 320.375 82.9084C320.965 84.4121 321.217 86.0046 321.115 87.5949C321.014 89.1851 320.562 90.7421 319.785 92.1768C319.008 93.6115 317.92 94.8959 316.586 95.9567C315.251 97.0174 313.694 97.8337 312.005 98.359Z" fill="white"/>
<path d="M267.546 147.909C260.157 146.625 241.36 130.99 241.36 130.99C241.36 130.99 265.395 122.815 272.78 124.102C274.536 124.407 276.207 125.018 277.698 125.899C279.189 126.779 280.471 127.913 281.469 129.234C282.468 130.556 283.165 132.039 283.52 133.6C283.875 135.162 283.88 136.77 283.537 138.333C283.194 139.896 282.508 141.384 281.519 142.711C280.529 144.038 279.256 145.179 277.772 146.068C276.287 146.957 274.62 147.578 272.867 147.893C271.113 148.209 269.306 148.214 267.55 147.909H267.546Z" fill="white"/>
<path d="M224.418 178.658C216.897 178.502 195.397 165.922 195.397 165.922C195.397 165.922 217.53 154.25 225.056 154.405C226.845 154.442 228.608 154.793 230.245 155.437C231.882 156.081 233.36 157.005 234.595 158.157C235.831 159.31 236.799 160.668 237.445 162.153C238.091 163.639 238.402 165.223 238.36 166.815C238.318 168.408 237.924 169.977 237.201 171.434C236.477 172.891 235.439 174.207 234.144 175.307C232.85 176.406 231.325 177.268 229.656 177.843C227.987 178.418 226.207 178.695 224.418 178.658Z" fill="white"/>
<path d="M256.324 80.9473C257.371 87.5789 273.902 105.126 273.902 105.126C273.902 105.126 284.358 84.2006 283.31 77.5656C282.756 74.4197 280.834 71.594 277.96 69.6983C275.086 67.8025 271.49 66.9888 267.947 67.4327C264.405 67.8766 261.201 69.5425 259.026 72.0709C256.852 74.5993 255.881 77.7874 256.324 80.9473Z" fill="white"/>
<path d="M206.392 117.457C209.621 123.514 231.276 135.848 231.276 135.848C231.276 135.848 234.221 113.095 230.988 107.045C230.22 105.606 229.141 104.316 227.813 103.249C226.485 102.182 224.934 101.357 223.248 100.824C221.562 100.29 219.775 100.057 217.988 100.138C216.201 100.219 214.45 100.613 212.834 101.296C211.218 101.98 209.769 102.94 208.57 104.123C207.371 105.305 206.445 106.685 205.846 108.186C205.246 109.687 204.984 111.278 205.075 112.868C205.166 114.459 205.609 116.018 206.377 117.457H206.392Z" fill="white"/>
<path d="M163.344 158.888C165.379 165.337 184.399 180.763 184.399 180.763C184.399 180.763 191.61 158.78 189.584 152.331C188.567 149.274 186.24 146.696 183.105 145.155C179.971 143.614 176.28 143.233 172.832 144.094C169.385 144.956 166.456 146.991 164.681 149.759C162.905 152.528 162.425 155.807 163.344 158.888Z" fill="white"/>
</g>
<g opacity="0.1">
<path d="M165.568 110.413C165.568 110.413 174.012 91.2477 190.153 84.0047C196.945 81.0031 202.461 76.1217 205.872 70.0929C207.467 67.2202 208.763 64.2235 209.743 61.1404" stroke="#535461" stroke-width="2" stroke-miterlimit="10"/>
<path d="M219.891 56.5221C218.221 58.4343 209.5 61.2889 209.5 61.2889C209.5 61.2889 210.445 53.0594 212.115 51.154C212.49 50.6508 212.978 50.2218 213.548 49.894C214.117 49.5661 214.757 49.3464 215.427 49.2486C216.096 49.1508 216.781 49.177 217.439 49.3256C218.097 49.4741 218.713 49.7418 219.249 50.112C219.785 50.4821 220.23 50.9467 220.555 51.4768C220.88 52.0068 221.079 52.5909 221.14 53.1925C221.2 53.7941 221.12 54.4003 220.905 54.9732C220.69 55.5461 220.345 56.0734 219.891 56.5221Z" fill="white"/>
<path d="M217.075 71.5521C214.51 72.3494 205.443 70.5386 205.443 70.5386C205.443 70.5386 211.261 64.0861 213.827 63.2888C214.448 63.0533 215.117 62.9338 215.793 62.9378C216.468 62.9419 217.135 63.0693 217.753 63.3123C218.371 63.5553 218.926 63.9086 219.384 64.3503C219.843 64.7921 220.194 65.3129 220.417 65.8804C220.64 66.448 220.729 67.0503 220.68 67.6499C220.631 68.2496 220.444 68.8338 220.13 69.3665C219.817 69.8991 219.384 70.3689 218.859 70.7466C218.333 71.1243 217.726 71.4019 217.075 71.5622V71.5521Z" fill="white"/>
<path d="M201.01 89.4538C198.354 88.9876 191.553 83.3391 191.553 83.3391C191.553 83.3391 200.232 80.3865 202.9 80.8527C203.569 80.9303 204.213 81.1292 204.792 81.4371C205.371 81.7451 205.873 82.1554 206.267 82.6429C206.661 83.1304 206.939 83.6846 207.082 84.2713C207.226 84.858 207.233 85.4647 207.103 86.0539C206.973 86.6431 206.709 87.2024 206.327 87.6971C205.944 88.1918 205.452 88.6114 204.88 88.9301C204.308 89.2487 203.669 89.4596 203.002 89.5497C202.335 89.6397 201.655 89.6071 201.002 89.4538H201.01Z" fill="white"/>
<path d="M185.431 100.561C182.714 100.504 174.949 95.9602 174.949 95.9602C174.949 95.9602 182.945 91.7408 185.663 91.7982C186.912 91.8955 188.073 92.4126 188.909 93.2445C189.745 94.0763 190.194 95.1605 190.165 96.2765C190.135 97.3925 189.63 98.4567 188.75 99.2526C187.871 100.049 186.684 100.517 185.431 100.561Z" fill="white"/>
<path d="M196.954 65.255C197.333 67.6502 203.307 73.9913 203.307 73.9913C203.307 73.9913 207.102 66.4306 206.722 64.0354C206.673 63.4357 206.486 62.8513 206.172 62.3186C205.859 61.7859 205.426 61.3161 204.9 60.9384C204.375 60.5607 203.768 60.2832 203.116 60.1229C202.465 59.9627 201.784 59.9232 201.115 60.0068C200.446 60.0905 199.804 60.2956 199.227 60.6094C198.651 60.9232 198.153 61.3389 197.765 61.831C197.377 62.323 197.106 62.8808 196.97 63.4698C196.833 64.0588 196.834 64.6664 196.973 65.255H196.954Z" fill="white"/>
<path d="M178.904 78.4506C180.072 80.6364 187.902 85.0957 187.902 85.0957C187.902 85.0957 188.964 76.8763 187.795 74.6906C187.183 73.7204 186.18 72.9933 184.988 72.6563C183.797 72.3192 182.506 72.3973 181.377 72.8748C180.248 73.3523 179.365 74.1935 178.905 75.2285C178.446 76.2636 178.446 77.4152 178.904 78.4506Z" fill="white"/>
<path d="M163.367 93.4199C164.103 95.7475 170.957 101.322 170.957 101.322C170.957 101.322 173.591 93.3793 172.832 91.0483C172.686 90.4656 172.409 89.9155 172.017 89.4314C171.625 88.9474 171.126 88.5396 170.55 88.2329C169.975 87.9262 169.336 87.7272 168.671 87.6478C168.007 87.5685 167.331 87.6106 166.685 87.7715C166.04 87.9325 165.438 88.2089 164.916 88.5838C164.394 88.9588 163.964 89.4245 163.651 89.9525C163.339 90.4805 163.15 91.0596 163.097 91.6546C163.045 92.2496 163.129 92.848 163.344 93.4131L163.367 93.4199Z" fill="white"/>
</g>
<g opacity="0.1">
<path d="M236.685 269.375C236.685 269.375 237.041 248.794 249.303 236.97C254.485 232.042 257.729 225.749 258.548 219.038C258.909 215.85 258.94 212.638 258.643 209.444" stroke="#535461" stroke-width="2" stroke-miterlimit="10"/>
<path d="M266.321 201.954C265.512 204.255 258.469 209.66 258.469 209.66C258.469 209.66 256.116 201.654 256.924 199.343C257.378 198.308 258.257 197.465 259.382 196.983C260.507 196.502 261.796 196.418 262.988 196.749C264.179 197.08 265.186 197.801 265.804 198.766C266.423 199.731 266.607 200.869 266.321 201.951V201.954Z" fill="white"/>
<path d="M269.607 216.907C267.515 218.454 258.309 219.579 258.309 219.579C258.309 219.579 261.216 211.721 263.307 210.17C264.32 209.514 265.576 209.225 266.819 209.362C268.063 209.5 269.201 210.053 270.003 210.911C270.804 211.768 271.21 212.865 271.136 213.978C271.063 215.092 270.516 216.139 269.607 216.907Z" fill="white"/>
<path d="M261.637 238.683C258.954 239.082 250.369 235.913 250.369 235.913C250.369 235.913 257.337 230.437 260.016 230.038C261.262 229.927 262.509 230.242 263.504 230.92C264.499 231.597 265.167 232.586 265.373 233.685C265.579 234.785 265.308 235.913 264.614 236.841C263.92 237.769 262.856 238.428 261.637 238.683Z" fill="white"/>
<path d="M251.391 253.95C248.821 254.744 239.759 252.913 239.759 252.913C239.759 252.913 245.603 246.484 248.169 245.673C248.792 245.434 249.463 245.311 250.142 245.314C250.82 245.316 251.491 245.443 252.112 245.686C252.733 245.93 253.291 246.285 253.751 246.729C254.211 247.173 254.563 247.697 254.785 248.267C255.007 248.838 255.095 249.443 255.042 250.046C254.989 250.648 254.798 251.234 254.479 251.767C254.161 252.3 253.722 252.769 253.191 253.145C252.659 253.521 252.046 253.794 251.391 253.95Z" fill="white"/>
<path d="M248.29 217.288C249.588 219.417 257.679 223.488 257.679 223.488C257.679 223.488 258.237 215.231 256.92 213.103C256.249 212.163 255.203 211.485 253.992 211.206C252.782 210.926 251.497 211.067 250.398 211.599C249.3 212.13 248.469 213.014 248.074 214.07C247.679 215.126 247.749 216.277 248.271 217.288H248.29Z" fill="white"/>
<path d="M236.59 235.278C238.544 236.967 247.634 238.69 247.634 238.69C247.634 238.69 245.391 230.663 243.436 228.977C242.478 228.275 241.258 227.92 240.018 227.983C238.779 228.046 237.612 228.522 236.75 229.317C235.888 230.113 235.394 231.168 235.367 232.272C235.341 233.377 235.783 234.45 236.605 235.278H236.59Z" fill="white"/>
<path d="M227.929 254.149C229.535 256.102 238.176 259.176 238.176 259.176C238.176 259.176 237.489 250.923 235.899 248.97C235.094 248.116 233.955 247.566 232.711 247.433C231.468 247.299 230.214 247.591 229.204 248.25C228.194 248.908 227.503 249.884 227.271 250.98C227.039 252.075 227.284 253.208 227.956 254.149H227.929Z" fill="white"/>
</g>
<g opacity="0.1">
<path d="M179.777 266.138C179.777 266.138 180.134 245.555 192.396 233.73C197.578 228.802 200.822 222.509 201.641 215.798C202.001 212.611 202.033 209.4 201.736 206.208" stroke="#535461" stroke-width="2" stroke-miterlimit="10"/>
<path d="M209.413 198.715C208.605 201.025 201.561 206.424 201.561 206.424C201.561 206.424 199.208 198.421 200.017 196.11C200.171 195.522 200.46 194.969 200.865 194.486C201.27 194.002 201.783 193.598 202.371 193.298C202.96 192.999 203.611 192.81 204.285 192.745C204.958 192.679 205.64 192.738 206.287 192.917C206.935 193.097 207.533 193.393 208.046 193.787C208.559 194.182 208.975 194.666 209.268 195.21C209.562 195.754 209.726 196.346 209.751 196.949C209.776 197.552 209.661 198.153 209.413 198.715Z" fill="white"/>
<path d="M212.707 213.667C210.616 215.217 201.409 216.339 201.409 216.339C201.409 216.339 204.316 208.481 206.407 206.934C207.42 206.283 208.673 205.998 209.913 206.138C211.152 206.277 212.286 206.83 213.086 207.684C213.885 208.539 214.291 209.632 214.221 210.742C214.15 211.852 213.61 212.898 212.707 213.667Z" fill="white"/>
<path d="M204.711 235.447C202.028 235.842 193.443 232.673 193.443 232.673C193.443 232.673 200.411 227.197 203.09 226.802C203.748 226.664 204.43 226.648 205.094 226.754C205.759 226.861 206.392 227.087 206.954 227.42C207.516 227.753 207.995 228.186 208.362 228.69C208.729 229.195 208.976 229.761 209.087 230.354C209.198 230.947 209.171 231.553 209.008 232.137C208.845 232.72 208.549 233.267 208.139 233.745C207.729 234.222 207.213 234.62 206.623 234.912C206.034 235.205 205.383 235.387 204.711 235.447Z" fill="white"/>
<path d="M194.498 250.71C191.929 251.507 182.866 249.673 182.866 249.673C182.866 249.673 188.695 243.23 191.261 242.43C191.883 242.195 192.552 242.076 193.228 242.08C193.903 242.085 194.57 242.213 195.188 242.457C195.806 242.7 196.36 243.054 196.818 243.497C197.276 243.939 197.627 244.46 197.849 245.028C198.071 245.596 198.16 246.198 198.109 246.798C198.059 247.398 197.871 247.982 197.557 248.514C197.243 249.047 196.809 249.516 196.283 249.893C195.757 250.27 195.149 250.547 194.498 250.707V250.71Z" fill="white"/>
<path d="M191.383 214.052C192.681 216.18 200.772 220.251 200.772 220.251C200.772 220.251 201.33 211.995 200.013 209.866C199.74 209.307 199.34 208.804 198.837 208.39C198.334 207.976 197.739 207.66 197.092 207.462C196.444 207.264 195.757 207.188 195.074 207.239C194.392 207.29 193.728 207.467 193.127 207.759C192.525 208.05 191.999 208.45 191.58 208.933C191.162 209.416 190.861 209.971 190.697 210.563C190.533 211.155 190.509 211.771 190.628 212.372C190.746 212.973 191.003 213.545 191.383 214.052Z" fill="white"/>
<path d="M179.69 232.038C181.644 233.727 190.733 235.453 190.733 235.453C190.733 235.453 188.49 227.423 186.536 225.741C186.086 225.285 185.534 224.917 184.916 224.66C184.298 224.403 183.627 224.263 182.946 224.249C182.264 224.234 181.586 224.346 180.955 224.576C180.324 224.807 179.754 225.152 179.28 225.588C178.806 226.025 178.439 226.544 178.203 227.114C177.966 227.683 177.864 228.29 177.904 228.896C177.944 229.502 178.124 230.094 178.434 230.635C178.744 231.176 179.177 231.653 179.705 232.038H179.69Z" fill="white"/>
<path d="M171.022 250.909C172.627 252.862 181.269 255.936 181.269 255.936C181.269 255.936 180.582 247.683 178.991 245.73C178.629 245.223 178.154 244.787 177.595 244.45C177.036 244.113 176.405 243.882 175.741 243.771C175.078 243.659 174.396 243.671 173.737 243.804C173.078 243.937 172.458 244.188 171.913 244.544C171.368 244.899 170.911 245.35 170.57 245.868C170.229 246.387 170.011 246.963 169.93 247.56C169.849 248.156 169.907 248.761 170.099 249.338C170.291 249.914 170.614 250.449 171.048 250.909H171.022Z" fill="white"/>
</g>
<path d="M153.856 26.1718C154.615 28.2528 152.558 35.4958 152.558 35.4958C152.558 35.4958 146.152 30.675 145.401 28.5839C145.192 28.0827 145.099 27.549 145.128 27.0151C145.158 26.4812 145.308 25.9581 145.571 25.4774C145.833 24.9967 146.203 24.5684 146.656 24.2183C147.11 23.8682 147.639 23.6036 148.211 23.4404C148.783 23.2773 149.386 23.219 149.984 23.2691C150.581 23.3192 151.162 23.4767 151.689 23.7319C152.217 23.9872 152.681 24.335 153.053 24.7543C153.426 25.1737 153.699 25.6559 153.856 26.1718Z" fill="white"/>
<path d="M122.357 72.5015C123.116 74.5825 121.059 81.8255 121.059 81.8255C121.059 81.8255 114.645 77.0047 113.894 74.9237C113.715 74.429 113.648 73.9079 113.695 73.39C113.743 72.8721 113.905 72.3677 114.171 71.9054C114.438 71.4432 114.804 71.0322 115.249 70.696C115.694 70.3597 116.209 70.1048 116.765 69.9458C117.321 69.7867 117.906 69.7267 118.488 69.769C119.07 69.8114 119.636 69.9553 120.156 70.1926C120.675 70.43 121.137 70.756 121.514 71.1522C121.892 71.5483 122.178 72.0068 122.357 72.5015Z" fill="white"/>
<path d="M188.718 52.0799C189.477 54.1609 187.416 61.404 187.416 61.404C187.416 61.404 181.006 56.5865 180.255 54.5055C179.894 53.5065 179.993 52.4206 180.531 51.4867C181.069 50.5529 182.002 49.8475 183.124 49.5259C184.246 49.2042 185.466 49.2926 186.515 49.7716C187.564 50.2505 188.357 51.0809 188.718 52.0799Z" fill="white"/>
<path d="M223.049 87.0891C223.808 89.1667 221.751 96.4098 221.751 96.4098C221.751 96.4098 215.337 91.5924 214.578 89.5113C214.385 89.0136 214.306 88.4866 214.345 87.9612C214.383 87.4358 214.54 86.9226 214.804 86.4517C215.069 85.9808 215.436 85.5616 215.885 85.2187C216.334 84.8758 216.855 84.6162 217.418 84.4549C217.981 84.2937 218.575 84.2342 219.164 84.2798C219.753 84.3254 220.326 84.4753 220.85 84.7206C221.373 84.9659 221.836 85.3018 222.212 85.7085C222.587 86.1152 222.868 86.5846 223.037 87.0891H223.049Z" fill="white"/>
<path d="M199.883 29.5973C198.635 31.479 191.189 34.9215 191.189 34.9215C191.189 34.9215 190.98 27.4555 192.229 25.5738C192.828 24.6702 193.806 24.0155 194.948 23.7539C196.089 23.4922 197.301 23.645 198.316 24.1785C199.331 24.7121 200.067 25.5828 200.36 26.599C200.654 27.6152 200.483 28.6937 199.883 29.5973Z" fill="white"/>
<path d="M283.85 23.9588C282.601 25.8405 275.155 29.2829 275.155 29.2829C275.155 29.2829 274.95 21.8135 276.199 19.9352C276.489 19.4768 276.879 19.0747 277.346 18.7522C277.814 18.4297 278.348 18.1935 278.919 18.0572C279.49 17.921 280.086 17.8875 280.672 17.9588C281.257 18.0301 281.821 18.2047 282.33 18.4723C282.839 18.74 283.283 19.0953 283.636 19.5176C283.988 19.9398 284.243 20.4205 284.385 20.9314C284.526 21.4423 284.552 21.9732 284.46 22.4931C284.368 23.0129 284.161 23.5112 283.85 23.9588Z" fill="white"/>
<path d="M114.767 38.4585C112.391 39.0091 104.384 36.7693 104.384 36.7693C104.384 36.7693 110.156 31.3472 112.532 30.7965C113.097 30.6659 113.686 30.6356 114.264 30.7074C114.842 30.7792 115.399 30.9517 115.902 31.2151C116.406 31.4784 116.846 31.8275 117.198 32.2423C117.55 32.6571 117.806 33.1295 117.953 33.6326C118.1 34.1357 118.134 34.6596 118.053 35.1744C117.973 35.6892 117.779 36.1848 117.483 36.6329C117.187 37.081 116.795 37.4729 116.329 37.7861C115.863 38.0994 115.332 38.3278 114.767 38.4585Z" fill="white"/>
<path d="M191.701 123.953C190.452 125.835 183.006 129.277 183.006 129.277C183.006 129.277 182.798 121.811 184.046 119.929C184.343 119.482 184.736 119.091 185.202 118.779C185.669 118.467 186.2 118.239 186.765 118.11C187.33 117.98 187.919 117.951 188.497 118.024C189.075 118.097 189.631 118.27 190.133 118.534C190.636 118.798 191.075 119.148 191.426 119.563C191.777 119.979 192.032 120.451 192.178 120.955C192.323 121.458 192.356 121.982 192.274 122.496C192.192 123.011 191.998 123.506 191.701 123.953Z" fill="white"/>
</g>
<defs>
<linearGradient id="paint0_linear_126_1252" x1="81.4164" y1="267.665" x2="81.4164" y2="55.1708" gradientUnits="userSpaceOnUse">
<stop stop-color="#808080" stop-opacity="0.25"/>
<stop offset="0.54" stop-color="#808080" stop-opacity="0.12"/>
<stop offset="1" stop-color="#808080" stop-opacity="0.1"/>
</linearGradient>
<clipPath id="clip0_126_1252">
<rect width="395" height="270" fill="white"/>
</clipPath>
</defs>
</svg>
