<svg width="300" height="83" viewBox="0 0 300 83" fill="none" xmlns="http://www.w3.org/2000/svg">
<g clip-path="url(#clip0_148_157)">
<path d="M150.82 4.05005C150.693 4.29005 150.503 4.41338 150.25 4.42005C145.79 4.54671 139.207 4.56338 130.5 4.47005C124.75 4.40005 123.48 9.14005 123.49 14.2001C123.51 19.8001 123.513 25.4 123.5 31C123.493 31.4134 123.257 32.03 122.79 32.85" stroke="#FDA331" stroke-width="2"/>
<path d="M151.42 4.54004L151.52 23.92" stroke="#FEC13D" stroke-width="2"/>
<path d="M151.52 23.9202C150.46 23.9468 149.4 23.9702 148.34 23.9902C143.01 24.0702 140.55 27.9302 141.04 33.3302" stroke="#EABB37" stroke-width="2"/>
<path d="M141.04 33.3301L123.53 33.4101" stroke="#FEC13D" stroke-width="2"/>
<path d="M170.211 23.7C170.111 23.7333 170.014 23.7899 169.921 23.8699C169.781 23.9899 169.621 24.0466 169.441 24.04L151.521 23.9199" stroke="#EBC64B" stroke-width="2"/>
<path d="M170.47 24.21C170.31 24.39 170.23 24.6533 170.23 25C170.25 31.4133 170.26 37.83 170.26 44.25C170.26 50.36 165.23 51.3 159.95 51.26C153.636 51.2266 147.323 51.2333 141.01 51.28" stroke="#8AC383" stroke-width="2"/>
<path d="M141.01 51.2001L141.04 33.3301" stroke="#EBC64B" stroke-width="2"/>
<path d="M150.82 4.04997C150.694 4.28997 150.504 4.41331 150.25 4.41997C145.79 4.54664 139.207 4.56331 130.5 4.46998C124.75 4.39998 123.48 9.13998 123.49 14.2C123.51 19.8 123.514 25.4 123.5 31C123.494 31.4133 123.257 32.03 122.79 32.85C119.44 31.36 118.54 28.93 118.52 25.22C118.5 20.1666 118.487 15.1133 118.48 10.06C118.48 3.45998 120.11 0.269973 126.97 0.259973C132.81 0.253307 138.654 0.269976 144.5 0.309976C147.334 0.336643 149.44 1.58331 150.82 4.04997Z" fill="#FD9038"/>
<path d="M150.82 4.05005C150.973 4.27005 151.173 4.43338 151.42 4.54005L151.52 23.92C150.46 23.9467 149.4 23.9701 148.34 23.9901C143.01 24.0701 140.55 27.9301 141.04 33.3301L123.53 33.4101C123.39 33.1634 123.143 32.9767 122.79 32.85C123.257 32.03 123.493 31.4134 123.5 31C123.513 25.4 123.51 19.8001 123.49 14.2001C123.48 9.14005 124.75 4.40005 130.5 4.47005C139.207 4.56338 145.79 4.54671 150.25 4.42005C150.503 4.41338 150.693 4.29005 150.82 4.05005Z" fill="#FDB629"/>
<path d="M151.42 4.53993C156.06 4.50993 166.63 2.97993 169.23 7.80993C171.1 11.3199 170.25 19.4299 170.21 23.6999C170.11 23.7333 170.013 23.7899 169.92 23.8699C169.78 23.9899 169.62 24.0466 169.44 24.0399L151.52 23.9199L151.42 4.53993Z" fill="#FECC51"/>
<path d="M237.541 22.63C239.721 22.31 242.061 21.55 244.201 22.03C255.281 24.49 253.931 45.58 240.821 45.06C240.794 45.06 239.694 44.8666 237.521 44.48C236.321 44.2666 234.891 44.2 233.231 44.28C231.784 44.3466 231.061 43.5033 231.061 41.75C231.047 33.8833 231.101 26.0133 231.221 18.14C231.251 16.25 230.681 14.55 230.181 12.75C230.085 12.396 230.123 12.0187 230.289 11.6902C230.455 11.3618 230.737 11.1053 231.081 10.97C237.551 8.39997 236.051 18.4 236.241 21.58C236.294 22.4 236.727 22.75 237.541 22.63ZM242.841 41.49C247.701 38.75 248.191 25.17 242.001 24.43C236.141 23.74 235.521 29.38 235.651 33.98C235.791 38.61 235.511 42.3 241.331 41.94C241.864 41.9066 242.367 41.7566 242.841 41.49Z" fill="#333333"/>
<path d="M35.1302 15.25C32.2202 16.29 30.4402 19.28 32.5402 21.96C33.1468 22.7334 34.5368 23.67 36.7102 24.77C41.0802 26.97 46.8102 28.75 47.8602 34.35C50.5402 48.67 24.0802 47.97 26.3802 38.29C26.4273 38.092 26.5225 37.9086 26.6573 37.756C26.7921 37.6034 26.9624 37.4864 27.1531 37.4152C27.3439 37.344 27.5492 37.3209 27.751 37.3479C27.9528 37.3749 28.1448 37.4512 28.3102 37.57C32.0002 40.22 35.0902 42.55 39.9102 40.92C44.1402 39.5 43.2202 33.9 39.6802 32.1C35.4335 29.9334 32.6402 28.4667 31.3002 27.7C25.7202 24.5 24.8302 16.21 30.7202 12.9C34.4068 10.8334 38.8869 10.63 44.1602 12.29C45.7202 12.7767 46.5402 13.8367 46.6202 15.47L46.6802 16.62C46.7535 18.1067 46.1102 18.54 44.7502 17.92C41.8402 16.59 38.5902 14 35.1302 15.25Z" fill="#333333"/>
<path d="M196.71 35.47C196.75 43.04 190.66 50.65 182.49 46.93C181.6 46.53 180.95 45.65 180.98 44.73C180.995 44.154 181.23 43.6057 181.638 43.1983C182.045 42.7908 182.593 42.5552 183.17 42.54C184.97 42.49 186.93 43.04 188.35 41.35C189.55 39.9367 190.3 38.31 190.6 36.47C191.91 28.52 192.49 21.26 189.09 14.85C188.914 14.5176 188.864 14.1337 188.946 13.7672C189.029 13.4006 189.239 13.0755 189.54 12.85C191.7 11.24 198.21 10.26 197.71 15.06C197.01 21.8467 196.676 28.65 196.71 35.47Z" fill="#333333"/>
<path d="M104.31 30.4799C106.143 29.9599 106.713 28.8099 106.02 27.0299L105.78 26.4299C105.006 24.4433 103.62 23.8233 101.62 24.5699L95.6898 26.7699C95.4078 26.8755 95.0971 26.8748 94.8155 26.7681C94.534 26.6614 94.3009 26.4559 94.1598 26.1899C92.2398 22.5499 99.5098 20.9799 102.27 20.9999C112.63 21.0799 111.29 30.2099 111.32 38.3899C111.33 40.0199 112.06 41.1399 112.74 42.5299C112.866 42.7885 112.9 43.0827 112.834 43.3618C112.768 43.641 112.608 43.8878 112.38 44.0599C110.22 45.6899 108.51 44.1199 106.36 43.8099C104.43 43.5199 101.97 45.0399 100.52 45.1999C90.4898 46.3299 89.5798 33.6999 98.3398 31.8699C101.133 31.2833 103.123 30.8199 104.31 30.4799ZM97.6598 36.4299C96.3298 39.6199 98.1298 42.1799 101.51 42.0799C105.69 41.9599 106.33 38.5999 106.5 35.1799C106.511 34.9603 106.476 34.7407 106.398 34.535C106.319 34.3294 106.199 34.1422 106.043 33.9852C105.888 33.8283 105.702 33.705 105.497 33.6232C105.291 33.5414 105.071 33.5028 104.85 33.5099C102.39 33.5899 98.7598 33.7599 97.6598 36.4299Z" fill="#333333"/>
<path d="M266.74 41.6899C269.47 41.1899 269.7 37.2799 267.04 36.1499C263.26 34.5499 257.11 32.8199 256.78 27.7699C256.27 19.7399 272.2 18.6099 272.76 24.7599C272.785 25.0299 272.732 25.3012 272.608 25.5423C272.484 25.7834 272.294 25.9842 272.06 26.1215C271.827 26.2588 271.559 26.3269 271.288 26.3177C271.017 26.3086 270.754 26.2226 270.53 26.0699C268.74 24.8399 264.58 23.4899 262.56 25.0999C260.72 26.5699 261.66 28.9699 263.76 29.7899C265.98 30.6632 268.154 31.6399 270.28 32.7199C275.48 35.3599 274.76 42.0499 269.75 44.4799C266.73 45.9532 263.08 45.9066 258.8 44.3399C257.467 43.8466 256.73 42.8932 256.59 41.4799L256.54 41.0499C256.407 39.7166 256.98 39.2499 258.26 39.6499C261.29 40.5999 263.12 42.3599 266.74 41.6899Z" fill="#333333"/>
<path d="M220.82 43.04C214.67 48.3 204.58 45.18 203.6 36.62C202.58 27.73 206.5 19.94 216.52 21.28C226.23 22.57 227.37 37.43 220.82 43.04ZM213.85 42.4797C214.614 42.4864 215.373 42.2553 216.083 41.7996C216.793 41.344 217.441 40.6726 217.989 39.824C218.536 38.9754 218.974 37.9661 219.276 36.8537C219.578 35.7413 219.739 34.5476 219.75 33.3408C219.76 32.134 219.62 30.9377 219.338 29.8202C219.055 28.7027 218.635 27.6859 218.102 26.8278C217.569 25.9697 216.933 25.2872 216.231 24.8192C215.529 24.3513 214.775 24.107 214.01 24.1003C213.246 24.0936 212.487 24.3247 211.777 24.7804C211.067 25.236 210.419 25.9073 209.872 26.756C209.324 27.6046 208.886 28.6139 208.584 29.7263C208.282 30.8387 208.121 32.0324 208.11 33.2392C208.1 34.446 208.24 35.6423 208.523 36.7598C208.805 37.8773 209.225 38.8941 209.758 39.7522C210.291 40.6102 210.927 41.2928 211.629 41.7607C212.331 42.2287 213.086 42.473 213.85 42.4797Z" fill="#333333"/>
<path d="M77.8803 26.43C72.0403 25.65 73.2503 38.4 73.8503 41.64C73.9103 41.98 73.8403 42.2934 73.6403 42.58C72.3737 44.3934 70.597 44.9467 68.3103 44.24C67.9603 44.1336 67.6615 43.902 67.4699 43.589C67.2784 43.2759 67.2074 42.9028 67.2703 42.54C67.7403 39.88 69.8703 23.49 63.2703 26.08C57.9303 28.17 58.7703 36.88 58.7103 41.61C58.6903 43.1967 57.8903 43.9134 56.3103 43.76L55.6703 43.7C55.3451 43.6687 55.0298 43.5709 54.7438 43.4129C54.4578 43.2549 54.2073 43.0399 54.0077 42.7812C53.8081 42.5226 53.6636 42.2257 53.5832 41.9091C53.5028 41.5924 53.4882 41.2626 53.5403 40.94C54.4803 35.22 54.5103 29.75 54.4903 24.13C54.4905 23.9441 54.53 23.7604 54.6061 23.5908C54.6823 23.4212 54.7934 23.2697 54.9321 23.146C55.0709 23.0223 55.2342 22.9294 55.4114 22.8732C55.5886 22.817 55.7757 22.7989 55.9603 22.82C58.6803 23.13 60.3703 23.42 63.2803 22.69C66.2937 21.93 69.1737 22.4267 71.9203 24.18C72.0582 24.2675 72.213 24.3236 72.3738 24.3443C72.5346 24.3651 72.6973 24.3499 72.8503 24.3C74.9103 23.65 76.9203 22.32 78.8903 22.18C83.6637 21.82 86.1603 24.2567 86.3803 29.49C86.607 34.6434 87.0037 38.47 87.5703 40.97C87.937 42.6167 87.2837 43.5467 85.6103 43.76L85.2003 43.81C83.5937 44.01 82.7437 43.3 82.6503 41.68C82.5503 39.92 82.207 36.4067 81.6203 31.14C81.3603 28.79 80.4503 26.77 77.8803 26.43Z" fill="#333333"/>
<path d="M151.52 23.9199L169.44 24.04C169.62 24.0466 169.78 23.9899 169.92 23.8699C170.013 23.7899 170.11 23.7333 170.21 23.7C170.23 23.8933 170.316 24.0633 170.47 24.2099C170.31 24.3899 170.23 24.6533 170.23 25C170.25 31.4133 170.26 37.83 170.26 44.25C170.26 50.36 165.23 51.3 159.95 51.26C153.636 51.2266 147.323 51.2333 141.01 51.2799C141.01 51.2533 141.01 51.2266 141.01 51.1999L141.04 33.33C140.55 27.93 143.01 24.07 148.34 23.99C149.4 23.97 150.46 23.9466 151.52 23.9199Z" fill="#D7C044"/>
<path d="M170.47 24.21C174.08 25.5 175.27 27.97 175.28 31.87C175.3 38.0033 175.36 44.1266 175.46 50.24C175.55 56.53 171.65 58.21 165.88 58.22C160.913 58.2266 155.946 58.2333 150.98 58.24C145.4 58.25 141.66 57.31 141.01 51.28C147.323 51.2333 153.636 51.2266 159.95 51.26C165.23 51.3 170.26 50.36 170.26 44.25C170.26 37.83 170.25 31.4133 170.23 25C170.23 24.6533 170.31 24.39 170.47 24.21Z" fill="#3DC6C1"/>
<path d="M141.04 33.3301L141.01 51.2001C135.68 51.2901 123.52 53.1901 123.5 44.5001C123.487 40.9067 123.497 37.2101 123.53 33.4101L141.04 33.3301Z" fill="#FECC51"/>
<path d="M2.25008 72.4C2.12728 72.5066 2.03234 72.6416 1.97349 72.7932C1.91465 72.9449 1.89368 73.1085 1.9124 73.2701C1.93112 73.4317 1.98896 73.5862 2.08091 73.7204C2.17286 73.8545 2.29615 73.9642 2.44008 74.04C4.48008 75.1 8.14008 76.29 7.35008 79.25C6.67008 81.76 3.20008 81.84 1.25008 80.99C0.550079 80.6833 0.226744 80.21 0.280078 79.57C0.289423 79.4595 0.328857 79.3534 0.393985 79.2636C0.459113 79.1738 0.547383 79.1038 0.648967 79.0613C0.75055 79.0188 0.861461 79.0055 0.969355 79.0229C1.07725 79.0403 1.17789 79.0878 1.26008 79.16C2.31341 80.06 3.49341 80.3633 4.80008 80.07C5.09311 80.0037 5.35807 79.8474 5.55785 79.623C5.75763 79.3987 5.88223 79.1174 5.9142 78.8187C5.94616 78.52 5.8839 78.2187 5.73612 77.9571C5.58834 77.6956 5.36245 77.4868 5.09008 77.36C3.56008 76.66 1.39008 75.75 0.63008 74.25C-0.96992 71.04 4.05008 69.64 6.45008 70.86C6.83675 71.0533 6.99341 71.3667 6.92008 71.8L6.84008 72.3C6.82905 72.3768 6.79692 72.4491 6.74727 72.5088C6.69762 72.5685 6.6324 72.6133 6.55884 72.6382C6.48528 72.663 6.40626 72.667 6.33057 72.6497C6.25488 72.6324 6.18548 72.5944 6.13008 72.54C4.87008 71.3 3.57675 71.2533 2.25008 72.4Z" fill="#333333"/>
<path d="M21.6603 78.6199C21.287 79.3132 21.0437 80.0466 20.9303 80.8199C20.9194 80.8876 20.8952 80.9525 20.8591 81.0109C20.8229 81.0692 20.7756 81.1198 20.7199 81.1598C20.6641 81.1998 20.6009 81.2283 20.5341 81.2438C20.4672 81.2592 20.398 81.2613 20.3303 81.2499L20.0003 81.1899C19.8984 81.17 19.8021 81.1284 19.7178 81.0678C19.6335 81.0073 19.5633 80.9292 19.512 80.839C19.4607 80.7487 19.4296 80.6485 19.4206 80.5451C19.4117 80.4417 19.4252 80.3376 19.4603 80.2399C20.547 77.3399 21.597 74.5199 22.6103 71.7799C23.197 70.1999 24.0337 70.0966 25.1203 71.4699C25.127 71.4832 25.1338 71.5002 25.1403 71.5199L28.2203 79.8699C28.2694 80 28.2906 80.1389 28.2824 80.2779C28.2743 80.4169 28.2371 80.5528 28.1731 80.677C28.1091 80.8012 28.0198 80.911 27.9108 80.9993C27.8019 81.0876 27.6757 81.1525 27.5403 81.1899L27.2803 81.2599C27.1094 81.3048 26.9277 81.2834 26.7719 81.1999C26.6161 81.1164 26.4976 80.9771 26.4403 80.8099L25.6603 78.5699C25.6118 78.428 25.5188 78.3051 25.3949 78.2189C25.2709 78.1326 25.1223 78.0875 24.9703 78.0899L22.3903 78.1699C22.0637 78.1766 21.8203 78.3266 21.6603 78.6199ZM22.2203 76.4299C22.2016 76.4827 22.1954 76.5391 22.2023 76.5947C22.2092 76.6503 22.2289 76.7035 22.26 76.7501C22.2911 76.7967 22.3326 76.8354 22.3813 76.8632C22.4299 76.8909 22.4844 76.9069 22.5403 76.9099L24.8403 76.9999C24.8962 77.0017 24.9518 76.9904 25.0026 76.967C25.0533 76.9436 25.098 76.9086 25.1329 76.865C25.1678 76.8213 25.1921 76.7701 25.2038 76.7154C25.2155 76.6607 25.2143 76.604 25.2003 76.5499L24.2003 72.7599C24.1816 72.6844 24.139 72.6171 24.0788 72.5679C24.0187 72.5187 23.9442 72.4902 23.8665 72.4869C23.7889 72.4835 23.7122 72.5053 23.648 72.5491C23.5838 72.5929 23.5355 72.6564 23.5103 72.7299L22.2203 76.4299Z" fill="#333333"/>
<path d="M190.651 81.69C190.026 81.6528 189.416 81.4684 188.855 81.1471C188.294 80.8258 187.794 80.3741 187.384 79.8176C186.973 79.2611 186.66 78.6108 186.462 77.9038C186.263 77.1968 186.184 76.447 186.229 75.6972C186.319 74.1828 186.907 72.7603 187.863 71.7426C188.82 70.7248 190.067 70.1952 191.33 70.2702C191.955 70.3073 192.565 70.4918 193.126 70.8131C193.687 71.1343 194.187 71.5861 194.597 72.1426C195.008 72.6991 195.321 73.3494 195.519 74.0564C195.718 74.7633 195.797 75.5132 195.752 76.263C195.662 77.7773 195.074 79.1999 194.118 80.2176C193.161 81.2354 191.914 81.765 190.651 81.69ZM190.9 80.5201C191.688 80.5201 192.444 80.0407 193.001 79.1874C193.558 78.3341 193.87 77.1768 193.87 75.9701C193.87 74.7634 193.558 73.606 193.001 72.7528C192.444 71.8995 191.688 71.4201 190.9 71.4201C190.113 71.4201 189.357 71.8995 188.8 72.7528C188.243 73.606 187.93 74.7634 187.93 75.9701C187.93 77.1768 188.243 78.3341 188.8 79.1874C189.357 80.0407 190.113 80.5201 190.9 80.5201Z" fill="#333333"/>
<path d="M217.349 78.25C216.403 78.03 215.463 78.0433 214.529 78.29C214.176 78.3833 213.936 78.6 213.809 78.94L213.029 80.98C212.883 81.3733 212.643 81.44 212.309 81.18L211.969 80.91C211.862 80.8231 211.783 80.7044 211.746 80.5701C211.708 80.4358 211.713 80.2925 211.759 80.16L215.019 71.24C215.333 70.3933 215.893 70.1666 216.699 70.56C216.866 70.64 217.063 70.98 217.289 71.58C218.423 74.52 219.516 77.33 220.569 80.01C220.633 80.1741 220.634 80.356 220.571 80.5204C220.508 80.6849 220.386 80.8202 220.229 80.9L219.479 81.27C219.414 81.3028 219.342 81.3213 219.268 81.3243C219.195 81.3272 219.122 81.3144 219.054 81.2869C218.987 81.2593 218.927 81.2176 218.877 81.1647C218.828 81.1117 218.791 81.0487 218.769 80.98L218.129 78.98C218.003 78.5866 217.743 78.3433 217.349 78.25ZM217.449 76.29L216.359 72.77C216.213 72.2966 216.049 72.29 215.869 72.75L214.519 76.22C214.492 76.2913 214.48 76.3681 214.486 76.4445C214.492 76.5209 214.515 76.595 214.553 76.6613C214.592 76.7276 214.645 76.7844 214.708 76.8274C214.771 76.8705 214.844 76.8987 214.919 76.91C215.639 77.0233 216.363 77.0166 217.089 76.89C217.154 76.8791 217.216 76.8543 217.27 76.8171C217.324 76.78 217.37 76.7313 217.404 76.6745C217.438 76.6177 217.46 76.554 217.467 76.4877C217.475 76.4214 217.469 76.3539 217.449 76.29Z" fill="#333333"/>
<path d="M244.16 79.2699C244.546 78.5032 244.456 77.7632 243.89 77.0499C243.476 76.5299 243.6 76.3066 244.26 76.3799L245.68 76.5399C245.837 76.5575 245.982 76.6368 246.081 76.7605C246.18 76.8842 246.227 77.0422 246.21 77.1999L245.95 80.0299C245.932 80.1989 245.872 80.3611 245.776 80.5023C245.68 80.6435 245.551 80.7594 245.4 80.8399C235.95 85.6499 234.34 67.6299 245.04 70.7299C245.446 70.8432 245.673 71.1132 245.72 71.5399L245.76 71.9499C245.793 72.2899 245.643 72.4266 245.31 72.3599L242.15 71.7399C241.957 71.7015 241.757 71.7372 241.59 71.8399C238.29 73.8899 238.77 80.8699 243.37 79.8799C243.73 79.7999 243.993 79.5966 244.16 79.2699Z" fill="#333333"/>
<path d="M277.19 72.2299C270.42 69.9099 270.62 80.6499 275.73 79.8499C277.037 79.6432 277.31 78.6299 276.55 76.8099C276.35 76.3299 276.503 76.1499 277.01 76.2699L278.17 76.5399C278.643 76.6466 278.857 76.9432 278.81 77.4299L278.54 80.1099C278.5 80.4832 278.31 80.7499 277.97 80.9099C269.23 84.9999 267.06 70.2799 275.87 70.1899C276.997 70.1766 277.743 70.4699 278.11 71.0699C278.877 72.3166 278.57 72.7032 277.19 72.2299Z" fill="#333333"/>
<path d="M12.5106 74.7601L15.6306 70.9401C15.7146 70.8372 15.8213 70.7549 15.9426 70.6994C16.064 70.6439 16.1967 70.6168 16.3306 70.6201H16.7306C17.2773 70.6267 17.3806 70.8401 17.0406 71.2601L14.4706 74.5001C14.2977 74.7172 14.1995 74.9843 14.1905 75.2618C14.1815 75.5392 14.2622 75.8122 14.4206 76.0401L17.6706 80.6701C17.7211 80.7404 17.7501 80.8237 17.7544 80.9101C17.7586 80.9966 17.7379 81.0824 17.6946 81.1573C17.6513 81.2322 17.5874 81.2931 17.5104 81.3326C17.4335 81.3721 17.3467 81.3886 17.2606 81.3801L16.7406 81.3201C16.314 81.2801 15.9773 81.0801 15.7306 80.7201L13.2306 77.0401C13.1545 76.9255 13.0467 76.8355 12.9204 76.781C12.794 76.7265 12.6546 76.7099 12.519 76.7332C12.3834 76.7565 12.2575 76.8187 12.1566 76.9123C12.0557 77.0058 11.9842 77.1266 11.9506 77.2601C11.7306 78.1267 11.6573 78.9901 11.7306 79.8501C11.7507 80.1 11.6919 80.3497 11.5626 80.5634C11.4333 80.7771 11.2401 80.944 11.0106 81.0401L10.5406 81.2301C9.80731 81.5301 9.49731 81.2867 9.61065 80.5001C10.044 77.4867 10.0473 74.4734 9.62064 71.4601C9.52064 70.7334 9.82731 70.4401 10.5406 70.5801L10.8106 70.6401C11.0671 70.6909 11.298 70.8284 11.4639 71.029C11.6299 71.2296 11.7206 71.4809 11.7206 71.7401V74.4801C11.7273 75.3134 11.9906 75.4067 12.5106 74.7601Z" fill="#333333"/>
<path d="M36.73 75.95C37.75 76.6233 38.1767 77.64 38.01 79C37.9361 79.6175 37.6481 80.1893 37.1965 80.6153C36.745 81.0412 36.1586 81.2942 35.54 81.33L32.52 81.5C31.2933 81.5666 30.6733 80.9866 30.66 79.76L30.55 71.16C30.5433 70.82 30.71 70.6266 31.05 70.58C32.7367 70.3266 34.4167 70.41 36.09 70.83C36.2705 70.8774 36.4397 70.9602 36.5874 71.0735C36.7351 71.1869 36.8583 71.3285 36.95 71.49C37.6567 72.77 37.54 73.96 36.6 75.06C36.3067 75.4 36.35 75.6966 36.73 75.95ZM32.35 71.98L32.41 74.72C32.4113 74.7839 32.4253 74.8469 32.4512 74.9053C32.4772 74.9637 32.5146 75.0164 32.5611 75.0601C32.6077 75.1039 32.6626 75.138 32.7225 75.1603C32.7824 75.1825 32.8461 75.1927 32.91 75.19L33.98 75.16C34.4735 75.1461 34.9418 74.9533 35.2828 74.6235C35.6237 74.2938 35.8097 73.854 35.8 73.4V73.14C35.7954 72.913 35.7419 72.6892 35.6427 72.4817C35.5435 72.2741 35.4006 72.0868 35.2221 71.9306C35.0436 71.7744 34.8331 71.6524 34.6027 71.5717C34.3724 71.4909 34.1268 71.4529 33.88 71.46L32.82 71.49C32.757 71.4913 32.6948 71.505 32.637 71.5303C32.5793 71.5556 32.5271 71.5921 32.4835 71.6376C32.4398 71.6831 32.4056 71.7368 32.3827 71.7955C32.3598 71.8543 32.3487 71.9169 32.35 71.98ZM32.38 76.86L32.34 79.53C32.3387 79.6272 32.3565 79.7236 32.3925 79.8139C32.4285 79.9042 32.4819 79.9865 32.5496 80.0562C32.6174 80.1258 32.6983 80.1814 32.7876 80.2198C32.8768 80.2582 32.9728 80.2787 33.07 80.28L34.2 80.3C34.4915 80.3043 34.7808 80.2588 35.0514 80.166C35.322 80.0732 35.5685 79.935 35.7768 79.7593C35.985 79.5836 36.1507 79.374 36.2646 79.1424C36.3784 78.9108 36.438 78.6619 36.44 78.41V78.07C36.4441 77.5656 36.2172 77.0796 35.8087 76.718C35.4003 76.3564 34.8436 76.1486 34.26 76.14L33.13 76.12C33.032 76.1187 32.9347 76.1368 32.8437 76.1734C32.7528 76.21 32.67 76.2643 32.6003 76.3332C32.5305 76.402 32.4751 76.484 32.4373 76.5745C32.3995 76.6649 32.38 76.762 32.38 76.86Z" fill="#333333"/>
<path d="M44.9804 70.7599C44.9804 70.6671 45.0173 70.5781 45.0829 70.5124C45.1485 70.4468 45.2376 70.4099 45.3304 70.4099L48.4204 70.4299C49.077 70.4351 49.7262 70.5711 50.3309 70.8302C50.9355 71.0894 51.4838 71.4665 51.9444 71.9401C52.405 72.4136 52.7688 72.9744 53.0152 73.5904C53.2616 74.2063 53.3857 74.8654 53.3804 75.5299V76.3699C53.3697 77.7119 52.8327 78.9946 51.8876 79.9361C50.9424 80.8775 49.6664 81.4005 48.3404 81.3899L45.2504 81.3699C45.1576 81.3699 45.0685 81.333 45.0029 81.2674C44.9373 81.2018 44.9004 81.1127 44.9004 81.0199L44.9804 70.7599ZM46.6904 72.0299L46.7104 79.7299C46.7104 79.8008 46.7244 79.871 46.7515 79.9366C46.7786 80.0021 46.8184 80.0616 46.8686 80.1117C46.9187 80.1619 46.9782 80.2017 47.0437 80.2288C47.1093 80.2559 47.1795 80.2699 47.2504 80.2699H48.0004C48.9191 80.2673 49.7992 79.8763 50.4479 79.1827C51.0965 78.4891 51.4606 77.5495 51.4604 76.5699V75.1899C51.4603 74.7032 51.3701 74.2213 51.1951 73.7717C51.02 73.3222 50.7635 72.9138 50.4402 72.5701C50.117 72.2264 49.7333 71.9541 49.3112 71.7687C48.8891 71.5834 48.4369 71.4886 47.9804 71.4899H47.2304C47.0872 71.4899 46.9498 71.5468 46.8485 71.6481C46.7473 71.7493 46.6904 71.8867 46.6904 72.0299Z" fill="#333333"/>
<path d="M58.3893 71.13C57.7693 74.3033 57.726 77.4866 58.2593 80.68C58.3193 81.02 58.1826 81.2233 57.8493 81.29C57.236 81.4166 56.626 81.4 56.0193 81.24C55.6393 81.14 55.5026 80.9033 55.6093 80.53C56.4626 77.47 56.466 74.41 55.6193 71.35C55.5193 70.97 55.656 70.7233 56.0293 70.61C56.7493 70.3766 57.4626 70.4133 58.1693 70.72C58.2472 70.7507 58.3118 70.8085 58.352 70.8834C58.3922 70.9582 58.4053 71.0454 58.3893 71.13Z" fill="#333333"/>
<path d="M81.3006 78.36L83.5806 71.03C83.6739 70.73 83.8839 70.5767 84.2106 70.57L84.5406 70.56C85.1406 70.5467 85.3339 70.82 85.1206 71.38L81.7806 80.27C81.6883 80.5072 81.545 80.7221 81.3606 80.9C80.6273 81.6067 80.1073 81.5567 79.8006 80.75C78.6073 77.6034 77.3906 74.5534 76.1506 71.6C75.9039 71.0134 76.0973 70.7267 76.7306 70.74H77.1706C77.7106 70.7534 78.0639 71.0134 78.2306 71.52L80.4506 78.36C80.7372 79.2467 81.0206 79.2467 81.3006 78.36Z" fill="#333333"/>
<path d="M88.9593 77.1801L89.0893 79.4601C89.0943 79.5653 89.1205 79.6684 89.1664 79.7631C89.2122 79.8579 89.2768 79.9425 89.3563 80.0116C89.4357 80.0807 89.5283 80.1331 89.6285 80.1655C89.7287 80.1979 89.8344 80.2096 89.9393 80.2001L93.6093 79.8901C93.8226 79.8767 93.926 79.9734 93.9193 80.1801V80.5801C93.9158 80.7113 93.8687 80.8376 93.7854 80.939C93.7021 81.0405 93.5873 81.1112 93.4593 81.1401C91.466 81.5467 89.4693 81.5767 87.4693 81.2301C87.176 81.1767 87.0326 81.0001 87.0393 80.7001L87.2993 71.2401C87.3126 70.7734 87.5493 70.5367 88.0093 70.5301L93.0593 70.4701C93.2108 70.4672 93.3576 70.5227 93.4693 70.625C93.581 70.7274 93.649 70.8689 93.6593 71.0201C93.6793 71.3134 93.6026 71.5234 93.4293 71.6501C93.3426 71.7167 93.2226 71.7467 93.0693 71.7401C91.996 71.7267 91.036 71.7401 90.1893 71.7801C89.5493 71.8067 89.2293 72.1401 89.2293 72.7801L89.2193 74.2601C89.2126 74.8001 89.4793 75.0534 90.0193 75.0201L92.0693 74.9001C92.1576 74.8935 92.2463 74.9066 92.329 74.9384C92.4117 74.9702 92.4863 75.02 92.5474 75.084C92.6086 75.1481 92.6549 75.2249 92.6829 75.3089C92.7108 75.3929 92.7199 75.4821 92.7093 75.5701L92.6793 75.9401C92.662 76.0974 92.587 76.2427 92.4688 76.348C92.3506 76.4533 92.1976 76.511 92.0393 76.5101L89.5993 76.5001C89.146 76.5001 88.9326 76.7267 88.9593 77.1801Z" fill="#333333"/>
<path d="M97.9897 79.7699C98.983 77.0032 98.9797 74.2499 97.9797 71.5099C97.8463 71.1566 97.9497 70.8932 98.2897 70.7199C98.8897 70.4132 99.5263 70.3899 100.2 70.6499C100.546 70.7832 100.71 71.0366 100.69 71.4099C100.54 74.4899 101.5 83.5699 95.8997 82.0899C95.5997 82.0099 95.4097 81.8699 95.3297 81.6699C95.2297 81.4299 95.273 81.1966 95.4597 80.9699C95.5375 80.8788 95.6392 80.8157 95.7497 80.7899L97.2597 80.4199C97.4264 80.3769 97.5799 80.2954 97.707 80.1822C97.8341 80.069 97.9311 79.9276 97.9897 79.7699Z" fill="#333333"/>
<path d="M114.69 80.19L118.26 79.9C118.473 79.8867 118.593 79.9833 118.62 80.19L118.65 80.44C118.671 80.6038 118.631 80.7693 118.536 80.9031C118.441 81.0368 118.3 81.1287 118.14 81.16C116.147 81.5533 114.15 81.5667 112.15 81.2C112.026 81.1784 111.914 81.1118 111.835 81.0126C111.756 80.9133 111.715 80.788 111.72 80.66L112.03 71.25C112.043 70.7767 112.287 70.5367 112.76 70.53L117.83 70.47C117.904 70.4691 117.978 70.4844 118.046 70.5149C118.113 70.5454 118.174 70.5903 118.222 70.6465C118.271 70.7026 118.307 70.7688 118.327 70.8402C118.347 70.9116 118.352 70.9867 118.34 71.06L118.29 71.43C118.25 71.6833 118.1 71.8067 117.84 71.8L115.03 71.74C114.563 71.7267 114.243 71.9333 114.07 72.36C113.803 73.0267 113.763 73.7 113.95 74.38C114.07 74.8133 114.353 75.0233 114.8 75.01L116.78 74.94C116.862 74.9373 116.944 74.9511 117.021 74.9804C117.098 75.0098 117.168 75.0541 117.228 75.1109C117.288 75.1677 117.335 75.2357 117.368 75.3111C117.401 75.3865 117.419 75.4677 117.42 75.55V75.94C117.421 76.02 117.407 76.0995 117.376 76.1736C117.346 76.2477 117.301 76.3149 117.244 76.371C117.187 76.4271 117.119 76.471 117.044 76.5001C116.97 76.5292 116.89 76.5427 116.81 76.54L114.5 76.46C114.08 76.4467 113.837 76.65 113.77 77.07C113.63 77.91 113.66 78.7467 113.86 79.58C113.901 79.7652 114.007 79.9292 114.16 80.0415C114.313 80.1538 114.501 80.2066 114.69 80.19Z" fill="#333333"/>
<path d="M125.259 72.59L125.229 80.72C125.229 81.0666 125.059 81.2666 124.719 81.32C124.373 81.3866 124.019 81.37 123.659 81.27C123.373 81.1966 123.236 81.01 123.249 80.71L123.569 72.7C123.574 72.5768 123.552 72.454 123.503 72.3408C123.454 72.2276 123.38 72.1269 123.287 72.0461C123.194 71.9654 123.083 71.9067 122.964 71.8745C122.845 71.8423 122.721 71.8373 122.599 71.86L120.709 72.19C120.641 72.2025 120.571 72.1992 120.505 72.1803C120.438 72.1614 120.377 72.1274 120.326 72.081C120.274 72.0345 120.235 71.9769 120.209 71.9126C120.184 71.8482 120.174 71.7789 120.179 71.71L120.229 71.21C120.249 71.0041 120.344 70.8132 120.496 70.6744C120.648 70.5357 120.845 70.4592 121.049 70.46L128.229 70.52C128.569 70.5266 128.729 70.7 128.709 71.04L128.689 71.33C128.677 71.5058 128.598 71.67 128.47 71.789C128.341 71.9081 128.173 71.9728 127.999 71.97L125.909 71.94C125.476 71.94 125.259 72.1566 125.259 72.59Z" fill="#333333"/>
<path d="M137.239 79.9999C138.466 80.2732 139.646 80.1299 140.779 79.5699C140.853 79.5343 140.934 79.5152 141.015 79.5141C141.097 79.5129 141.177 79.5297 141.251 79.5633C141.325 79.5968 141.39 79.6462 141.441 79.7079C141.493 79.7696 141.53 79.842 141.549 79.9199C141.656 80.3666 141.603 80.7299 141.389 81.0099C141.229 81.2232 140.936 81.3499 140.509 81.3899C138.743 81.5766 136.989 81.5332 135.249 81.2599C134.929 81.2132 134.766 81.0266 134.759 80.6999L134.699 71.1599C134.693 70.8332 134.849 70.6299 135.169 70.5499C135.576 70.4499 135.979 70.4899 136.379 70.6699C136.646 70.7899 136.776 70.9999 136.769 71.2999L136.569 79.1299C136.556 79.6032 136.779 79.8932 137.239 79.9999Z" fill="#333333"/>
<path d="M143.46 79.85C144.38 77.68 143.94 73.6 143.4 71.32C143.314 70.9534 143.447 70.7134 143.8 70.6C144.4 70.3934 145.017 70.3967 145.65 70.6101C146.004 70.7301 146.144 70.9701 146.07 71.3301C145.437 74.4834 145.417 77.6334 146.01 80.78C146.097 81.2134 145.92 81.4201 145.48 81.4001L143.81 81.31C143.49 81.2967 143.314 81.13 143.28 80.81C143.247 80.5234 143.307 80.2034 143.46 79.85Z" fill="#333333"/>
<path d="M151.2 79.9899C152.48 80.2632 153.72 80.1466 154.92 79.6399C154.987 79.6131 155.058 79.6012 155.129 79.605C155.2 79.6087 155.27 79.6281 155.332 79.6617C155.394 79.6952 155.448 79.7421 155.489 79.7989C155.531 79.8557 155.558 79.9209 155.57 79.9899C155.617 80.2566 155.61 80.5232 155.55 80.7899C155.511 80.9871 155.404 81.1642 155.248 81.2902C155.093 81.4163 154.899 81.4834 154.7 81.4799L149.3 81.3699C149.191 81.3684 149.084 81.3434 148.985 81.2967C148.887 81.25 148.799 81.1826 148.729 81.0991C148.659 81.0156 148.607 80.918 148.578 80.8129C148.549 80.7078 148.543 80.5976 148.56 80.4899C149.047 77.4099 149.057 74.3266 148.59 71.2399C148.537 70.8799 148.684 70.6566 149.03 70.5699C149.457 70.4632 149.884 70.4766 150.31 70.6099C150.449 70.6566 150.57 70.7458 150.654 70.8645C150.739 70.9832 150.783 71.1252 150.78 71.2699L150.64 79.2899C150.634 79.6766 150.82 79.9099 151.2 79.9899Z" fill="#333333"/>
<path d="M159.969 80.02C161.236 80.2534 162.466 80.1234 163.659 79.63C163.726 79.6028 163.798 79.5919 163.869 79.598C163.94 79.6042 164.009 79.6273 164.07 79.6655C164.13 79.7036 164.181 79.7557 164.218 79.8174C164.254 79.879 164.275 79.9485 164.279 80.02L164.319 80.8C164.346 81.24 164.139 81.4567 163.699 81.45L157.859 81.35C157.775 81.3482 157.693 81.3284 157.617 81.292C157.541 81.2557 157.474 81.2036 157.42 81.1392C157.366 81.0748 157.327 80.9997 157.304 80.9188C157.282 80.8378 157.277 80.753 157.289 80.67C157.783 77.51 157.783 74.3567 157.289 71.21C157.229 70.8234 157.393 70.5967 157.779 70.53C158.199 70.4567 158.609 70.4767 159.009 70.59C159.15 70.6333 159.273 70.721 159.359 70.84C159.446 70.959 159.492 71.1029 159.489 71.25L159.359 79.29C159.353 79.7034 159.556 79.9467 159.969 80.02Z" fill="#333333"/>
<path d="M169.271 80.21L172.501 79.9C172.614 79.8881 172.727 79.9193 172.82 79.9876C172.912 80.0559 172.976 80.1565 173.001 80.27L173.051 80.53C173.117 80.8833 172.974 81.0933 172.621 81.16C170.634 81.5467 168.644 81.57 166.651 81.23C166.317 81.1767 166.157 80.98 166.171 80.64L166.441 71.14C166.447 70.88 166.581 70.7267 166.841 70.68C168.734 70.3533 170.637 70.34 172.551 70.64C172.612 70.6495 172.671 70.6725 172.722 70.7074C172.774 70.7423 172.817 70.7882 172.848 70.8418C172.88 70.8954 172.899 70.9553 172.905 71.0173C172.91 71.0792 172.902 71.1416 172.881 71.2C172.841 71.3133 172.811 71.4233 172.791 71.53C172.777 71.6001 172.738 71.6632 172.682 71.7088C172.625 71.7543 172.554 71.7795 172.481 71.78L169.501 71.73C169.331 71.7303 169.165 71.7726 169.016 71.8529C168.868 71.9332 168.742 72.0491 168.651 72.19C168.191 72.9167 168.137 73.6867 168.491 74.5C168.637 74.8467 168.901 75.0167 169.281 75.01L171.261 74.96C171.333 74.9586 171.405 74.9719 171.471 74.9992C171.538 75.0264 171.599 75.0671 171.649 75.1186C171.7 75.1701 171.739 75.2313 171.765 75.2987C171.791 75.366 171.803 75.4379 171.801 75.51L171.781 75.83C171.761 76.31 171.511 76.54 171.031 76.52L169.071 76.46C168.942 76.4556 168.813 76.4782 168.694 76.5261C168.574 76.5741 168.465 76.6465 168.375 76.7387C168.285 76.8308 168.215 76.9408 168.169 77.0615C168.124 77.1823 168.104 77.3112 168.111 77.44L168.191 79.27C168.197 79.4037 168.23 79.5347 168.288 79.6552C168.347 79.7757 168.429 79.8831 168.53 79.9709C168.631 80.0588 168.748 80.1253 168.876 80.1664C169.003 80.2075 169.137 80.2223 169.271 80.21Z" fill="#333333"/>
<path d="M180.21 80.5499C180.963 80.5766 181.447 80.2299 181.66 79.5099C182.467 76.8233 182.427 74.1533 181.54 71.4999C181.407 71.0866 181.54 70.8033 181.94 70.6499C182.513 70.4366 183.1 70.4166 183.7 70.5899C183.869 70.6377 184.017 70.7411 184.119 70.883C184.221 71.0249 184.271 71.1967 184.26 71.3699C184.02 74.8599 185.3 83.0699 179.35 82.1699C179.202 82.1468 179.065 82.0781 178.958 81.9733C178.851 81.8686 178.779 81.733 178.752 81.5855C178.726 81.438 178.746 81.2859 178.81 81.1505C178.875 81.0151 178.979 80.903 179.11 80.8299C179.463 80.6299 179.83 80.5366 180.21 80.5499Z" fill="#333333"/>
<path d="M204.2 75.8601C205.553 77.0734 205.887 78.3134 205.2 79.5801C203.98 81.8201 200.78 81.6801 198.55 81.3601C198.283 81.3201 198.15 81.1634 198.15 80.89L198.13 70.8701C198.13 70.6967 198.213 70.6001 198.38 70.5801C199.587 70.4134 200.787 70.3967 201.98 70.53C204.69 70.83 205.96 72.66 204.13 75.03C203.897 75.33 203.92 75.6067 204.2 75.8601ZM199.86 72.21L199.84 74.45C199.839 74.5459 199.856 74.6411 199.892 74.7302C199.927 74.8193 199.98 74.9005 200.047 74.9692C200.113 75.0379 200.193 75.0928 200.281 75.1307C200.369 75.1686 200.464 75.1887 200.56 75.1901L201.37 75.2C201.622 75.2032 201.873 75.1642 202.107 75.0855C202.341 75.0067 202.555 74.8897 202.735 74.741C202.915 74.5924 203.059 74.4151 203.157 74.2193C203.256 74.0236 203.308 73.8131 203.31 73.6V73.1401C203.314 72.711 203.116 72.2974 202.76 71.9899C202.404 71.6825 201.918 71.5063 201.41 71.5001L200.6 71.49C200.504 71.4887 200.409 71.5063 200.32 71.5418C200.231 71.5772 200.149 71.6299 200.081 71.6968C200.012 71.7636 199.957 71.8434 199.919 71.9314C199.881 72.0195 199.861 72.1142 199.86 72.21ZM199.89 76.6901L199.85 79.71C199.85 79.8569 199.907 79.9978 200.01 80.1025C200.113 80.2073 200.253 80.2674 200.4 80.27L201.77 80.2901C202.048 80.2943 202.324 80.2489 202.583 80.1566C202.841 80.0642 203.076 79.9267 203.275 79.752C203.474 79.5772 203.633 79.3687 203.742 79.1384C203.851 78.9081 203.908 78.6606 203.91 78.4101V78.0701C203.914 77.5682 203.698 77.0845 203.308 76.7248C202.919 76.3651 202.387 76.1585 201.83 76.1501L200.46 76.13C200.386 76.1287 200.312 76.1422 200.243 76.1698C200.173 76.1973 200.11 76.2384 200.057 76.2905C200.004 76.3426 199.962 76.4048 199.933 76.4734C199.905 76.542 199.89 76.6157 199.89 76.6901Z" fill="#333333"/>
<path d="M222.95 70.9599C222.95 70.8247 223.004 70.695 223.1 70.5993C223.195 70.5037 223.325 70.4499 223.46 70.4499L226.42 70.44C227.728 70.4373 228.983 70.9605 229.909 71.8944C230.836 72.8284 231.357 74.0965 231.36 75.4199V76.3799C231.361 77.0353 231.235 77.6844 230.989 78.2903C230.742 78.8962 230.38 79.4471 229.923 79.9114C229.466 80.3757 228.924 80.7443 228.326 80.9963C227.728 81.2483 227.088 81.3786 226.44 81.3799L223.48 81.3899C223.345 81.3899 223.215 81.3362 223.12 81.2406C223.024 81.1449 222.97 81.0152 222.97 80.8799L222.95 70.9599ZM224.68 72.15L224.7 79.6099C224.7 79.6962 224.717 79.7815 224.751 79.861C224.784 79.9405 224.833 80.0126 224.894 80.0731C224.955 80.1336 225.028 80.1813 225.108 80.2134C225.188 80.2454 225.274 80.2613 225.36 80.26L226 80.2499C226.93 80.2447 227.819 79.847 228.473 79.1441C229.127 78.4411 229.493 77.4902 229.49 76.4999V75.22C229.489 74.728 229.396 74.2411 229.218 73.7872C229.04 73.3333 228.779 72.9214 228.451 72.5749C228.123 72.2284 227.734 71.9542 227.307 71.768C226.88 71.5819 226.422 71.4874 225.96 71.4899L225.32 71.4999C225.15 71.5026 224.987 71.5722 224.867 71.6938C224.747 71.8154 224.68 71.9793 224.68 72.15Z" fill="#333333"/>
<path d="M253.68 78.1601L251.22 78.1701C250.8 78.1767 250.52 78.3734 250.38 78.7601L249.61 80.9201C249.59 80.9791 249.557 81.033 249.514 81.0781C249.471 81.1232 249.418 81.1584 249.36 81.1812C249.302 81.204 249.24 81.214 249.178 81.2103C249.115 81.2067 249.055 81.1895 249 81.1601L248.67 80.9901C248.27 80.7767 248.15 80.4601 248.31 80.0401L251.6 71.1201C251.663 70.9479 251.774 70.7963 251.92 70.6816C252.067 70.567 252.243 70.4938 252.43 70.4701C253.116 70.3834 253.606 70.7367 253.9 71.5301C254.98 74.5034 256.036 77.3401 257.07 80.0401C257.316 80.6801 257.103 81.0501 256.43 81.1501L256.03 81.2101C255.483 81.2967 255.166 81.0634 255.08 80.5101C254.966 79.7434 254.676 79.0467 254.21 78.4201C254.148 78.3367 254.068 78.2695 253.976 78.2243C253.883 78.179 253.782 78.1569 253.68 78.1601ZM250.91 76.4801C250.892 76.5255 250.886 76.5743 250.891 76.6226C250.896 76.671 250.912 76.7175 250.939 76.7583C250.965 76.7992 251 76.8333 251.042 76.858C251.084 76.8826 251.131 76.897 251.18 76.9001L253.69 77.0401C253.738 77.0417 253.786 77.032 253.83 77.0117C253.874 76.9914 253.913 76.9611 253.943 76.9232C253.973 76.8852 253.994 76.8408 254.004 76.7934C254.014 76.7459 254.012 76.6969 254 76.6501L252.97 72.7301C252.953 72.6665 252.916 72.6098 252.865 72.5684C252.814 72.5269 252.751 72.5028 252.686 72.4994C252.62 72.4961 252.555 72.5137 252.5 72.5498C252.445 72.5859 252.403 72.6385 252.38 72.7001L250.91 76.4801Z" fill="#333333"/>
<path d="M284.31 75.01L286.49 74.97C286.843 74.9633 287.01 75.1366 286.99 75.49L286.97 75.93C286.943 76.3433 286.726 76.5433 286.32 76.53L284.24 76.49C284.116 76.4869 283.993 76.5097 283.878 76.5569C283.764 76.6041 283.661 76.6746 283.575 76.764C283.489 76.8534 283.423 76.9597 283.381 77.0761C283.339 77.1925 283.321 77.3164 283.33 77.44L283.44 79.32C283.48 79.9533 283.816 80.2433 284.45 80.19L287.77 79.93C288.023 79.91 288.166 80.0233 288.2 80.27L288.25 80.62C288.296 80.9466 288.156 81.14 287.83 81.2C285.843 81.5533 283.853 81.56 281.86 81.22C281.526 81.1666 281.366 80.97 281.38 80.63L281.69 71.26C281.71 70.7733 281.963 70.5266 282.45 70.52L287.35 70.46C287.493 70.46 287.63 70.5158 287.732 70.6152C287.833 70.7146 287.89 70.8494 287.89 70.99L287.88 71.53C287.88 71.5676 287.872 71.6048 287.857 71.6395C287.843 71.6741 287.821 71.7054 287.794 71.7316C287.767 71.7577 287.735 71.7781 287.7 71.7916C287.665 71.8051 287.627 71.8113 287.59 71.81L284.65 71.74C284.25 71.7333 283.966 71.91 283.8 72.27C283.433 73.05 283.41 73.8333 283.73 74.62C283.836 74.8866 284.03 75.0166 284.31 75.01Z" fill="#333333"/>
<path d="M62.6198 74.2701L62.5398 80.1901C62.5331 80.5501 62.3698 80.8034 62.0498 80.9501C61.8298 81.0501 61.5965 81.1201 61.3498 81.1601C60.9431 81.2201 60.7765 81.0467 60.8498 80.6401C61.4098 77.5267 61.4731 74.4034 61.0398 71.2701C60.9931 70.9167 61.1431 70.7667 61.4898 70.8201C63.8598 71.1601 66.3898 75.6201 67.5498 77.4501C67.5945 77.5211 67.6609 77.5758 67.7392 77.6061C67.8175 77.6363 67.9034 77.6406 67.9843 77.6181C68.0651 77.5957 68.1366 77.5477 68.188 77.4814C68.2395 77.4151 68.2681 77.334 68.2698 77.2501L68.2798 71.4301C68.2798 71.3596 68.2938 71.2899 68.3211 71.2249C68.3484 71.1599 68.3883 71.1011 68.4386 71.0517C68.4888 71.0024 68.5485 70.9635 68.6139 70.9375C68.6794 70.9115 68.7494 70.8987 68.8198 70.9001L69.4198 70.9201C69.7331 70.9267 69.8832 71.0901 69.8698 71.4101L69.3698 80.4001C69.3613 80.5461 69.3014 80.6844 69.2008 80.7905C69.1001 80.8967 68.9652 80.9638 68.8198 80.9801C68.5998 81.0001 68.3831 80.9667 68.1698 80.8801C67.9631 80.8001 67.7731 80.6167 67.5998 80.3301C66.2865 78.1634 64.8698 76.0634 63.3498 74.0301C62.8698 73.3901 62.6265 73.4701 62.6198 74.2701Z" fill="#333333"/>
<path d="M265.819 77.45C266.326 78.2567 266.583 78.1834 266.589 77.23L266.599 71.43C266.599 71.3433 266.617 71.2575 266.652 71.1781C266.686 71.0986 266.738 71.0274 266.802 70.969C266.866 70.9105 266.941 70.8662 267.024 70.8388C267.106 70.8115 267.193 70.8016 267.279 70.81L267.609 70.85C268.009 70.89 268.196 71.1067 268.169 71.5L267.689 79.57C267.674 79.7884 267.591 79.9964 267.451 80.1651C267.312 80.3338 267.123 80.4547 266.912 80.5109C266.7 80.567 266.476 80.5557 266.271 80.4785C266.067 80.4012 265.891 80.2619 265.769 80.08L261.929 74.24C261.256 73.2267 260.916 73.3267 260.909 74.54L260.879 80.15C260.877 80.3245 260.82 80.4938 260.715 80.6338C260.611 80.7738 260.466 80.8775 260.299 80.93L259.659 81.13C259.259 81.2567 259.096 81.1134 259.169 80.7C259.696 77.62 259.769 74.5334 259.389 71.44C259.38 71.3521 259.391 71.2631 259.422 71.1803C259.453 71.0976 259.502 71.0234 259.567 70.9639C259.631 70.9044 259.708 70.8612 259.792 70.8379C259.876 70.8147 259.964 70.812 260.049 70.83C262.239 71.31 264.749 75.76 265.819 77.45Z" fill="#333333"/>
<path d="M292.23 74.7499L292.29 80.0099C292.29 80.2354 292.217 80.4548 292.082 80.6352C291.947 80.8155 291.757 80.9471 291.54 81.0099L291.19 81.0999C290.677 81.2466 290.463 81.0533 290.55 80.5199C291.07 77.5199 291.133 74.5066 290.74 71.4799C290.66 70.8599 290.92 70.6433 291.52 70.8299C293.66 71.4899 296.01 75.6099 297.12 77.3399C297.66 78.1799 297.933 78.0999 297.94 77.0999L297.96 71.4399C297.961 71.3433 297.985 71.2481 298.03 71.1625C298.074 71.077 298.139 71.0036 298.217 70.9486C298.296 70.8936 298.386 70.8586 298.481 70.8467C298.575 70.8347 298.671 70.8461 298.76 70.8799L299.08 70.9899C299.373 71.0899 299.51 71.2933 299.49 71.5999L299.11 79.2299C299.096 79.4797 299.004 79.7193 298.847 79.9146C298.69 80.1098 298.476 80.2507 298.236 80.3172C297.995 80.3837 297.74 80.3724 297.508 80.2849C297.275 80.1974 297.076 80.0382 296.94 79.8299L293.36 74.4099C292.593 73.2433 292.217 73.3566 292.23 74.7499Z" fill="#333333"/>
<path d="M103.27 82.17C103.143 81.81 103.083 81.4433 103.089 81.07C103.091 81.0048 103.105 80.9405 103.132 80.8809C103.158 80.8212 103.196 80.7675 103.244 80.7228C103.291 80.6781 103.347 80.6433 103.408 80.6205C103.469 80.5977 103.534 80.5873 103.6 80.59L104.32 80.61C104.686 80.6167 104.886 80.8033 104.919 81.17C105.053 82.6033 104.54 83.71 103.38 84.49C102.966 84.7633 102.833 84.6667 102.979 84.2L103.289 83.22C103.396 82.8667 103.39 82.5167 103.27 82.17Z" fill="#333333"/>
<path d="M108 12.0361C107.995 13.3622 107.463 14.6301 106.522 15.561C105.581 16.4919 104.307 17.0095 102.981 16.9999C101.655 16.9903 100.385 16.4543 99.4511 15.5099C98.517 14.5655 97.995 13.2899 98 11.9639C98.0051 10.6378 98.5367 9.36989 99.4779 8.43901C100.419 7.50813 101.693 6.99055 103.019 7.00013C104.345 7.00972 105.615 7.54568 106.549 8.49011C107.483 9.43455 108.005 10.7101 108 12.0361ZM104.977 11.6793C104.973 11.4299 104.921 11.1844 104.823 10.957C104.725 10.7295 104.583 10.5245 104.406 10.3536C104.229 10.1827 104.02 10.0493 103.791 9.96096C103.562 9.87265 103.318 9.83116 103.072 9.83887C102.825 9.84658 102.582 9.90334 102.357 10.0059C102.131 10.1085 101.926 10.2548 101.755 10.4366C101.584 10.6184 101.449 10.8321 101.359 11.0655C101.269 11.2989 101.224 11.5473 101.228 11.7967C101.232 12.0461 101.285 12.2916 101.383 12.519C101.481 12.7465 101.622 12.9515 101.799 13.1224C101.976 13.2933 102.185 13.4267 102.414 13.515C102.643 13.6033 102.888 13.6448 103.134 13.6371C103.38 13.6294 103.623 13.5726 103.849 13.4701C104.075 13.3675 104.279 13.2211 104.45 13.0393C104.622 12.8575 104.756 12.6439 104.847 12.4105C104.937 12.1771 104.982 11.9287 104.977 11.6793Z" fill="#333333"/>
</g>
<defs>
<clipPath id="clip0_148_157">
<rect width="300" height="83" fill="white"/>
</clipPath>
</defs>
</svg>
