<svg width="285" height="71" viewBox="0 0 285 71" fill="none" xmlns="http://www.w3.org/2000/svg">
<path d="M145.873 12.3623C139.201 12.5642 132.576 12.6129 125.999 12.5085C118.123 12.3936 115.991 15.4529 116.067 22.9288C116.14 29.3675 116.118 35.8445 116.002 42.3598" stroke="#FDA331" stroke-width="2"/>
<path d="M146.515 12.5608L146.581 32.7645" stroke="#FEC13D" stroke-width="2"/>
<path d="M146.58 32.7644C145.383 32.7783 144.176 32.8096 142.957 32.8584C137.236 33.0881 134.516 37.2332 135.212 42.7148" stroke="#EABB37" stroke-width="2"/>
<path d="M135.213 42.7148L116.133 42.6104" stroke="#FEC13D" stroke-width="2"/>
<path d="M166.998 33.0044C167.005 39.3805 166.994 45.8018 166.965 52.2684C166.943 57.0504 165.04 61.3835 159.633 61.3522C151.555 61.2965 143.4 61.3243 135.169 61.4357" stroke="#8AC383" stroke-width="2"/>
<path d="M135.29 61.3419L135.212 42.7148" stroke="#EBC64B" stroke-width="2"/>
<path d="M166.954 32.8375L146.58 32.7644" stroke="#EBC64B" stroke-width="2"/>
<path d="M145.873 12.3624C139.201 12.5642 132.576 12.613 125.999 12.5086C118.123 12.3937 115.991 15.453 116.067 22.9289C116.14 29.3676 116.118 35.8446 116.002 42.3599C111.901 40.9921 110.704 38.4862 110.672 34.2784C110.635 28.4522 110.635 22.6261 110.672 16.7999C110.686 14.2801 111.11 12.3937 111.944 11.1408C113.279 9.1291 115.215 8.11631 117.753 8.10239C125.186 8.06758 132.616 8.0815 140.042 8.14415C142.645 8.16503 144.589 9.57111 145.873 12.3624Z" fill="#FD9038"/>
<path d="M145.872 12.3625C145.909 12.272 146.123 12.3381 146.514 12.5608L146.579 32.7645C145.383 32.7784 144.175 32.8098 142.957 32.8585C137.235 33.0882 134.516 37.2333 135.212 42.715L116.132 42.6105C115.835 42.2903 115.791 42.2068 116.002 42.36C116.118 35.8447 116.14 29.3677 116.067 22.9289C115.991 15.453 118.123 12.3938 125.999 12.5086C132.576 12.613 139.201 12.5643 145.872 12.3625Z" fill="#FDB629"/>
<path d="M146.514 12.5607C150.016 12.5259 153.505 12.5189 156.978 12.5398C163.799 12.5816 166.953 14.6176 166.975 21.2582C166.989 25.024 166.982 28.8837 166.953 32.8375L146.579 32.7644L146.514 12.5607Z" fill="#FECC51"/>
<path d="M239.183 30.9893C239.202 31.0855 239.241 31.1769 239.298 31.2582C239.356 31.3395 239.429 31.409 239.516 31.4626C239.602 31.5161 239.699 31.5527 239.8 31.57C239.902 31.5874 240.006 31.5852 240.107 31.5636C246.373 30.1227 252.215 30.154 254.651 36.9721C257.403 44.6881 254.793 54.1583 244.948 54.8369C242.087 55.0249 238.998 53.5944 235.528 54.0747C235.125 54.1299 234.714 54.0457 234.369 53.8373C234.025 53.6288 233.768 53.3097 233.646 52.9367C233.341 52.0317 233.196 50.918 233.211 49.5955C233.298 41.9595 233.363 34.327 233.407 26.698C233.418 24.6411 232.95 23.0331 232.308 21.1328C232.232 20.9147 232.207 20.6833 232.234 20.4549C232.261 20.2264 232.339 20.0063 232.463 19.8096C232.587 19.613 232.754 19.4447 232.953 19.3162C233.152 19.1877 233.377 19.1021 233.613 19.0655C234.745 18.8915 235.854 18.9297 236.942 19.1803C237.138 19.2265 237.321 19.3107 237.48 19.4275C237.639 19.5444 237.771 19.6913 237.867 19.859C239.531 22.6886 238.498 27.7108 239.183 30.9893ZM241.761 51.4331C253.281 53.9912 253.085 29.6215 241.881 33.965C237.344 35.7192 238.128 43.8319 238.617 47.8622C238.857 49.8252 239.814 50.9946 241.761 51.4331Z" fill="#333333"/>
<path d="M28.0978 45.9204C27.554 38.8204 13.2061 39.4991 10.8564 30.8538C7.8759 19.8697 22.4957 18.3661 29.7513 20.7258C30.4684 20.959 31.0953 21.3949 31.5496 21.9763C32.0039 22.5577 32.2643 23.2574 32.2967 23.9835L32.3511 25.0589C32.4309 26.6808 31.6948 27.168 30.1429 26.5207C27.0971 25.2469 25.1282 23.2944 21.223 23.5136C15.1532 23.8582 14.2503 30.4361 19.4499 32.8272C25.77 35.7402 36.7349 39.1441 33.2866 48.5098C29.8709 57.7711 8.76788 57.1969 10.1059 48.0504C10.1409 47.8119 10.2396 47.5861 10.3923 47.3949C10.5449 47.2037 10.7464 47.0535 10.9773 46.959C11.2081 46.8645 11.4605 46.8288 11.7099 46.8554C11.9594 46.882 12.1974 46.9699 12.4011 47.1107C16.1431 49.7105 20.3963 52.467 24.9977 50.5876C27.2385 49.6757 28.2719 48.12 28.0978 45.9204Z" fill="#333333"/>
<path d="M180.203 56.7687C179.115 56.3023 178.655 55.4218 178.821 54.1271C178.889 53.5929 179.161 53.1022 179.586 52.7507C180.01 52.3993 180.556 52.2125 181.117 52.2268C183.575 52.2894 185.577 52.8011 187.306 50.3161C188.604 48.4436 189.38 46.3797 189.634 44.1244C190.635 35.2494 190.831 29.8409 187.556 23.2525C187.377 22.889 187.342 22.4751 187.458 22.0886C187.574 21.7021 187.834 21.3697 188.187 21.1539C190.428 19.7756 197.629 18.6793 197.053 23.2212C196.139 30.5091 196.03 37.818 195.595 45.1477C195.501 46.7278 195.258 48.287 194.866 49.8253C193.202 56.2989 186.621 59.5147 180.203 56.7687Z" fill="#333333"/>
<path d="M97.1499 36.5858L96.693 35.5626C96.3128 34.703 95.6005 34.0179 94.7046 33.6503C93.8088 33.2826 92.7987 33.2607 91.885 33.5892L85.739 35.8027C85.4006 35.9249 85.0264 35.917 84.6955 35.7806C84.3646 35.6442 84.103 35.39 83.9659 35.0718L83.8571 34.8212C83.3277 33.6031 83.6505 32.653 84.8253 31.9708C90.6667 28.567 101.447 28.2224 102.273 37.0661C102.719 41.7959 101.86 47.9354 104.297 52.0387C104.396 52.2067 104.46 52.3918 104.485 52.5832C104.51 52.7745 104.495 52.9683 104.441 53.153C104.387 53.3378 104.296 53.5099 104.172 53.6592C104.048 53.8085 103.895 53.9321 103.72 54.0226C101.251 55.3068 99.7714 53.9808 97.4653 53.5945C95.5291 53.2604 93.1251 54.5968 91.3955 54.8996C85.5541 55.9124 80.8875 52.164 82.3777 46.5049C83.8354 40.992 90.7211 40.7205 95.5943 39.5824C95.9158 39.5069 96.2162 39.365 96.4748 39.1664C96.7334 38.9679 96.9439 38.7174 97.0918 38.4324C97.2398 38.1474 97.3216 37.8347 97.3316 37.5158C97.3416 37.197 97.2796 36.8797 97.1499 36.5858ZM89.9814 51.5062C95.8663 52.9158 97.2369 49.0212 97.498 44.542C97.5113 44.3267 97.4784 44.1111 97.4015 43.9083C97.3245 43.7055 97.205 43.5198 97.0502 43.3625C96.8955 43.2052 96.7088 43.0796 96.5015 42.9934C96.2942 42.9071 96.0707 42.8621 95.8445 42.8609C93.5493 42.8505 90.3947 43.028 88.7848 44.6673C87.0879 46.4109 86.7724 50.744 89.9814 51.5062Z" fill="#333333"/>
<path d="M272.121 51.2767C275.373 50.3265 275.493 46.8183 272.36 45.534C268.107 43.7799 264.071 42.6209 262.222 39.6348C259.927 35.9281 262.124 31.7934 266.236 30.4778C269.739 29.3502 273.307 29.4163 276.94 30.6762C277.51 30.8723 277.994 31.2481 278.313 31.7427C278.633 32.2373 278.77 32.8218 278.702 33.4014L278.648 33.8503C278.495 35.0754 277.828 35.4513 276.646 34.978C273.633 33.7773 267.715 31.3027 266.671 36.0117C266.552 36.5542 266.637 37.1198 266.912 37.6075C267.187 38.0952 267.634 38.4732 268.172 38.6742C273.133 40.5223 281.487 42.8924 279.757 49.5225C278.038 56.0796 267.998 56.184 263.081 53.8765C261.812 53.2779 261.149 52.2999 261.091 50.9425L261.069 50.6398C261.011 49.2615 261.664 48.7986 263.027 49.2511C266.084 50.2639 268.836 52.2477 272.121 51.2767Z" fill="#333333"/>
<path d="M213.467 55.3799C198.423 54.837 199.554 27.5438 217.296 30.0601C231.111 32.0126 229.762 55.9751 213.467 55.3799ZM214.561 52.1847C215.394 52.1903 216.221 51.9477 216.993 51.4706C217.766 50.9936 218.471 50.2915 219.066 49.4044C219.661 48.5174 220.136 47.4627 220.463 46.3007C220.791 45.1387 220.964 43.8921 220.973 42.632C220.982 41.3719 220.827 40.1231 220.517 38.9568C220.207 37.7905 219.747 36.7296 219.165 35.8347C218.582 34.9397 217.888 34.2283 217.122 33.7409C216.357 33.2536 215.534 32.9998 214.701 32.9943C213.868 32.9887 213.042 33.2313 212.269 33.7083C211.496 34.1854 210.792 34.8875 210.196 35.7745C209.601 36.6616 209.126 37.7162 208.799 38.8783C208.472 40.0403 208.299 41.2869 208.289 42.547C208.28 43.8071 208.435 45.0559 208.745 46.2222C209.056 47.3884 209.515 48.4493 210.097 49.3443C210.68 50.2392 211.374 50.9507 212.14 51.4381C212.906 51.9254 213.728 52.1791 214.561 52.1847Z" fill="#333333"/>
<path d="M52.2788 35.0406C44.5882 33.9547 45.589 46.9435 45.5237 51.1096C45.4947 52.801 44.6027 53.6015 42.8477 53.511L42.3038 53.4797C40.3603 53.3753 39.5372 52.4008 39.8346 50.5562C40.8027 44.5629 40.8462 38.9978 40.8245 33.1299C40.824 32.9168 40.8711 32.7061 40.9626 32.512C41.054 32.3178 41.1877 32.1447 41.3546 32.0043C41.5216 31.8638 41.7179 31.7593 41.9304 31.6977C42.1429 31.6361 42.3667 31.6189 42.5867 31.6472C45.5998 32.0544 47.3729 32.2424 50.6472 31.4697C53.78 30.7319 56.7388 31.2191 59.5235 32.9315C59.813 33.1105 60.1454 33.2159 60.4898 33.2378C60.8341 33.2597 61.1791 33.1974 61.4924 33.0568C63.4069 32.211 65.4954 31.1669 67.5187 30.9685C77.7439 29.9662 74.8504 41.3053 76.2754 47.5387C76.522 48.6385 76.7395 49.7452 76.9281 50.859C77.2037 52.5504 76.4495 53.4379 74.6655 53.5215L73.9367 53.5528C72.4065 53.6294 71.6052 52.9333 71.5327 51.4646C71.3441 47.5178 70.8764 43.4214 70.1294 39.1753C69.6508 36.4536 67.943 35.2076 65.0059 35.4374C60.8506 35.7715 61.2748 46.6094 61.6229 49.1049C62.1124 52.6235 61.4054 54.3776 57.3697 54.2315C55.593 54.1619 54.8061 53.4101 55.0092 51.9762C55.5386 48.0921 55.564 43.6476 55.0853 38.6428C54.9113 36.7634 54.4653 35.3434 52.2788 35.0406Z" fill="#333333"/>
<path d="M146.579 32.7644L166.953 32.8375C166.967 32.8932 166.982 32.9489 166.996 33.0046C167.004 39.3806 166.993 45.802 166.964 52.2685C166.942 57.0506 165.038 61.3837 159.632 61.3523C151.554 61.2967 143.399 61.3245 135.168 61.4359C135.204 61.408 135.244 61.3767 135.288 61.3419L135.211 42.7148C134.515 37.2332 137.235 33.0881 142.956 32.8584C144.175 32.8096 145.382 32.7783 146.579 32.7644Z" fill="#D7C044"/>
<path d="M166.997 33.0046C170.739 34.2506 172.599 36.4259 172.577 39.5304C172.541 45.7951 172.544 52.0493 172.588 58.2932C172.642 65.7377 170.641 68.6195 162.841 68.6299C156.895 68.6439 150.944 68.6369 144.991 68.6091C139.345 68.5777 135.755 67.116 135.168 61.436C143.399 61.3246 151.554 61.2967 159.632 61.3524C165.039 61.3838 166.942 57.0507 166.964 52.2686C166.993 45.802 167.004 39.3807 166.997 33.0046Z" fill="#3DC6C1"/>
<path d="M116.132 42.6104L135.212 42.7148L135.288 61.3418C130.36 61.3314 120.581 62.7096 117.513 58.387C115.12 55.0249 116.077 46.8181 116.132 42.6104Z" fill="#FECC51"/>
<path d="M99.2266 18.3059C99.2204 19.8269 98.5716 21.2813 97.4229 22.349C96.2742 23.4168 94.7197 24.0104 93.1014 23.9994C91.483 23.9884 89.9334 23.3737 88.7934 22.2904C87.6534 21.2071 87.0164 19.744 87.0225 18.223C87.0287 16.702 87.6775 15.2476 88.8262 14.1799C89.9748 13.1121 91.5294 12.5185 93.1477 12.5294C94.7661 12.5404 96.3157 13.1552 97.4557 14.2385C98.5957 15.3218 99.2327 16.7849 99.2266 18.3059ZM95.5378 17.8965C95.5328 17.6105 95.4687 17.329 95.3491 17.0681C95.2295 16.8072 95.0568 16.572 94.8408 16.376C94.6248 16.1799 94.3698 16.0269 94.0903 15.9256C93.8108 15.8243 93.5124 15.7767 93.2119 15.7856C92.9115 15.7944 92.615 15.8595 92.3393 15.9772C92.0637 16.0948 91.8143 16.2627 91.6054 16.4712C91.3965 16.6798 91.2322 16.9249 91.1219 17.1925C91.0115 17.4602 90.9573 17.7452 90.9623 18.0313C90.9673 18.3173 91.0315 18.5989 91.1511 18.8598C91.2707 19.1207 91.4434 19.3558 91.6594 19.5519C91.8753 19.7479 92.1303 19.9009 92.4098 20.0022C92.6893 20.1035 92.9878 20.1511 93.2882 20.1423C93.5886 20.1334 93.8851 20.0683 94.1608 19.9507C94.4364 19.833 94.6858 19.6651 94.8947 19.4566C95.1036 19.2481 95.2679 19.003 95.3783 18.7353C95.4886 18.4676 95.5428 18.1826 95.5378 17.8965Z" fill="#333333"/>
</svg>
