<svg width="395" height="270" viewBox="0 0 395 270" fill="none" xmlns="http://www.w3.org/2000/svg">
<g clip-path="url(#clip0_126_1390)">
<path d="M344.128 260.229V233.473C344.128 233.473 357.528 252.442 344.128 260.229Z" fill="#F1F1F1"/>
<path d="M344.956 260.224L319.626 242.13C319.626 242.13 346.646 247.277 344.956 260.224Z" fill="#F1F1F1"/>
<path d="M50.6032 260.229V233.473C50.6032 233.473 37.2028 252.442 50.6032 260.229Z" fill="#F1F1F1"/>
<path d="M49.7753 260.224L75.1055 242.13C75.1055 242.13 48.0852 247.277 49.7753 260.224Z" fill="#F1F1F1"/>
<path d="M280.804 61.7859H278.968V22.6505C278.968 19.676 278.215 16.7306 276.753 13.9825C275.29 11.2345 273.146 8.73748 270.443 6.63418C267.74 4.53089 264.531 2.86247 260.999 1.72417C257.467 0.585877 253.682 2.42864e-06 249.859 0H143.304C139.482 -6.31429e-06 135.696 0.58586 132.165 1.72415C128.633 2.86243 125.424 4.53085 122.721 6.63414C120.018 8.73742 117.874 11.2344 116.411 13.9825C114.948 16.7306 114.195 19.6759 114.195 22.6504V237.35C114.195 243.357 117.262 249.119 122.721 253.366C128.18 257.614 135.584 260.001 143.304 260.001H249.859C257.58 260.001 264.983 257.614 270.442 253.366C275.901 249.119 278.968 243.357 278.968 237.35V89.6431H280.804V61.7859Z" fill="#3F3D56"/>
<path d="M251.034 5.89283H237.125C237.765 7.11308 238.009 8.43701 237.836 9.74798C237.663 11.0589 237.079 12.3167 236.134 13.4105C235.189 14.5043 233.914 15.4005 232.419 16.0203C230.924 16.64 229.257 16.9642 227.563 16.9643H166.519C164.825 16.9642 163.158 16.64 161.663 16.0203C160.168 15.4006 158.892 14.5043 157.948 13.4105C157.003 12.3167 156.419 11.0589 156.246 9.74797C156.073 8.437 156.317 7.11307 156.957 5.89282H143.966C138.2 5.89282 132.671 7.67494 128.595 10.8471C124.518 14.0193 122.228 18.3218 122.228 22.8079V237.193C122.228 239.414 122.79 241.613 123.882 243.666C124.975 245.718 126.576 247.583 128.595 249.153C130.613 250.724 133.009 251.97 135.647 252.82C138.284 253.67 141.111 254.108 143.966 254.108H251.034C253.889 254.108 256.716 253.67 259.353 252.82C261.99 251.97 264.387 250.724 266.405 249.153C268.424 247.583 270.025 245.718 271.118 243.666C272.21 241.614 272.772 239.414 272.772 237.193V22.8079C272.772 20.5866 272.21 18.387 271.118 16.3348C270.025 14.2826 268.424 12.4179 266.405 10.8471C264.387 9.27643 261.99 8.03047 259.353 7.18041C256.716 6.33035 253.889 5.89283 251.034 5.89283Z" fill="white"/>
<path d="M248.352 250.427H146.648C134.961 250.427 125.454 243.824 125.454 235.707V225.051C125.454 218.582 133.026 213.32 142.332 213.32H252.667C261.974 213.32 269.545 218.582 269.545 225.051V235.707C269.545 243.824 260.038 250.427 248.352 250.427Z" fill="#E5E5E5"/>
<path d="M157.339 71.3272H134.653C134.247 71.3269 133.857 71.2011 133.57 70.9775C133.282 70.7539 133.121 70.4507 133.12 70.1345V52.4816C133.121 52.1654 133.282 51.8622 133.57 51.6386C133.857 51.415 134.247 51.2892 134.653 51.2888H157.339C157.746 51.2892 158.135 51.415 158.423 51.6386C158.71 51.8622 158.872 52.1654 158.872 52.4816V70.1345C158.872 70.4507 158.71 70.7539 158.423 70.9775C158.135 71.2011 157.746 71.3269 157.339 71.3272Z" fill="white"/>
<path d="M191.675 71.3272H168.989C168.583 71.3269 168.193 71.2011 167.906 70.9775C167.618 70.7539 167.457 70.4507 167.456 70.1345V52.4816C167.457 52.1654 167.618 51.8622 167.906 51.6386C168.193 51.415 168.583 51.2892 168.989 51.2888H191.675C192.082 51.2892 192.471 51.415 192.759 51.6386C193.046 51.8622 193.208 52.1654 193.208 52.4816V70.1345C193.208 70.4507 193.046 70.7539 192.759 70.9775C192.471 71.2011 192.082 71.3269 191.675 71.3272Z" fill="#E5E5E5"/>
<path d="M226.011 71.3272H203.325C202.918 71.3269 202.529 71.2011 202.241 70.9775C201.954 70.7539 201.792 70.4507 201.792 70.1345V52.4816C201.792 52.1654 201.954 51.8622 202.241 51.6386C202.529 51.415 202.918 51.2892 203.325 51.2888H226.011C226.418 51.2892 226.807 51.415 227.095 51.6386C227.382 51.8622 227.544 52.1654 227.544 52.4816V70.1345C227.544 70.4507 227.382 70.7539 227.095 70.9775C226.807 71.2011 226.418 71.3269 226.011 71.3272Z" fill="#E5E5E5"/>
<path d="M260.347 71.3272H237.661C237.254 71.3269 236.865 71.2011 236.577 70.9775C236.29 70.7539 236.128 70.4507 236.128 70.1345V52.4816C236.128 52.1654 236.29 51.8622 236.577 51.6386C236.865 51.415 237.254 51.2892 237.661 51.2888H260.347C260.754 51.2892 261.143 51.415 261.431 51.6386C261.718 51.8622 261.88 52.1654 261.88 52.4816V70.1345C261.88 70.4507 261.718 70.7539 261.431 70.9775C261.143 71.2011 260.754 71.3269 260.347 71.3272Z" fill="#E5E5E5"/>
<path d="M157.258 104.009H134.572C134.166 104.009 133.776 103.883 133.489 103.659C133.201 103.436 133.04 103.132 133.039 102.816V85.1632C133.04 84.847 133.201 84.5438 133.489 84.3202C133.776 84.0966 134.166 83.9708 134.572 83.9705H157.258C157.665 83.9708 158.054 84.0966 158.342 84.3202C158.629 84.5438 158.791 84.847 158.791 85.1632V102.816C158.791 103.132 158.629 103.436 158.342 103.659C158.054 103.883 157.665 104.009 157.258 104.009Z" fill="#E5E5E5"/>
<path d="M191.594 104.009H168.908C168.501 104.009 168.112 103.883 167.824 103.659C167.537 103.436 167.375 103.132 167.375 102.816V85.1632C167.375 84.847 167.537 84.5438 167.824 84.3202C168.112 84.0966 168.501 83.9708 168.908 83.9705H191.594C192.001 83.9708 192.39 84.0966 192.678 84.3202C192.965 84.5438 193.127 84.847 193.127 85.1632V102.816C193.127 103.132 192.965 103.436 192.678 103.659C192.39 103.883 192.001 104.009 191.594 104.009Z" fill="#E5E5E5"/>
<path d="M225.93 104.009H203.244C202.837 104.009 202.448 103.883 202.16 103.659C201.873 103.436 201.711 103.132 201.711 102.816V85.1632C201.711 84.847 201.873 84.5438 202.16 84.3202C202.448 84.0966 202.837 83.9708 203.244 83.9705H225.93C226.337 83.9708 226.726 84.0966 227.014 84.3202C227.301 84.5438 227.463 84.847 227.463 85.1632V102.816C227.463 103.132 227.301 103.436 227.014 103.659C226.726 103.883 226.337 104.009 225.93 104.009Z" fill="white"/>
<path d="M260.266 104.009H237.58C237.173 104.009 236.784 103.883 236.496 103.659C236.209 103.436 236.047 103.132 236.047 102.816V85.1632C236.047 84.847 236.209 84.5438 236.496 84.3202C236.784 84.0966 237.173 83.9708 237.58 83.9705H260.266C260.672 83.9708 261.062 84.0966 261.349 84.3202C261.637 84.5438 261.798 84.847 261.799 85.1632V102.816C261.798 103.132 261.637 103.436 261.349 103.659C261.062 103.883 260.672 104.009 260.266 104.009Z" fill="white"/>
<path d="M157.176 136.691H134.49C134.083 136.69 133.694 136.565 133.407 136.341C133.119 136.117 132.958 135.814 132.957 135.498V117.845C132.958 117.529 133.119 117.226 133.407 117.002C133.694 116.779 134.083 116.653 134.49 116.652H157.176C157.583 116.653 157.972 116.779 158.26 117.002C158.547 117.226 158.709 117.529 158.709 117.845V135.498C158.709 135.814 158.547 136.117 158.26 136.341C157.972 136.565 157.583 136.69 157.176 136.691Z" fill="#E5E5E5"/>
<path d="M191.513 136.691H168.827C168.42 136.69 168.031 136.565 167.743 136.341C167.456 136.117 167.294 135.814 167.294 135.498V117.845C167.294 117.529 167.456 117.226 167.743 117.002C168.031 116.779 168.42 116.653 168.827 116.652H191.513C191.92 116.653 192.309 116.779 192.597 117.002C192.884 117.226 193.046 117.529 193.046 117.845V135.498C193.046 135.814 192.884 136.117 192.597 136.341C192.309 136.565 191.92 136.69 191.513 136.691Z" fill="#E5E5E5"/>
<path d="M225.849 136.691H203.163C202.756 136.69 202.367 136.565 202.079 136.341C201.792 136.117 201.63 135.814 201.63 135.498V117.845C201.63 117.529 201.792 117.226 202.079 117.002C202.367 116.779 202.756 116.653 203.163 116.652H225.849C226.255 116.653 226.645 116.779 226.932 117.002C227.22 117.226 227.381 117.529 227.382 117.845V135.498C227.381 135.814 227.22 136.117 226.932 136.341C226.645 136.565 226.255 136.69 225.849 136.691Z" fill="#E5E5E5"/>
<path d="M260.185 136.691H237.499C237.092 136.69 236.703 136.565 236.415 136.341C236.128 136.117 235.966 135.814 235.966 135.498V117.845C235.966 117.529 236.128 117.226 236.415 117.002C236.703 116.779 237.092 116.653 237.499 116.652H260.185C260.591 116.653 260.981 116.779 261.268 117.002C261.556 117.226 261.717 117.529 261.718 117.845V135.498C261.717 135.814 261.556 136.117 261.268 136.341C260.981 136.565 260.591 136.69 260.185 136.691Z" fill="#E5E5E5"/>
<path d="M157.095 169.372H134.409C134.002 169.372 133.613 169.246 133.325 169.023C133.038 168.799 132.876 168.496 132.876 168.18V150.527C132.876 150.211 133.038 149.907 133.325 149.684C133.613 149.46 134.002 149.334 134.409 149.334H157.095C157.502 149.334 157.891 149.46 158.179 149.684C158.466 149.907 158.628 150.211 158.628 150.527V168.18C158.628 168.496 158.466 168.799 158.179 169.023C157.891 169.246 157.502 169.372 157.095 169.372Z" fill="#E5E5E5"/>
<path d="M191.432 169.372H168.746C168.339 169.372 167.95 169.246 167.662 169.023C167.375 168.799 167.213 168.496 167.213 168.18V150.527C167.213 150.211 167.375 149.907 167.662 149.684C167.95 149.46 168.339 149.334 168.746 149.334H191.432C191.839 149.334 192.228 149.46 192.515 149.684C192.803 149.907 192.964 150.211 192.965 150.527V168.18C192.964 168.496 192.803 168.799 192.515 169.023C192.228 169.246 191.839 169.372 191.432 169.372Z" fill="#E5E5E5"/>
<path d="M225.768 169.372H203.082C202.675 169.372 202.286 169.246 201.998 169.023C201.711 168.799 201.549 168.496 201.549 168.18V150.527C201.549 150.211 201.711 149.907 201.998 149.684C202.286 149.46 202.675 149.334 203.082 149.334H225.768C226.174 149.334 226.564 149.46 226.851 149.684C227.139 149.907 227.3 150.211 227.301 150.527V168.18C227.3 168.496 227.139 168.799 226.851 169.023C226.564 169.246 226.174 169.372 225.768 169.372Z" fill="#E5E5E5"/>
<path d="M260.104 169.372H237.418C237.011 169.372 236.622 169.246 236.334 169.023C236.047 168.799 235.885 168.496 235.885 168.18V150.527C235.885 150.211 236.047 149.907 236.334 149.684C236.622 149.46 237.011 149.334 237.418 149.334H260.104C260.51 149.334 260.9 149.46 261.187 149.684C261.475 149.907 261.636 150.211 261.637 150.527V168.18C261.636 168.496 261.475 168.799 261.187 169.023C260.9 169.246 260.51 169.372 260.104 169.372Z" fill="#E5E5E5"/>
<path d="M157.339 242.369H134.653C134.247 242.369 133.857 242.243 133.57 242.02C133.282 241.796 133.121 241.493 133.12 241.177V223.524C133.121 223.208 133.282 222.904 133.57 222.681C133.857 222.457 134.247 222.331 134.653 222.331H157.339C157.746 222.331 158.135 222.457 158.423 222.681C158.71 222.904 158.872 223.208 158.872 223.524V241.177C158.872 241.493 158.71 241.796 158.423 242.02C158.135 242.243 157.746 242.369 157.339 242.369Z" fill="white"/>
<path d="M191.675 242.369H168.989C168.583 242.369 168.193 242.243 167.906 242.02C167.618 241.796 167.457 241.493 167.456 241.177V223.524C167.457 223.208 167.618 222.904 167.906 222.681C168.193 222.457 168.583 222.331 168.989 222.331H191.675C192.082 222.331 192.471 222.457 192.759 222.681C193.046 222.904 193.208 223.208 193.208 223.524V241.177C193.208 241.493 193.046 241.796 192.759 242.02C192.471 242.243 192.082 242.369 191.675 242.369Z" fill="white"/>
<path d="M226.011 242.369H203.325C202.918 242.369 202.529 242.243 202.241 242.02C201.954 241.796 201.792 241.493 201.792 241.177V223.524C201.792 223.208 201.954 222.904 202.241 222.681C202.529 222.457 202.918 222.331 203.325 222.331H226.011C226.418 222.331 226.807 222.457 227.095 222.681C227.382 222.904 227.544 223.208 227.544 223.524V241.177C227.544 241.493 227.382 241.796 227.095 242.02C226.807 242.243 226.418 242.369 226.011 242.369Z" fill="white"/>
<path d="M260.347 242.369H237.661C237.254 242.369 236.865 242.243 236.577 242.02C236.29 241.796 236.128 241.493 236.128 241.177V223.524C236.128 223.208 236.29 222.904 236.577 222.681C236.865 222.457 237.254 222.331 237.661 222.331H260.347C260.754 222.331 261.143 222.457 261.431 222.681C261.718 222.904 261.88 223.208 261.88 223.524V241.177C261.88 241.493 261.718 241.796 261.431 242.02C261.143 242.243 260.754 242.369 260.347 242.369Z" fill="white"/>
<path d="M186.382 205.155C188.075 205.155 189.448 204.087 189.448 202.77C189.448 201.452 188.075 200.384 186.382 200.384C184.689 200.384 183.316 201.452 183.316 202.77C183.316 204.087 184.689 205.155 186.382 205.155Z" fill="#E5E5E5"/>
<path d="M197.419 205.155C199.112 205.155 200.485 204.087 200.485 202.77C200.485 201.452 199.112 200.384 197.419 200.384C195.726 200.384 194.354 201.452 194.354 202.77C194.354 204.087 195.726 205.155 197.419 205.155Z" fill="#E5E5E5"/>
<path d="M208.455 205.155C210.149 205.155 211.521 204.087 211.521 202.77C211.521 201.452 210.149 200.384 208.455 200.384C206.762 200.384 205.39 201.452 205.39 202.77C205.39 204.087 206.762 205.155 208.455 205.155Z" fill="#E5E5E5"/>
<path d="M394.525 260.387H0.475331C0.349265 260.387 0.228363 260.348 0.139221 260.279C0.050079 260.21 0 260.116 0 260.018C0 259.919 0.050079 259.825 0.139221 259.756C0.228363 259.687 0.349265 259.648 0.475331 259.648H394.525C394.651 259.648 394.772 259.687 394.861 259.756C394.95 259.825 395 259.919 395 260.018C395 260.116 394.95 260.21 394.861 260.279C394.772 260.348 394.651 260.387 394.525 260.387Z" fill="#CBCBCB"/>
<path d="M155.131 187.561C155.772 187.062 156.265 186.46 156.575 185.797C156.885 185.134 157.004 184.426 156.924 183.723C156.844 183.02 156.568 182.339 156.113 181.729C155.659 181.118 155.038 180.592 154.294 180.189L160.281 163.682L149.366 166.383L145.354 181.644C144.565 182.661 144.283 183.868 144.562 185.036C144.84 186.204 145.66 187.252 146.865 187.982C148.07 188.711 149.577 189.071 151.1 188.993C152.624 188.916 154.058 188.406 155.131 187.561Z" fill="#FFB7B7"/>
<path d="M158.234 177.443C158.039 177.472 157.841 177.485 157.643 177.482L147.171 177.319C146.777 177.313 146.389 177.241 146.033 177.11C145.678 176.978 145.362 176.788 145.107 176.554C144.853 176.32 144.665 176.046 144.557 175.751C144.449 175.456 144.423 175.147 144.481 174.843L155.104 118.997C155.421 117.381 156.47 115.907 158.061 114.841C159.653 113.775 161.682 113.187 163.782 113.184C165.108 113.186 166.416 113.423 167.607 113.877C168.798 114.33 169.841 114.988 170.657 115.801C171.473 116.615 172.042 117.561 172.319 118.57C172.596 119.579 172.575 120.624 172.257 121.626L164.728 145.355L160.458 175.559C160.396 176.017 160.146 176.448 159.746 176.787C159.345 177.126 158.816 177.356 158.234 177.443Z" fill="#3F3D56"/>
<path d="M162.613 265.604H168.441L171.213 248.114L162.612 248.114L162.613 265.604Z" fill="#FFB7B7"/>
<path d="M161.127 264.124L172.603 264.124H172.604C174.543 264.124 176.404 264.723 177.775 265.79C179.147 266.858 179.917 268.305 179.917 269.814V269.999L161.127 270L161.127 264.124Z" fill="#2F2E41"/>
<path d="M187.462 264.131L193.253 264.637L198.513 247.496L189.966 246.75L187.462 264.131Z" fill="#FFB7B7"/>
<path d="M186.197 262.531L197.602 263.526C199.529 263.695 201.292 264.452 202.503 265.632C203.713 266.811 204.271 268.316 204.055 269.816L204.029 270L185.355 268.371L186.197 262.531Z" fill="#2F2E41"/>
<path d="M157.143 168.273C157.143 168.273 149.154 182.036 156.209 190.975L160.413 260.572H170.063L179.426 204.352L196.062 220.996L185.927 259.843L197.73 260.358L214.125 220.996C214.125 220.996 201.53 177.593 197.37 176.548L194.636 166.626L157.143 168.273Z" fill="#2F2E41"/>
<path d="M153.588 180.356C153.588 180.356 146.391 186.784 165.404 189.003C184.417 191.222 204.381 187.893 204.857 183.455C205.332 179.016 153.588 180.356 153.588 180.356Z" fill="#CBCBCB"/>
<path d="M248.9 100.624C248.871 101.251 248.665 101.866 248.297 102.425C247.929 102.984 247.408 103.473 246.771 103.858C246.134 104.243 245.396 104.515 244.609 104.655C243.823 104.794 243.006 104.797 242.218 104.665L235.031 112.729L227.667 110.526L238.022 99.2481C238.396 98.232 239.237 97.3581 240.384 96.7919C241.531 96.2258 242.905 96.0067 244.246 96.1763C245.587 96.3459 246.802 96.8923 247.659 97.712C248.517 98.5317 248.958 99.5678 248.9 100.624Z" fill="#FFB7B7"/>
<path d="M188.119 111L177.957 107.423L164.938 108.147C164.938 108.147 149.242 122.427 155.422 136.112L151.619 183.825C175.861 189.003 186.881 179.291 204.381 183.455L198.975 130.427L188.119 111Z" fill="#3F3D56"/>
<path d="M181.327 114.474L188.118 111C188.118 111 197.552 109.89 201.323 112.737C201.323 112.737 214.122 113.571 217.213 116.057L220.617 116.654L231.923 105.261L238.842 108.187L228.86 129.269L198.975 130.427L181.327 114.474Z" fill="#3F3D56"/>
<path d="M183.671 103.41C191.444 100.104 194.301 92.5206 190.051 86.4721C185.802 80.4237 176.056 78.2008 168.283 81.5072C160.51 84.8136 157.654 92.3971 161.903 98.4455C166.152 104.494 175.898 106.717 183.671 103.41Z" fill="#FFB7B7"/>
<path d="M162.103 82.7008C164.967 78.6938 168.544 76.0992 174.435 76.1929C180.326 76.2865 185.421 76.1053 188.072 80.2C188.772 79.1794 189.123 78.0356 189.09 76.8789C189.891 77.2832 190.521 77.8609 190.905 78.5408C191.288 79.2207 191.408 79.973 191.248 80.7051C191.764 80.4701 192.195 80.1382 192.503 79.7398C192.811 79.3414 192.985 78.8892 193.01 78.4247C194.976 78.9338 195.488 81.0897 194.493 82.504C193.498 83.9183 191.547 84.7361 189.675 85.4274C187.804 86.1188 188.668 89.7753 187.445 91.0771C186.592 91.9857 186.202 93.0991 185.627 94.1316C185.603 94.1724 185.562 94.2057 185.511 94.2261C184.193 94.798 183.361 95.8197 183.594 96.9799C183.621 97.0669 183.615 97.1583 183.575 97.2424C181.907 99.6883 180.105 102.247 177.081 103.707C174.654 104.847 171.748 105.197 168.992 104.68C165.9 104.105 163.228 102.51 161.301 100.543C159.374 98.5764 158.134 96.2518 157.203 93.8871C156.376 91.7895 155.776 89.5466 156.431 87.4127C157.086 85.2787 159.305 83.3027 162.117 83.1378" fill="#2F2E41"/>
</g>
<defs>
<clipPath id="clip0_126_1390">
<rect width="395" height="270" fill="white"/>
</clipPath>
</defs>
</svg>
