<svg width="336" height="207" viewBox="0 0 336 207" fill="none" xmlns="http://www.w3.org/2000/svg">
<path opacity="0.45" d="M174.107 185.265C241.408 185.265 295.966 179.031 295.966 171.341C295.966 163.651 241.408 157.417 174.107 157.417C106.806 157.417 52.248 163.651 52.248 171.341C52.248 179.031 106.806 185.265 174.107 185.265Z" fill="#E6E6E6"/>
<path d="M98.5831 171.996C98.5831 171.996 97.7431 174.246 95.3575 174.522C92.9719 174.798 92.4511 176.771 94.6603 177.178C96.8695 177.585 102.33 175.039 102.33 175.039L101.977 172.176L98.5831 171.996Z" fill="#FEBF25"/>
<path opacity="0.58" d="M239.694 160.501C239.694 160.501 231.975 158.797 230.27 152.911C230.27 152.911 242.206 150.889 242.601 161.018L239.694 160.501Z" fill="#FEBF25"/>
<path opacity="0.73" d="M240.643 159.866C240.643 159.866 235.216 152.89 239.92 146.328C239.92 146.328 249.034 151.041 245.044 159.866H240.643Z" fill="#FEBF25"/>
<path d="M242.029 159.866C242.029 159.866 244.835 152.469 253.436 151.041C253.436 151.041 255.116 155.83 247.909 159.866H242.029Z" fill="#FEBF25"/>
<path d="M236.436 159.721L238.04 168.505H247.893L249.296 159.721H236.436Z" fill="#24285B"/>
<path d="M221.533 32.3472H125.664V171.341H221.533V32.3472Z" fill="#C9C9C9"/>
<path d="M212.949 48.4519H133.594V147.846H212.949V48.4519Z" fill="white"/>
<path d="M196.661 81.7305H150.771V134.322H196.661V81.7305Z" fill="#E6E6E6"/>
<path opacity="0.08" d="M177.03 91.5905L178.92 84.0833L187.32 90.1829L195.51 112.987L198.03 111.952L200.323 116.431L196.669 117.99L203.49 129.458C203.49 129.458 184.17 153.242 146.79 142.94L141.33 148.55L162.75 171.32H125.664L126.269 138.497L125.664 103.031V84.0557C125.664 84.0557 133.073 82.6757 136.156 86.5466C137.983 88.8365 138.635 91.6263 137.97 94.3091L134.82 94.6748L136.156 107.674L148.89 122.089L158.55 135.585L173.603 135.412L187.95 131.1L193.074 124.697L186.69 113.657L177.03 91.5905Z" fill="black"/>
<path opacity="0.56" d="M173.604 166.904C178.785 166.904 182.986 163.453 182.986 159.197C182.986 154.94 178.785 151.49 173.604 151.49C168.422 151.49 164.221 154.94 164.221 159.197C164.221 163.453 168.422 166.904 173.604 166.904Z" fill="white"/>
<path opacity="0.12" d="M192.368 37.8672H165.488V41.0895H192.368V37.8672Z" fill="black"/>
<path d="M155.753 43.4286C158.17 43.4286 160.13 41.8191 160.13 39.8337C160.13 37.8483 158.17 36.2388 155.753 36.2388C153.336 36.2388 151.377 37.8483 151.377 39.8337C151.377 41.8191 153.336 43.4286 155.753 43.4286Z" fill="white"/>
<path d="M112.434 89.1479C112.434 89.1479 111.317 92.9774 111.644 95.6546C111.677 95.9133 111.771 96.1642 111.921 96.393C112.072 96.6218 112.276 96.8239 112.522 96.988C112.767 97.152 113.05 97.2747 113.354 97.349C113.657 97.4233 113.975 97.4477 114.29 97.421C115.314 97.3809 116.303 97.0993 117.137 96.6098C117.971 96.1203 118.616 95.4437 118.994 94.661L121.027 91.4318C121.35 90.7507 121.408 90.0039 121.193 89.2946C120.978 88.5852 120.5 87.9481 119.826 87.4712C117.44 85.5599 112.963 86.7881 112.434 89.1479Z" fill="#F4A28C"/>
<path d="M120.952 92.9844L123.556 103.631L115.602 105.253L116.904 94.9233L120.952 92.9844Z" fill="#F4A28C"/>
<path d="M116.861 93.1018C116.861 93.1018 117.172 91.6045 118.541 91.8874C119.911 92.1703 119.465 94.33 117.567 94.3093L116.861 93.1018Z" fill="#F4A28C"/>
<path d="M111.879 91.5906L110.291 92.9292C110.2 93.0047 110.134 93.0978 110.099 93.2C110.064 93.3022 110.061 93.41 110.09 93.5133C110.12 93.6167 110.18 93.7123 110.267 93.7912C110.354 93.87 110.463 93.9295 110.585 93.9642L112.349 94.4679L111.879 91.5906Z" fill="#F4A28C"/>
<path opacity="0.31" d="M116.693 96.6001C117.582 96.1398 118.373 95.5642 119.037 94.8958C119.037 94.8958 120.196 98.7942 116.248 100.154L116.693 96.6001Z" fill="#CE8172"/>
<path d="M112.183 84.0281C112.183 84.0281 108.646 86.726 112.754 88.4027C116.862 90.0794 117.181 89.3618 117.181 89.3618C117.181 89.3618 115.064 93.9158 118.995 94.6748L121.162 93.9848C121.162 93.9848 125.934 88.9133 123.632 86.6018C123.632 86.588 120.39 79.4741 112.183 84.0281Z" fill="#24285B"/>
<path d="M116.667 104.19C116.667 104.19 142.548 99.6015 147.05 108.91C151.553 118.218 133.845 147.55 133.845 147.55L109.2 146.473C109.2 146.473 79.0942 116.299 116.667 104.19Z" fill="#FEBF25"/>
<path opacity="0.08" d="M120.961 117.114L129.63 120.812C129.63 120.812 129.487 136.275 116.24 146.784L109.192 146.473C108.539 145.845 107.938 145.181 107.395 144.486C106.807 143.651 120.961 117.114 120.961 117.114Z" fill="black"/>
<path d="M116.508 93.6124C116.508 93.6124 118.28 90.7903 119.868 92.2324C121.455 93.6745 118.482 96.3655 116.508 93.6124Z" fill="#F4A28C"/>
<path d="M72.6856 108.516L99.9604 99.1184L121.364 114.574C121.364 114.574 119.507 135.647 104.891 146.625C103.183 147.93 101.161 148.925 98.9543 149.546C96.7481 150.167 94.4075 150.4 92.0844 150.23C89.7614 150.06 87.5077 149.491 85.4697 148.56C83.4316 147.629 81.6546 146.356 80.254 144.824C74.2984 138.345 68.8804 127.077 72.6856 108.516Z" fill="#FFD200"/>
<path opacity="0.57" d="M80.0851 113.905L98.1535 107.695L112.349 117.942C112.349 117.942 111.115 131.928 101.429 139.208C100.295 140.074 98.952 140.735 97.4867 141.147C96.0214 141.559 94.4669 141.713 92.9244 141.599C91.3818 141.485 89.8857 141.106 88.5333 140.486C87.1809 139.866 86.0025 139.019 85.0747 138C81.1519 133.695 77.5483 126.222 80.0851 113.905Z" fill="white"/>
<path d="M132.996 105.632C134.688 104.659 136.717 104.162 138.781 104.216C140.845 104.269 142.832 104.87 144.446 105.929C148.058 108.227 153.14 112.698 156.5 120.826C162.186 134.626 174.291 135.495 188.579 125.166L192.309 129.12C192.309 129.12 160.943 154.484 136.919 125.58C126.738 113.353 129.04 107.992 132.996 105.632Z" fill="#FEBF25"/>
<path opacity="0.2" d="M132.996 105.632C134.688 104.659 136.717 104.162 138.781 104.216C140.845 104.269 142.832 104.87 144.446 105.929C148.058 108.227 153.14 112.698 156.5 120.826C162.186 134.626 174.291 135.495 188.579 125.166L192.309 129.12C192.309 129.12 160.943 154.484 136.919 125.58C126.738 113.353 129.04 107.992 132.996 105.632Z" fill="white"/>
<path d="M109.201 146.473L98.5157 153.373C96.0182 154.986 94.2382 157.231 93.4516 159.76C92.6649 162.289 92.9155 164.96 94.1645 167.359L97.0205 172.838H102.061L100.591 165.648C100.28 164.137 100.544 162.583 101.346 161.199C102.149 159.815 103.451 158.668 105.076 157.913C112.095 154.649 119.431 151.868 127.008 149.599L133.871 147.529L109.201 146.473Z" fill="#24285B"/>
<path d="M186.421 118.004L169.201 94.5094L169.932 85.8706L179.214 90.6937L191.495 116.424L186.421 118.004Z" fill="#FFD200"/>
<path d="M184.33 118.342L185.993 120.964L188.547 119.867L194.645 129.472L198.047 128.016L191.949 118.411L194.502 117.321L192.839 114.699L184.33 118.342Z" fill="#FFD200"/>
<path opacity="0.57" d="M184.33 118.342L185.993 120.964L188.547 119.867L194.645 129.472L198.047 128.016L191.949 118.411L194.502 117.321L192.839 114.699L184.33 118.342Z" fill="white"/>
<path opacity="0.08" d="M169.932 85.8706L188.798 116.431L191.041 115.472L179.214 90.6937L169.932 85.8706Z" fill="black"/>
<path d="M133.846 147.543L155.854 171.651L150.284 173.977C150.284 173.977 132.502 154.815 116.449 150.8L133.846 147.543Z" fill="#24285B"/>
<path d="M189.486 126.125C189.486 126.125 191.813 122.213 193.796 121.806C195.778 121.399 200.087 126.553 191.637 128.409L189.486 126.125Z" fill="#F4A28C"/>
<path d="M154.333 172.5C154.333 172.5 156.081 174.349 158.449 173.88C160.818 173.411 162.154 175.122 160.272 176.157C158.391 177.192 152.175 176.426 152.175 176.426L151.242 173.666L154.333 172.5Z" fill="#FEBF25"/>
<path opacity="0.45" d="M61.9659 96.3241C76.1943 96.3241 87.7287 86.8494 87.7287 75.1618C87.7287 63.4742 76.1943 53.9995 61.9659 53.9995C47.7375 53.9995 36.2031 63.4742 36.2031 75.1618C36.2031 86.8494 47.7375 96.3241 61.9659 96.3241Z" fill="#E6E6E6"/>
<path d="M73.9205 71.07C73.5269 69.3839 72.6128 67.8091 71.2657 66.4964C69.9187 65.1837 68.1839 64.1772 66.2274 63.5732C64.271 62.9693 62.1585 62.7881 60.0924 63.0471C58.0263 63.3061 56.0758 63.9966 54.4277 65.0524C52.7796 66.1082 51.4893 67.494 50.6802 69.0769C49.8711 70.6599 49.5704 72.387 49.8069 74.0928C50.0435 75.7985 50.8093 77.4258 52.0311 78.8188C53.2529 80.2117 54.8896 81.3236 56.7845 82.0479L58.2209 88.1751L61.7657 87.6162L60.6737 82.938C61.2626 82.9864 61.8549 83.0003 62.4461 82.9794L63.4709 87.3471L67.0157 86.7882L65.9993 82.4205C66.6282 82.2304 67.2377 81.9997 67.8221 81.7305L68.9309 86.4639L72.4757 85.905L71.0141 79.6467C72.2716 78.4984 73.1884 77.1265 73.6927 75.6385C74.1969 74.1505 74.2749 72.5868 73.9205 71.07ZM57.7841 77.5353C55.7429 77.8596 53.7269 76.5693 53.2817 74.6511C52.8365 72.7329 54.1217 70.9251 56.1629 70.6008C58.2041 70.2765 60.2117 71.5737 60.6653 73.485C61.1189 75.3963 59.8505 77.211 57.8093 77.5284L57.7841 77.5353ZM67.6541 75.9759C65.6213 76.3002 63.6053 75.0099 63.1517 73.0917C62.6981 71.1735 63.9917 69.3657 66.0329 69.0414C68.0741 68.7171 70.0817 70.0143 70.5353 71.9256C70.9889 73.8369 69.7205 75.6516 67.6793 75.969L67.6541 75.9759Z" fill="#C9C9C9"/>
<path opacity="0.45" d="M270.077 102.893C284.306 102.893 295.84 93.418 295.84 81.7304C295.84 70.0428 284.306 60.5681 270.077 60.5681C255.849 60.5681 244.314 70.0428 244.314 81.7304C244.314 93.418 255.849 102.893 270.077 102.893Z" fill="#E6E6E6"/>
<path d="M283.013 82.5929C283.603 80.9459 283.669 79.202 283.204 77.5282C282.738 75.8544 281.757 74.3069 280.355 73.0338C278.952 71.7608 277.175 70.8049 275.194 70.2578C273.213 69.7107 271.094 69.5906 269.04 69.9092C266.986 70.2278 265.066 70.9743 263.465 72.0771C261.863 73.18 260.632 74.6023 259.892 76.2078C259.151 77.8133 258.925 79.5481 259.234 81.246C259.544 82.944 260.379 84.5482 261.66 85.9049L259.56 91.901L263.029 92.7359L264.667 88.1612C265.162 88.4207 265.679 88.6512 266.213 88.8512L264.651 93.1499L268.12 93.9848L269.64 89.6999C270.302 89.7777 270.971 89.8077 271.639 89.7896L269.959 94.4195L273.429 95.2544L275.613 89.141C277.38 88.5957 278.968 87.7202 280.253 86.5838C281.537 85.4473 282.482 84.081 283.013 82.5929ZM265.062 82.2755C263.071 81.7925 261.996 79.8881 262.668 78.0182C263.34 76.1483 265.491 75.0167 267.481 75.4997C269.472 75.9827 270.547 77.8871 269.875 79.757C269.203 81.6269 267.053 82.7585 265.062 82.2755ZM274.68 84.6008C272.689 84.1178 271.614 82.2134 272.286 80.3435C272.958 78.4736 275.109 77.342 277.099 77.825C279.09 78.308 280.165 80.2055 279.502 82.0823C278.838 83.9591 276.696 85.0769 274.68 84.6008Z" fill="#C9C9C9"/>
<path opacity="0.45" d="M197.442 58.8433H150.771V71.9326H197.442V58.8433Z" fill="#E6E6E6"/>
<path d="M157.996 67.1164C159.179 67.1164 160.138 66.3287 160.138 65.3569C160.138 64.3852 159.179 63.5974 157.996 63.5974C156.813 63.5974 155.854 64.3852 155.854 65.3569C155.854 66.3287 156.813 67.1164 157.996 67.1164Z" fill="#C9C9C9"/>
<path d="M165.488 67.1164C166.671 67.1164 167.63 66.3287 167.63 65.3569C167.63 64.3852 166.671 63.5974 165.488 63.5974C164.305 63.5974 163.346 64.3852 163.346 65.3569C163.346 66.3287 164.305 67.1164 165.488 67.1164Z" fill="#C9C9C9"/>
<path d="M173.326 67.1164C174.509 67.1164 175.468 66.3287 175.468 65.3569C175.468 64.3852 174.509 63.5974 173.326 63.5974C172.143 63.5974 171.184 64.3852 171.184 65.3569C171.184 66.3287 172.143 67.1164 173.326 67.1164Z" fill="#C9C9C9"/>
<path d="M180.818 67.1164C182.001 67.1164 182.96 66.3287 182.96 65.3569C182.96 64.3852 182.001 63.5974 180.818 63.5974C179.635 63.5974 178.676 64.3852 178.676 65.3569C178.676 66.3287 179.635 67.1164 180.818 67.1164Z" fill="#C9C9C9"/>
<path d="M188.9 67.1164C190.083 67.1164 191.042 66.3287 191.042 65.3569C191.042 64.3852 190.083 63.5974 188.9 63.5974C187.717 63.5974 186.758 64.3852 186.758 65.3569C186.758 66.3287 187.717 67.1164 188.9 67.1164Z" fill="#C9C9C9"/>
</svg>
