<svg width="395" height="270" viewBox="0 0 395 270" fill="none" xmlns="http://www.w3.org/2000/svg">
<g clip-path="url(#clip0_126_1446)">
<path d="M65.2727 190.624C63.3694 190.829 61.2931 191.137 59.0845 191.588C49.7198 193.498 49.5254 199.87 49.6075 201.331L49.5439 201.291C48.6023 202.805 48.0125 204.336 47.6561 205.782L47.2272 186.254C47.5045 185.675 47.7568 185.018 47.9672 184.344C48.6682 186.507 49.8173 188.551 50.8078 188.415C52.0958 188.239 52.6574 184.442 52.4171 181.743C54.055 183.857 56.8115 186.117 57.8514 185.42C58.6824 184.863 58.1897 182.57 57.2825 180.486C59.1727 181.627 61.2663 182.377 61.9159 181.652C62.8024 180.663 60.6782 177.289 58.7192 175.406C61.3414 175.651 64.6765 175.233 64.8951 174.037C65.0753 173.051 63.0904 171.808 60.9659 171.008C63.0998 170.444 65.0953 169.462 65.0291 168.49C64.9505 167.335 61.9879 166.562 59.4321 166.444C61.3599 164.933 63.1311 162.844 62.5895 161.899C62.0915 161.031 59.7749 161.367 57.6375 162.132C58.9024 160.32 59.7916 158.278 59.1144 157.58C58.2708 156.709 55.2766 158.211 53.2333 159.872C53.6311 157.285 53.43 154.019 52.2719 153.724C51.3031 153.477 49.93 155.376 48.9887 157.446C48.5726 155.274 47.7303 153.212 46.7582 153.212C45.3734 153.212 44.2508 157.396 44.2508 160.122C44.2508 160.276 44.2549 160.421 44.2619 160.559C44.1229 160.398 43.9636 160.229 43.782 160.052C41.8306 158.153 38.0533 156.046 37.0886 157.041C36.4113 157.74 37.3006 159.782 38.5655 161.594C36.4281 160.829 34.1115 160.492 33.6135 161.361C32.9443 162.528 35.8045 165.441 38.1294 166.854C37.9897 166.837 37.8428 166.823 37.6866 166.813C34.9727 166.627 30.7308 167.464 30.6365 168.849C30.5704 169.821 32.5658 170.803 34.6997 171.367C32.5752 172.167 30.5903 173.41 30.7705 174.396C30.9892 175.591 34.3242 176.01 36.9465 175.765C34.9875 177.648 32.8632 181.022 33.7497 182.011C34.3994 182.736 36.4929 181.986 38.3832 180.845C37.476 182.929 36.9833 185.222 37.8142 185.779C38.9123 186.515 41.924 183.953 43.5119 181.749C43.3501 184.446 43.9941 188.151 45.2718 188.297C45.8062 188.358 46.3724 187.787 46.8834 186.908L45.4361 207.898C45.0978 210.343 47.2618 211.938 47.4552 212.945L47.7674 227.159C47.4151 226.147 46.9405 225.111 46.3009 224.082L46.2372 224.122C46.3193 222.661 46.1248 216.29 36.7603 214.379C34.5517 213.929 32.4753 213.621 30.572 213.415C28.3254 213.173 27.449 216.255 29.4786 217.25C32.4179 218.692 35.1828 220.508 36.6239 222.658C40.3084 228.157 45.3992 224.979 46.1231 224.485C46.9315 225.834 47.4616 227.192 47.7965 228.485L47.9622 236.034C47.9216 236.212 47.8935 236.312 47.8913 236.32L47.969 236.342L48.3702 254.611L52.0917 254.581L50.7606 235.908C50.9843 234.901 51.6725 231.469 50.7606 227.905L49.4295 213.233C49.4262 213.222 49.505 213.618 49.4295 213.233L47.6931 207.468C47.9456 205.685 48.5316 203.679 49.7217 201.694C50.4455 202.187 55.5363 205.366 59.2208 199.867C60.6619 197.716 63.4269 195.9 66.3661 194.459C68.3957 193.463 67.5194 190.382 65.2727 190.624ZM48.2724 233.847L48.2022 230.652C48.3437 231.86 48.3366 232.95 48.2724 233.847Z" fill="#F2F2F2"/>
<path d="M350.081 190.624C348.178 190.829 346.102 191.137 343.893 191.588C334.528 193.498 334.334 199.87 334.416 201.331L334.352 201.291C333.411 202.805 332.821 204.336 332.465 205.782L332.036 186.254C332.313 185.675 332.565 185.018 332.776 184.344C333.477 186.507 334.626 188.551 335.616 188.415C336.904 188.239 337.466 184.442 337.226 181.743C338.864 183.857 341.62 186.117 342.66 185.42C343.491 184.863 342.998 182.57 342.091 180.486C343.981 181.627 346.075 182.377 346.725 181.652C347.611 180.663 345.487 177.289 343.528 175.406C346.15 175.651 349.485 175.233 349.704 174.037C349.884 173.051 347.899 171.808 345.774 171.008C347.908 170.444 349.904 169.462 349.838 168.49C349.759 167.335 346.797 166.562 344.241 166.444C346.168 164.933 347.94 162.844 347.398 161.899C346.9 161.031 344.583 161.367 342.446 162.132C343.711 160.32 344.6 158.278 343.923 157.58C343.079 156.709 340.085 158.211 338.042 159.872C338.44 157.285 338.239 154.019 337.081 153.724C336.112 153.477 334.739 155.376 333.797 157.446C333.381 155.274 332.539 153.212 331.567 153.212C330.182 153.212 329.059 157.396 329.059 160.122C329.059 160.276 329.064 160.421 329.071 160.559C328.932 160.398 328.772 160.229 328.591 160.052C326.639 158.153 322.862 156.046 321.897 157.041C321.22 157.74 322.109 159.782 323.374 161.594C321.237 160.829 318.92 160.492 318.422 161.361C317.753 162.528 320.613 165.441 322.938 166.854C322.798 166.837 322.651 166.823 322.495 166.813C319.781 166.627 315.539 167.464 315.445 168.849C315.379 169.821 317.374 170.803 319.508 171.367C317.384 172.167 315.399 173.41 315.579 174.396C315.798 175.591 319.133 176.01 321.755 175.765C319.796 177.648 317.672 181.022 318.558 182.011C319.208 182.736 321.301 181.986 323.192 180.845C322.285 182.929 321.792 185.222 322.623 185.779C323.721 186.515 326.733 183.953 328.32 181.749C328.159 184.446 328.803 188.151 330.08 188.297C330.615 188.358 331.181 187.787 331.692 186.908L330.245 207.898C329.906 210.343 332.07 211.938 332.264 212.945L332.576 227.159C332.224 226.147 331.749 225.111 331.109 224.082L331.046 224.122C331.128 222.661 330.933 216.29 321.569 214.379C319.36 213.929 317.284 213.621 315.381 213.415C313.134 213.173 312.258 216.255 314.287 217.25C317.226 218.692 319.991 220.508 321.433 222.658C325.117 228.157 330.208 224.979 330.932 224.485C331.74 225.834 332.27 227.192 332.605 228.485L332.771 236.034C332.73 236.212 332.702 236.312 332.7 236.32L332.778 236.342L333.179 254.611L336.9 254.581L335.569 235.908C335.793 234.901 336.481 231.469 335.569 227.905L334.238 213.233C334.235 213.222 334.314 213.618 334.238 213.233L332.502 207.468C332.754 205.685 333.34 203.679 334.53 201.694C335.254 202.187 340.345 205.366 344.029 199.867C345.471 197.716 348.235 195.9 351.175 194.459C353.204 193.463 352.328 190.382 350.081 190.624ZM333.081 233.847L333.011 230.652C333.152 231.86 333.145 232.95 333.081 233.847Z" fill="#F2F2F2"/>
<path d="M292.302 130.839L290.557 89.1525C290.557 89.1525 288.597 64.4038 287.029 55.7614C285.46 47.119 274.875 49.476 274.875 49.476L276.051 74.2247L281.126 99.5517L285.076 134.04C284.872 135.038 284.757 136.122 284.757 137.261C284.757 142.092 286.771 146.009 289.255 146.009C291.739 146.009 293.752 142.092 293.752 137.261C293.752 134.719 293.192 132.438 292.302 130.839Z" fill="#FFB6B6"/>
<path d="M207.355 120.038C209.211 117.823 211.433 116.318 213.429 115.739L236.901 89.1525C236.901 89.1525 238.861 64.4038 240.429 55.7614C241.997 47.119 252.583 49.476 252.583 49.476L251.406 74.2247L244.742 100.938L217.276 124.302C216.797 125.178 216.209 126.053 215.504 126.894C212.163 130.881 207.63 132.579 205.38 130.686C203.129 128.793 204.014 124.026 207.355 120.038Z" fill="#FFB6B6"/>
<path d="M258.997 46.1369L261.72 35.6487L272.327 35.1375L275.5 49.5951L258.997 46.1369Z" fill="#FFB6B6"/>
<path opacity="0.1" d="M258.997 46.1369L261.72 35.6487L272.327 35.1375L275.5 49.5951L258.997 46.1369Z" fill="black"/>
<path d="M231.911 217.962L221.977 217.393L223.28 247.944L230.012 248.329L231.911 217.962Z" fill="#FFB6B6"/>
<path d="M222.419 238.284L225.869 239.861L225.864 241.956C225.864 241.956 226.696 239.531 231.164 239.002L231.697 241.034C231.697 241.034 233.429 243.026 233.132 246.63L231.995 256.283L228.626 256.205L228.082 249.488C228.082 249.488 227.154 247.964 222.879 255.206C222.879 255.206 218.17 256.396 210.878 253.946C209.876 253.609 209.179 252.671 209.193 251.612C209.2 251.028 209.428 250.487 210.159 250.294C212.021 249.8 213.839 250.426 215.042 248.937C216.244 247.448 222.419 238.284 222.419 238.284Z" fill="#2F2E41"/>
<path d="M285.229 217.962L275.295 217.393L276.598 247.944L283.33 248.329L285.229 217.962Z" fill="#FFB6B6"/>
<path d="M275.737 238.284L279.187 239.861L279.183 241.956C279.183 241.956 280.015 239.531 284.482 239.002L285.015 241.034C285.015 241.034 286.748 243.026 286.451 246.63L285.314 256.283L281.945 256.205L281.4 249.488C281.4 249.488 280.472 247.964 276.198 255.206C276.198 255.206 271.489 256.396 264.196 253.946C263.194 253.609 262.498 252.671 262.511 251.612C262.518 251.028 262.746 250.487 263.478 250.294C265.34 249.8 267.158 250.426 268.36 248.937C269.563 247.448 275.737 238.284 275.737 238.284Z" fill="#2F2E41"/>
<path d="M267.152 41.8251C273.648 41.8251 278.914 36.5487 278.914 30.04C278.914 23.5313 273.648 18.2549 267.152 18.2549C260.656 18.2549 255.391 23.5313 255.391 30.04C255.391 36.5487 260.656 41.8251 267.152 41.8251Z" fill="#FFB6B6"/>
<path d="M273.822 31.9992C273.822 31.9992 268.651 23.521 263.474 24.4568C258.298 25.3926 255.599 26.2374 255.599 26.2374C255.599 26.2374 253.492 19.4778 260.568 16.2347C260.568 16.2347 250.553 7.8326 261.227 2.44041C271.901 -2.95178 278.543 2.27413 278.543 2.27413C278.543 2.27413 287.378 9.78147 277.583 16.7292C277.583 16.7292 286.06 26.4056 277.498 35.6487C277.498 35.6487 279.009 28.6106 276.953 30.0534C274.897 31.4963 273.822 31.9992 273.822 31.9992Z" fill="#2F2E41"/>
<path d="M275.071 46.9224L258.997 44.9583L246.647 54.9756C246.647 54.9756 240.505 72.123 245.079 82.4742C245.188 82.7222 245.275 99.9554 245.275 99.9554H279.426C279.426 99.9554 279.393 88.2256 280.698 83.9772C280.885 83.3703 281.098 82.9161 281.343 82.6706C283.304 80.7064 288.008 68.1356 285.656 62.6359C283.304 57.1362 275.071 46.9224 275.071 46.9224Z" fill="white"/>
<path d="M245.079 99.1699L223.516 167.916L218.812 222.128H231.945L243.119 171.845L258.506 142.738L273.698 226.056H286.956L286.636 113.312L279.399 99.1699H245.079Z" fill="#2F2E41"/>
<path d="M395 254.706H0V255.912H395V254.706Z" fill="#3F3D56"/>
<path d="M202.477 113.083C198.561 106.766 189.427 105.28 182.642 108.293C175.858 111.307 171.168 117.732 167.98 124.447C164.792 131.162 162.786 138.397 159.51 145.07C149.869 164.702 130.345 177.523 118.063 195.615C108.836 209.208 103.949 225.712 104.286 242.148C104.415 248.444 105.431 255.067 109.352 259.988C115.172 267.292 125.476 268.79 134.754 269.752C140.143 270.311 146.758 270.295 149.534 265.632C150.632 263.788 138.833 257.353 139.023 255.214C140.044 243.671 153.079 236.34 154.1 224.797C155.702 232.84 153.649 241.144 153.973 249.339C154.297 257.535 158.329 266.805 166.338 268.499C168.809 269.022 171.599 268.66 173.473 266.962C175.346 265.264 175.893 262.057 174.224 260.157C175.933 261.905 178.816 262.36 180.978 261.221C183.14 260.083 184.401 257.445 183.933 255.043C183.588 253.277 182.451 251.791 181.466 250.287C176.13 242.135 174.74 231.514 177.798 222.259C183.204 205.9 200.956 195.222 203.963 178.256C206.196 165.655 199.825 151.378 206.586 140.52C209.633 135.628 214.807 132.543 218.933 128.523C223.06 124.502 226.287 118.351 223.925 113.092L202.833 113.069" fill="#3F3D56"/>
<path d="M137.43 257.499C136.905 257.499 136.367 257.358 135.848 257.079C134.65 256.436 133.747 255.164 133.547 253.838C133.214 251.633 134.262 249.492 135.104 247.771C137.408 243.066 139.685 238.035 140.021 232.807C140.388 227.099 138.077 221.808 134.135 219.328C131.205 217.485 127.293 217.011 123.12 217.994C119.424 218.865 116.104 220.645 112.456 222.71C112.166 222.874 111.799 222.772 111.636 222.482C111.472 222.192 111.574 221.824 111.864 221.66C115.456 219.626 118.999 217.725 122.844 216.819C127.333 215.762 131.57 216.289 134.775 218.306C139.086 221.019 141.617 226.741 141.223 232.884C140.873 238.333 138.542 243.489 136.185 248.303C135.377 249.954 134.461 251.826 134.738 253.657C134.881 254.605 135.556 255.553 136.417 256.016C136.836 256.241 137.476 256.444 138.14 256.135C138.442 255.993 138.8 256.125 138.94 256.427C139.081 256.728 138.95 257.088 138.649 257.228C138.262 257.409 137.85 257.499 137.43 257.499Z" fill="#2F2E41"/>
<path d="M183.575 112.669C182.787 114.833 183.839 117.258 185.297 119.039C186.754 120.82 188.627 122.252 189.912 124.163C192.604 128.167 192.2 133.641 190.131 138.001C188.062 142.362 184.574 145.856 181.153 149.256C181.406 147.798 180.67 146.326 179.668 145.24C178.665 144.153 177.402 143.346 176.281 142.383C171.059 137.898 169.426 129.724 172.521 123.569" fill="#2F2E41"/>
<path d="M112.252 241.403C107.828 240.86 104.092 244.848 99.6778 245.46C94.5732 246.167 89.8788 242.119 87.6076 237.484C85.3364 232.849 84.7536 227.588 83.1911 222.668C81.6286 217.747 78.6142 212.764 73.7031 211.2C71.6426 210.544 69.3114 210.58 67.3973 211.587C65.4831 212.594 64.0803 214.65 64.1281 216.816C64.1871 219.481 66.2266 221.614 67.4623 223.974C69.4284 227.731 69.3673 232.179 70.2357 236.331C72.3237 246.311 80.4262 254.775 90.2916 257.281C95.3933 258.577 101.104 258.28 105.524 255.416C109.943 252.552 112.637 246.784 111.001 241.772" fill="#3F3D56"/>
</g>
<defs>
<clipPath id="clip0_126_1446">
<rect width="395" height="270" fill="white"/>
</clipPath>
</defs>
</svg>
