<?xml version="1.0" encoding="UTF-8" standalone="no"?>
<!DOCTYPE svg PUBLIC "-//W3C//DTD SVG 1.1//EN"
 "http://www.w3.org/Graphics/SVG/1.1/DTD/svg11.dtd">
<!-- Generated by graphviz version 2.47.0 (20210316.0004)
 -->
<!-- Title: dependencies Pages: 1 -->
<svg width="1745pt" height="306pt"
 viewBox="0.00 0.00 1745.00 306.40" xmlns="http://www.w3.org/2000/svg" xmlns:xlink="http://www.w3.org/1999/xlink">
<g id="graph0" class="graph" transform="scale(1 1) rotate(0) translate(4 302.4)">
<title>dependencies</title>
<polygon fill="white" stroke="transparent" points="-4,4 -4,-302.4 1741,-302.4 1741,4 -4,4"/>
<text text-anchor="start" x="847.51" y="-42.4" font-family="Times-12" font-weight="bold" font-size="14.00">Legend</text>
<polygon fill="#ffffb3" stroke="transparent" points="634.5,-10 634.5,-30 654.5,-30 654.5,-10 634.5,-10"/>
<text text-anchor="start" x="658.13" y="-15.4" font-family="Times-12" font-size="14.00"> &#160;Declarations</text>
<polygon fill="#8dd3c7" stroke="transparent" points="747.5,-10 747.5,-30 767.5,-30 767.5,-10 747.5,-10"/>
<text text-anchor="start" x="771.23" y="-15.4" font-family="Times-12" font-size="14.00"> &#160;Module</text>
<polygon fill="#80b1d3" stroke="transparent" points="833.5,-10 833.5,-30 853.5,-30 853.5,-10 833.5,-10"/>
<text text-anchor="start" x="857.28" y="-15.4" font-family="Times-12" font-size="14.00"> &#160;Bootstrap</text>
<polygon fill="#fdb462" stroke="transparent" points="930.5,-10 930.5,-30 950.5,-30 950.5,-10 930.5,-10"/>
<text text-anchor="start" x="954.17" y="-15.4" font-family="Times-12" font-size="14.00"> &#160;Providers</text>
<polygon fill="#fb8072" stroke="transparent" points="1026.5,-10 1026.5,-30 1046.5,-30 1046.5,-10 1026.5,-10"/>
<text text-anchor="start" x="1050.23" y="-15.4" font-family="Times-12" font-size="14.00"> &#160;Exports</text>
<g id="clust1" class="cluster">
<title>cluster_AppModule</title>
<polygon fill="none" stroke="black" stroke-dasharray="1,5" points="8,-70 8,-290.4 1729,-290.4 1729,-70 8,-70"/>
</g>
<g id="clust4" class="cluster">
<title>cluster_AppModule_imports</title>
<polygon fill="none" stroke="black" points="288,-78 288,-152.4 1721,-152.4 1721,-78 288,-78"/>
</g>
<g id="clust6" class="cluster">
<title>cluster_AppModule_bootstrap</title>
<polygon fill="none" stroke="black" points="577,-230.4 577,-282.4 701,-282.4 701,-230.4 577,-230.4"/>
</g>
<g id="clust7" class="cluster">
<title>cluster_AppModule_providers</title>
<polygon fill="none" stroke="black" points="146,-89.2 146,-141.2 280,-141.2 280,-89.2 146,-89.2"/>
</g>
<g id="clust2" class="cluster">
<title>cluster_AppModule_declarations</title>
<polygon fill="none" stroke="black" points="16,-89.2 16,-141.2 138,-141.2 138,-89.2 16,-89.2"/>
</g>
<!-- AppComponent -->
<g id="node1" class="node">
<title>AppComponent</title>
<polygon fill="#ffffb3" stroke="black" points="129.94,-133.2 24.06,-133.2 24.06,-97.2 129.94,-97.2 129.94,-133.2"/>
<text text-anchor="middle" x="77" y="-111" font-family="Times,serif" font-size="14.00">AppComponent</text>
</g>
<!-- AppModule -->
<g id="node2" class="node">
<title>AppModule</title>
<polygon fill="#8dd3c7" stroke="black" points="680.66,-209.4 677.66,-213.4 656.66,-213.4 653.66,-209.4 597.34,-209.4 597.34,-173.4 680.66,-173.4 680.66,-209.4"/>
<text text-anchor="middle" x="639" y="-187.2" font-family="Times,serif" font-size="14.00">AppModule</text>
</g>
<!-- AppComponent&#45;&gt;AppModule -->
<g id="edge1" class="edge">
<title>AppComponent&#45;&gt;AppModule</title>
<path fill="none" stroke="black" d="M77,-133.27C77,-158.28 77,-200.4 77,-200.4 77,-200.4 587.22,-200.4 587.22,-200.4"/>
<polygon fill="black" stroke="black" points="587.22,-203.9 597.22,-200.4 587.22,-196.9 587.22,-203.9"/>
</g>
<!-- AppComponent  -->
<g id="node8" class="node">
<title>AppComponent </title>
<polygon fill="#80b1d3" stroke="black" points="693.44,-274.4 584.56,-274.4 584.56,-238.4 693.44,-238.4 693.44,-274.4"/>
<text text-anchor="middle" x="639" y="-252.2" font-family="Times,serif" font-size="14.00">AppComponent </text>
</g>
<!-- AppModule&#45;&gt;AppComponent  -->
<g id="edge7" class="edge">
<title>AppModule&#45;&gt;AppComponent </title>
<path fill="none" stroke="black" stroke-dasharray="1,5" d="M639,-209.51C639,-209.51 639,-228.39 639,-228.39"/>
<polygon fill="black" stroke="black" points="635.5,-228.39 639,-238.39 642.5,-228.39 635.5,-228.39"/>
</g>
<!-- AppRoutingModule -->
<g id="node3" class="node">
<title>AppRoutingModule</title>
<polygon fill="#8dd3c7" stroke="black" points="1713.27,-133.2 1710.27,-137.2 1689.27,-137.2 1686.27,-133.2 1584.73,-133.2 1584.73,-97.2 1713.27,-97.2 1713.27,-133.2"/>
<text text-anchor="middle" x="1649" y="-111" font-family="Times,serif" font-size="14.00">AppRoutingModule</text>
</g>
<!-- AppRoutingModule&#45;&gt;AppModule -->
<g id="edge2" class="edge">
<title>AppRoutingModule&#45;&gt;AppModule</title>
<path fill="none" stroke="black" d="M1649,-133.44C1649,-157.66 1649,-197.4 1649,-197.4 1649,-197.4 690.79,-197.4 690.79,-197.4"/>
<polygon fill="black" stroke="black" points="690.79,-193.9 680.79,-197.4 690.79,-200.9 690.79,-193.9"/>
</g>
<!-- provideAuth(() =&gt; getAuth()) -->
<g id="node4" class="node">
<title>provideAuth(() =&gt; getAuth())</title>
<polygon fill="#8dd3c7" stroke="black" points="1566.12,-133.2 1563.12,-137.2 1542.12,-137.2 1539.12,-133.2 1383.88,-133.2 1383.88,-97.2 1566.12,-97.2 1566.12,-133.2"/>
<text text-anchor="middle" x="1475" y="-111" font-family="Times,serif" font-size="14.00">provideAuth(() =&gt; getAuth())</text>
</g>
<!-- provideAuth(() =&gt; getAuth())&#45;&gt;AppModule -->
<g id="edge3" class="edge">
<title>provideAuth(() =&gt; getAuth())&#45;&gt;AppModule</title>
<path fill="none" stroke="black" d="M1475,-133.28C1475,-154.08 1475,-185.4 1475,-185.4 1475,-185.4 690.74,-185.4 690.74,-185.4"/>
<polygon fill="black" stroke="black" points="690.74,-181.9 680.74,-185.4 690.74,-188.9 690.74,-181.9"/>
</g>
<!-- provideFirebaseApp(() =&gt; initializeApp({
 &#160;&#160;&#160;projectId: , appId: , storageBucket: , apiKey: , authDomain: , messagingSenderId: , measurementId: ,
})) -->
<g id="node5" class="node">
<title>provideFirebaseApp(() =&gt; initializeApp({
 &#160;&#160;&#160;projectId: , appId: , storageBucket: , apiKey: , authDomain: , messagingSenderId: , measurementId: ,
}))</title>
<polygon fill="#8dd3c7" stroke="black" points="1365.79,-144.6 1362.79,-148.6 1341.79,-148.6 1338.79,-144.6 770.21,-144.6 770.21,-85.8 1365.79,-85.8 1365.79,-144.6"/>
<text text-anchor="middle" x="1068" y="-127.8" font-family="Times,serif" font-size="14.00">provideFirebaseApp(() =&gt; initializeApp({</text>
<text text-anchor="middle" x="1068" y="-111" font-family="Times,serif" font-size="14.00"> &#160;&#160;&#160;projectId: , appId: , storageBucket: , apiKey: , authDomain: , messagingSenderId: , measurementId: ,</text>
<text text-anchor="middle" x="1068" y="-94.2" font-family="Times,serif" font-size="14.00">}))</text>
</g>
<!-- provideFirebaseApp(() =&gt; initializeApp({
 &#160;&#160;&#160;projectId: , appId: , storageBucket: , apiKey: , authDomain: , messagingSenderId: , measurementId: ,
}))&#45;&gt;AppModule -->
<g id="edge4" class="edge">
<title>provideFirebaseApp(() =&gt; initializeApp({
 &#160;&#160;&#160;projectId: , appId: , storageBucket: , apiKey: , authDomain: , messagingSenderId: , measurementId: ,
}))&#45;&gt;AppModule</title>
<path fill="none" stroke="black" d="M770.22,-139.4C703.96,-139.4 652.94,-139.4 652.94,-139.4 652.94,-139.4 652.94,-163.21 652.94,-163.21"/>
<polygon fill="black" stroke="black" points="649.44,-163.21 652.94,-173.21 656.44,-163.21 649.44,-163.21"/>
</g>
<!-- provideFirestore(() =&gt; getFirestore()) -->
<g id="node6" class="node">
<title>provideFirestore(() =&gt; getFirestore())</title>
<polygon fill="#8dd3c7" stroke="black" points="752.14,-133.2 749.14,-137.2 728.14,-137.2 725.14,-133.2 525.86,-133.2 525.86,-97.2 752.14,-97.2 752.14,-133.2"/>
<text text-anchor="middle" x="639" y="-111" font-family="Times,serif" font-size="14.00">provideFirestore(() =&gt; getFirestore())</text>
</g>
<!-- provideFirestore(() =&gt; getFirestore())&#45;&gt;AppModule -->
<g id="edge5" class="edge">
<title>provideFirestore(() =&gt; getFirestore())&#45;&gt;AppModule</title>
<path fill="none" stroke="black" d="M625.06,-133.26C625.06,-133.26 625.06,-163.21 625.06,-163.21"/>
<polygon fill="black" stroke="black" points="621.56,-163.21 625.06,-173.21 628.56,-163.21 621.56,-163.21"/>
</g>
<!-- provideStorage(() =&gt; getStorage()) -->
<g id="node7" class="node">
<title>provideStorage(() =&gt; getStorage())</title>
<polygon fill="#8dd3c7" stroke="black" points="508.15,-133.2 505.15,-137.2 484.15,-137.2 481.15,-133.2 295.85,-133.2 295.85,-97.2 508.15,-97.2 508.15,-133.2"/>
<text text-anchor="middle" x="402" y="-111" font-family="Times,serif" font-size="14.00">provideStorage(() =&gt; getStorage())</text>
</g>
<!-- provideStorage(() =&gt; getStorage())&#45;&gt;AppModule -->
<g id="edge6" class="edge">
<title>provideStorage(() =&gt; getStorage())&#45;&gt;AppModule</title>
<path fill="none" stroke="black" d="M402,-133.21C402,-153.11 402,-182.4 402,-182.4 402,-182.4 587.17,-182.4 587.17,-182.4"/>
<polygon fill="black" stroke="black" points="587.17,-185.9 597.17,-182.4 587.17,-178.9 587.17,-185.9"/>
</g>
<!-- AuthService -->
<g id="node9" class="node">
<title>AuthService</title>
<ellipse fill="#fdb462" stroke="black" cx="213" cy="-115.2" rx="59.11" ry="18"/>
<text text-anchor="middle" x="213" y="-111" font-family="Times,serif" font-size="14.00">AuthService</text>
</g>
<!-- AuthService&#45;&gt;AppModule -->
<g id="edge8" class="edge">
<title>AuthService&#45;&gt;AppModule</title>
<path fill="none" stroke="black" d="M213,-133.26C213,-155.79 213,-191.4 213,-191.4 213,-191.4 586.99,-191.4 586.99,-191.4"/>
<polygon fill="black" stroke="black" points="586.99,-194.9 596.99,-191.4 586.99,-187.9 586.99,-194.9"/>
</g>
</g>
</svg>
