<svg xmlns="http://www.w3.org/2000/svg" width="104" height="104" viewBox="0 0 104 104" fill="none">
  <g clip-path="url(#clip0_126_979)">
    <path d="M52.9291 67.8892C62.2518 67.8892 69.8093 60.3316 69.8093 51.0089C69.8093 41.6862 62.2518 34.1287 52.9291 34.1287C43.6064 34.1287 36.0488 41.6862 36.0488 51.0089C36.0488 60.3316 43.6064 67.8892 52.9291 67.8892Z" fill="#A0616A"/>
    <path d="M38.957 71.669L42.4758 62.6765L60.6563 59.9397L62.6096 79.8457L44.2337 80.2367L38.957 71.669Z" fill="#A0616A"/>
    <path d="M69.9733 54.1233C69.7543 55.001 69.3114 57.0908 68.6198 57.1011C68.0548 57.1093 67.514 48.0432 68.0784 46.5436C68.7267 44.8208 67.023 42.6415 65.7396 41.5228C63.432 39.5113 58.3096 43.8305 53.101 41.8739C52.9629 41.8221 52.9904 41.8279 51.3456 41.1717C46.2845 39.1524 46.0184 39.0941 45.7285 39.0653C43.275 38.8225 40.2808 40.8302 39.0581 43.2781C37.7871 45.8227 38.8491 48.0053 37.6538 54.1614C37.5145 54.8789 37.2958 55.9016 36.9517 55.9167C36.3226 55.9441 35.7083 52.5839 35.5474 51.7039C34.8734 48.0166 34.2235 44.4616 35.5474 40.4696C35.6918 40.0342 36.5818 38.418 38.356 35.2035C40.9119 30.5727 42.1974 28.2486 42.5688 27.831C45.2331 24.8349 50.0826 22.1017 54.1542 23.2671C56.2121 23.8561 55.8431 24.803 58.367 25.7246C62.8649 27.3668 66.774 25.3584 67.4949 26.7778C67.8768 27.5296 66.8083 28.1495 66.7928 29.5863C66.7662 32.0517 69.8843 32.7642 71.7078 35.2035C72.688 36.5149 74.3659 36.5289 69.9733 54.1233Z" fill="#2F2E41"/>
    <path d="M90.886 86.5253C90.2057 87.2897 89.5 88.0385 88.7689 88.7696C78.9475 98.5908 65.8889 104 51.9994 104C39.9944 104 28.6111 99.9593 19.4016 92.521C19.3958 92.5171 19.3919 92.5131 19.386 92.5072C18.1642 91.5221 16.9815 90.4742 15.8398 89.3677C15.8613 89.1957 15.8848 89.0256 15.9102 88.8574C16.0705 87.7237 16.2484 86.6425 16.4478 85.6475C18.0801 77.4918 39.5585 68.9294 40.1176 68.7065C40.1254 68.7045 40.1293 68.7026 40.1293 68.7026C40.1293 68.7026 42.8936 78.8915 54.7382 78.7606C62.806 78.6726 61.2421 68.7026 61.2421 68.7026C61.2421 68.7026 61.3398 68.7221 61.5236 68.7612C63.8538 69.2559 80.0325 72.8098 86.4152 77.66C88.3603 79.1378 89.7561 82.2853 90.7589 86.0385C90.8019 86.1989 90.843 86.3631 90.886 86.5253Z" fill="#FECC51"/>
    <path d="M88.7695 15.2306C78.9481 5.40935 65.8895 0 52 0C38.1105 0 25.0519 5.40935 15.2305 15.2306C5.40921 25.052 0 38.1106 0 52C0 64.6776 4.50602 76.6629 12.7635 86.1265C13.5513 87.0316 14.3743 87.9132 15.2305 88.7696C15.4319 88.9708 15.6352 89.1723 15.8405 89.3677C16.9821 90.4742 18.1648 91.5221 19.3867 92.5072C19.3925 92.5131 19.3964 92.5171 19.4023 92.521C28.6118 99.9593 39.9951 104 52 104C65.8895 104 78.9481 98.5908 88.7695 88.7696C89.5006 88.0385 90.2063 87.2897 90.8867 86.5253C99.365 77.0012 104 64.8574 104 52C104 38.1106 98.5908 25.052 88.7695 15.2306ZM90.7596 86.0385C89.2211 87.7882 87.5672 89.4342 85.8078 90.9611C82.4708 93.864 78.7566 96.3427 74.751 98.3173C73.3454 99.0112 71.9047 99.6425 70.4307 100.208C64.7048 102.405 58.4902 103.609 52 103.609C45.7365 103.609 39.7311 102.487 34.1734 100.434C31.892 99.5937 29.6869 98.5948 27.5698 97.4511C27.2589 97.2831 26.9501 97.113 26.6432 96.9391C25.0284 96.0241 23.4665 95.0253 21.9671 93.9461C19.8187 92.4056 17.7934 90.7029 15.9108 88.8575C14.8552 87.8233 13.8465 86.7462 12.8827 85.6262C5.10032 76.5867 0.390977 64.8339 0.390977 52C0.390977 23.5428 23.5427 0.390977 52 0.390977C80.4573 0.390977 103.609 23.5428 103.609 52C103.609 65.0313 98.7551 76.9483 90.7596 86.0385Z" fill="#3F3D56"/>
  </g>
  <defs>
    <clipPath id="clip0_126_979">
      <rect width="104" height="104" fill="white"/>
    </clipPath>
  </defs>
</svg>