<svg xmlns="http://www.w3.org/2000/svg" width="104" height="104" viewBox="0 0 104 104" fill="none">
  <g clip-path="url(#clip0_126_987)">
    <path d="M58.0719 75.6972L60.547 60.2281L43.8403 53.4216L41.3652 76.9347L58.0719 75.6972Z" fill="#A0616A"/>
    <path d="M74.8613 98.5586C73.4269 99.2579 71.9653 99.8892 70.4817 100.449C67.5146 101.572 64.4518 102.419 61.3099 102.985C58.2389 103.539 55.086 103.821 51.9331 103.821C47.6736 103.821 43.4387 103.31 39.3432 102.299C37.7395 101.906 36.122 101.425 34.5319 100.864C34.3653 100.804 34.1959 100.744 34.0292 100.684C32.0566 99.9684 30.1167 99.1296 28.2507 98.1816C27.9993 98.0559 27.748 97.9273 27.4966 97.7907C27.218 97.6488 26.942 97.4986 26.6633 97.3427C26.3081 97.1488 25.9557 96.9465 25.6032 96.7416C24.423 96.0586 23.2618 95.3208 22.1525 94.5532L22.0787 94.5041C22.0132 94.4577 21.9476 94.4139 21.8848 94.3675C21.9257 94.1517 21.964 93.9548 21.9995 93.78C22.1361 93.0943 22.2263 92.7173 22.2263 92.7173L29.7069 77.264L31.7916 72.9582L32.8079 72.5401L40.4853 69.3845H59.2498L65.1704 71.8325C65.1704 71.8325 65.2005 71.9446 65.2606 72.1604C65.8507 74.2779 69.2932 86.2994 74.6346 98.0613C74.7083 98.2251 74.7849 98.3919 74.8613 98.5586Z" fill="#FECC51"/>
    <path d="M53.8493 65.2008C63.2585 65.2008 70.8861 57.5732 70.8861 48.164C70.8861 38.7548 63.2585 31.1272 53.8493 31.1272C44.4401 31.1272 36.8125 38.7548 36.8125 48.164C36.8125 57.5732 44.4401 65.2008 53.8493 65.2008Z" fill="#A0616A"/>
    <path d="M32.8384 72.3933L32.8091 72.5399L27.615 97.236L27.57 97.4511L27.4977 97.7912C27.2181 97.6485 26.9425 97.498 26.6649 97.3435C26.3091 97.148 25.9572 96.9467 25.6034 96.7414C24.4246 96.0592 23.2634 95.3202 22.153 94.5539L22.0787 94.5031C22.0142 94.4581 21.9477 94.4132 21.8852 94.3682C21.0368 93.7759 20.2098 93.1581 19.4025 92.5208C19.3966 92.5169 19.3927 92.513 19.3868 92.5071C17.9461 91.3459 16.5581 90.0968 15.2307 88.7694C14.3745 87.9132 13.5515 87.0315 12.7637 86.1264L12.8829 85.6259L12.8947 85.5751L13.0432 84.9378C14.3647 79.3566 18.8356 75.0735 24.4676 73.9944L31.9509 72.5614L32.8384 72.3933Z" fill="#FECC51"/>
    <path d="M85.8975 91.3371C83.6926 93.2142 81.3293 94.9138 78.8349 96.4055C78.5917 96.5531 78.3431 96.6977 78.0945 96.8426C77.0344 97.4546 75.9551 98.0256 74.8623 98.5584C73.4279 99.2577 71.9662 99.889 70.4827 100.449L70.3679 99.908L64.502 72.0154L65.2615 72.1603L72.8733 73.6192C78.5043 74.6984 82.9769 78.9824 84.2964 84.5641L85.7527 90.7307L85.8975 91.3371Z" fill="#FECC51"/>
    <path d="M73.4688 52.7183C73.0262 54.3685 70.7995 61.7427 65.0975 63.2944C63.9773 63.6005 61.3053 63.9529 62.0129 63.2944C62.1741 63.1442 62.3298 62.9967 62.4856 62.8518C68.6739 57.0324 71.1984 53.4752 70.0454 45.5792C69.3132 40.5519 60.9747 35.9865 56.2835 35.5329C54.3054 35.3418 51.7809 36.011 50.1143 37.7351C47.363 40.5764 47.8165 49.2977 46.292 54.4205C45.8822 55.7919 45.3331 56.9067 44.5434 57.5815C44.0516 58.0022 43.7374 57.4667 43.5052 56.5897C43.0107 54.7263 42.8823 51.314 42.1801 52.2783C40.1502 55.0734 42.0845 58.7781 42.6692 60.2072C42.7894 60.4996 42.9123 60.7808 43.0353 61.0487V61.0513C43.1063 61.2042 43.1801 61.3574 43.2511 61.5023V61.5049C45.2018 65.4828 47.5461 66.9063 49.6116 69.3844C50.423 70.3543 51.1908 71.4826 51.8766 72.9909C52.3465 74.0238 52.6853 75.0619 52.9175 76.0809C54.1005 81.1901 52.6962 85.8321 52.3164 87.0944C51.5214 89.7228 50.1553 94.2388 46.1472 96.7879C41.1145 99.9902 36.5218 97.1679 34.3252 100.209C34.2978 100.244 34.2732 100.28 34.2487 100.315C34.1667 100.438 34.0929 100.561 34.0301 100.684C32.0575 99.9684 30.1176 99.1295 28.2516 98.1815C28.0002 98.0558 27.7488 97.9272 27.4975 97.7906C27.2188 97.6487 26.9429 97.4985 26.6642 97.3427C26.6532 97.1295 26.6423 96.9165 26.6341 96.7007C26.4729 93.004 26.7161 88.9413 27.6368 84.8894C28.227 82.3022 28.8117 79.7365 29.7078 77.2639C30.2925 75.6521 31.0083 74.0782 31.9509 72.5619C32.705 71.3434 33.6011 70.1603 34.6885 69.0237C37.0765 66.5293 39.1994 65.4884 39.5354 62.8545C40.0162 59.0951 36.1011 57.964 34.6885 52.2783C33.7241 48.3905 32.7159 42.7869 33.694 39.011C34.6175 35.4429 35.4208 32.3474 38.101 29.3145C38.7458 28.5877 44.038 23.5332 50.169 22.7026C52.994 22.323 55.5131 25.9404 58.9283 26.719C62.8544 27.6125 65.1029 28.1235 67.2996 29.8036C71.0126 32.6395 72.059 36.88 73.0289 40.8197C73.7885 43.9017 74.7721 47.8879 73.4688 52.7183Z" fill="#2F2E41"/>
    <path d="M88.7695 15.2305C78.9481 5.40917 65.8895 0 52 0C38.1105 0 25.0519 5.40917 15.2305 15.2305C5.40917 25.0519 0 38.1105 0 52C0 64.6774 4.50601 76.6628 12.7635 86.1265C13.5513 87.0316 14.3743 87.9132 15.2305 88.7695C16.5579 90.0968 17.9459 91.346 19.3866 92.5072C19.3925 92.5131 19.3964 92.517 19.4023 92.5209C28.6117 99.9592 39.995 104 52 104C65.8895 104 78.9481 98.5908 88.7695 88.7695C98.5908 78.9481 104 65.8895 104 52C104 38.1105 98.5908 25.0519 88.7695 15.2305ZM85.8078 90.9609C82.4708 93.8639 78.7565 96.3427 74.751 98.3171C73.3454 99.0111 71.9047 99.6425 70.4307 100.208C64.7048 102.405 58.4902 103.609 52 103.609C45.7365 103.609 39.7311 102.487 34.1734 100.434C31.892 99.5937 29.6869 98.5947 27.5698 97.4511C27.2589 97.283 26.9501 97.1129 26.6432 96.9389C25.0284 96.0241 23.4665 95.0251 21.9671 93.946C18.6164 91.5415 15.5648 88.746 12.8827 85.626C5.10031 76.5866 0.390977 64.8338 0.390977 52C0.390977 23.5427 23.5427 0.390977 52 0.390977C80.4573 0.390977 103.609 23.5427 103.609 52C103.609 67.5374 96.7083 81.4934 85.8078 90.9609Z" fill="#3F3D56"/>
  </g>
  <defs>
    <clipPath id="clip0_126_987">
      <rect width="104" height="104" fill="white"/>
    </clipPath>
  </defs>
</svg>