<svg width="390" height="325" viewBox="0 0 390 325" fill="none" xmlns="http://www.w3.org/2000/svg">
<g clip-path="url(#clip0_176_14)">
<path d="M390 -11H-2V325H390V-11Z" fill="#FD9038"/>
<path d="M9 157V182C9 190.837 16.1634 198 25 198H56.8913C65.7279 198 72.8913 190.837 72.8913 182V157C72.8913 148.163 65.7279 141 56.8913 141H25C16.1634 141 9 148.163 9 157Z" fill="#B9723F"/>
<path d="M-46 76C-46 67.1634 -38.8366 60 -30 60H44.8183C53.6549 60 60.8183 67.1634 60.8183 76V108C60.8183 116.837 53.6548 124 44.8183 124H-30C-38.8366 124 -46 116.837 -46 108V76Z" fill="#3DC6C1"/>
<path d="M322 290.957V291.043C322 304.826 333.174 316 346.957 316H346.958C360.741 316 371.915 304.826 371.915 291.043V290.957C371.915 277.174 360.741 266 346.958 266H346.957C333.174 266 322 277.174 322 290.957Z" fill="#B9723F"/>
<path d="M355 120V195C355 203.837 362.163 211 371 211H402.891C411.728 211 418.891 203.837 418.891 195V120C418.891 111.163 411.728 104 402.891 104H371C362.163 104 355 111.163 355 120Z" fill="#FECC51"/>
<path d="M348 54C339.163 54 332 46.8366 332 38V0H396.742V38C396.742 46.8366 389.578 54 380.742 54H348Z" fill="#B9723F"/>
<path d="M26 239H-49C-57.8366 239 -65 246.163 -65 255V286.891C-65 295.728 -57.8366 302.891 -49 302.891H26C34.8366 302.891 42 295.728 42 286.891V255C42 246.163 34.8366 239 26 239Z" fill="#FECC51"/>
<path d="M231 24V49C231 57.8366 238.163 65 247 65H278.891C287.728 65 294.891 57.8366 294.891 49V24C294.891 15.1634 287.728 8 278.891 8H247C238.163 8 231 15.1634 231 24Z" fill="#3DC6C1"/>
<path d="M371 200V225C371 233.837 378.163 241 387 241H418.891C427.728 241 434.891 233.837 434.891 225V200C434.891 191.163 427.728 184 418.891 184H387C378.163 184 371 191.163 371 200Z" fill="#3DC6C1" fill-opacity="0.7"/>
<path d="M81 60.9575V61.0425C81 74.8261 92.1739 86 105.957 86H105.958C119.741 86 130.915 74.8261 130.915 61.0425V60.9575C130.915 47.1739 119.741 36 105.958 36H105.957C92.1739 36 81 47.1739 81 60.9575Z" fill="#FECC51"/>
<path d="M28 131.958V132.042C28 145.826 39.1739 157 52.9575 157H52.9576C66.7412 157 77.9151 145.826 77.9151 132.042V131.958C77.9151 118.174 66.7412 107 52.9576 107H52.9575C39.1739 107 28 118.174 28 131.958Z" fill="#1E9A96" fill-opacity="0.7"/>
</g>
<defs>
<clipPath id="clip0_176_14">
<rect width="390" height="325" fill="white"/>
</clipPath>
</defs>
</svg>
