<svg width="445" height="113" viewBox="0 0 445 113" fill="none" xmlns="http://www.w3.org/2000/svg">
<rect x="44" width="394" height="113" fill="#FD9038"/>
<path d="M0 66.2114C0 57.3749 7.16344 50.2114 16 50.2114H91.3008C100.137 50.2114 107.301 57.3749 107.301 66.2114V79.4725C107.301 88.3091 100.137 95.4725 91.3008 95.4725H16C7.16345 95.4725 0 88.3091 0 79.4725V66.2114Z" fill="#3DC6C1"/>
<path d="M396 46C387.163 46 380 38.8366 380 30V0L445 0V30C445 38.8366 437.837 46 429 46L396 46Z" fill="#B9723F"/>
<rect x="278.252" y="53.7476" width="40.3106" height="64.1799" rx="16" transform="rotate(-90 278.252 53.7476)" fill="#3DC6C1"/>
<rect x="127.574" y="68.5989" width="35.3602" height="50.1406" rx="17.6801" transform="rotate(-90 127.574 68.5989)" fill="#FECC51"/>
</svg>
