<svg width="390" height="325" viewBox="0 0 390 325" fill="none" xmlns="http://www.w3.org/2000/svg">
<rect x="-2" y="-11" width="392" height="336" fill="#FD9038"/>
<rect x="9" y="198" width="57" height="63.8913" rx="16" transform="rotate(-90 9 198)" fill="#B9723F"/>
<path d="M-46 76C-46 67.1634 -38.8366 60 -30 60H44.8183C53.6549 60 60.8183 67.1634 60.8183 76V108C60.8183 116.837 53.6548 124 44.8183 124H-30C-38.8366 124 -46 116.837 -46 108V76Z" fill="#3DC6C1"/>
<rect x="322" y="316" width="50" height="49.9151" rx="24.9575" transform="rotate(-90 322 316)" fill="#B9723F"/>
<rect x="355" y="211" width="107" height="63.8913" rx="16" transform="rotate(-90 355 211)" fill="#FECC51"/>
<path d="M348 54C339.163 54 332 46.8366 332 38V0L396.742 0V38C396.742 46.8366 389.578 54 380.742 54L348 54Z" fill="#B9723F"/>
<rect x="-65" y="239" width="107" height="63.8913" rx="16" fill="#FECC51"/>
<rect x="231" y="65" width="57" height="63.8913" rx="16" transform="rotate(-90 231 65)" fill="#3DC6C1"/>
<rect x="371" y="241" width="57" height="63.8913" rx="16" transform="rotate(-90 371 241)" fill="#3DC6C1" fill-opacity="0.7"/>
<rect x="81" y="86" width="50" height="49.9151" rx="24.9575" transform="rotate(-90 81 86)" fill="#FECC51"/>
<rect x="28" y="157" width="50" height="49.9151" rx="24.9575" transform="rotate(-90 28 157)" fill="#1E9A96" fill-opacity="0.7"/>
<g clip-path="url(#clip0_126_636)">
<path d="M168.162 237.453C168.236 236.93 168.199 236.396 168.052 235.889C167.905 235.382 167.652 234.914 167.312 234.519C166.971 234.124 166.55 233.811 166.08 233.602C165.609 233.393 165.1 233.293 164.588 233.309L142.143 209.872L137.709 216.274L161.166 237.298C161.249 238.185 161.644 239.009 162.277 239.615C162.909 240.221 163.735 240.566 164.597 240.585C165.46 240.604 166.299 240.296 166.956 239.719C167.613 239.141 168.042 238.335 168.162 237.453Z" fill="#FFB8B8"/>
<path d="M157.529 223.92L151.8 229.83C151.526 230.111 151.155 230.27 150.769 230.272C150.382 230.273 150.01 230.118 149.734 229.838L134.08 213.944C133.538 213.395 133.108 212.74 132.813 212.017C132.519 211.295 132.366 210.519 132.363 209.736C132.361 208.952 132.509 208.175 132.799 207.451C133.089 206.726 133.515 206.068 134.052 205.515C134.59 204.962 135.229 204.524 135.931 204.227C136.634 203.93 137.386 203.78 138.145 203.786C138.904 203.791 139.655 203.952 140.353 204.258C141.051 204.565 141.684 205.012 142.214 205.573L157.542 221.788C157.811 222.075 157.96 222.458 157.958 222.857C157.955 223.256 157.801 223.637 157.529 223.92Z" fill="#FEBF25"/>
<path d="M137.438 194.912C141.863 194.912 145.45 191.207 145.45 186.637C145.45 182.067 141.863 178.363 137.438 178.363C133.013 178.363 129.426 182.067 129.426 186.637C129.426 191.207 133.013 194.912 137.438 194.912Z" fill="#FFB8B8"/>
<path d="M110.365 285.794L112.394 289.353L126.653 282.966L123.659 277.712L110.365 285.794Z" fill="#FFB8B8"/>
<path d="M110.974 284.202L114.969 291.212C115.304 291.798 115.523 292.447 115.614 293.122C115.706 293.796 115.668 294.482 115.503 295.141C115.337 295.8 115.048 296.419 114.651 296.962C114.254 297.506 113.758 297.963 113.19 298.308L113.049 298.394L106.508 286.917L110.974 284.202Z" fill="#2F2E41"/>
<path d="M133.872 298.617H137.871L139.774 282.686L133.871 282.686L133.872 298.617Z" fill="#FFB8B8"/>
<path d="M132.852 297.268L140.728 297.268H140.728C141.387 297.268 142.04 297.402 142.649 297.663C143.258 297.923 143.811 298.305 144.277 298.786C144.743 299.268 145.113 299.839 145.365 300.468C145.617 301.097 145.747 301.771 145.747 302.452V302.62L132.852 302.621L132.852 297.268Z" fill="#2F2E41"/>
<path d="M117.792 288.965C117.562 288.965 117.335 288.909 117.129 288.802C116.924 288.695 116.746 288.539 116.61 288.347L112.753 282.937C112.635 282.772 112.551 282.584 112.506 282.385C112.46 282.185 112.455 281.978 112.489 281.776C112.523 281.575 112.597 281.382 112.705 281.21C112.814 281.039 112.954 280.891 113.12 280.778L130.283 268.939L119.927 240.816L142.073 242.704L142.819 266.87C142.889 269.071 142.378 271.25 141.341 273.175C140.304 275.099 138.78 276.695 136.932 277.794L118.525 288.761C118.303 288.894 118.05 288.965 117.792 288.965Z" fill="#2F2E41"/>
<path d="M133.993 295.383C133.613 295.382 133.248 295.229 132.975 294.956C132.702 294.684 132.542 294.312 132.528 293.92L131.717 270.378L141.767 269.831L140.967 293.543C140.955 293.918 140.808 294.276 140.555 294.546C140.301 294.816 139.96 294.979 139.597 295.003L134.093 295.379C134.059 295.382 134.026 295.383 133.993 295.383Z" fill="#2F2E41"/>
<path d="M144.637 247.379C142.08 247.379 133.149 244.409 130.048 243.35C129.584 243.733 127.036 245.701 124.062 245.342C122.226 245.119 120.611 244.046 119.259 242.153C116.276 237.97 119.961 220.035 123.578 205.725C124.303 202.833 126.086 200.344 128.552 198.78C131.017 197.217 133.973 196.702 136.799 197.344C138.847 197.81 140.728 198.858 142.232 200.368C143.735 201.879 144.801 203.792 145.309 205.893C145.99 208.756 145.404 212.124 144.977 214.583C144.776 215.739 144.617 216.652 144.671 217.101C144.881 218.836 146.047 246.038 145.297 247.199C145.217 247.323 144.987 247.379 144.637 247.379Z" fill="#FEBF25"/>
<path d="M135.283 247.427C135.693 247.111 136.032 246.706 136.275 246.24C136.518 245.774 136.659 245.259 136.689 244.731C136.718 244.203 136.635 243.674 136.445 243.183C136.255 242.691 135.963 242.249 135.59 241.887L135.748 208.924L128.23 210.216L130.439 242.211C129.891 242.899 129.607 243.771 129.639 244.661C129.672 245.552 130.02 246.398 130.617 247.041C131.214 247.684 132.019 248.078 132.879 248.15C133.739 248.221 134.594 247.964 135.283 247.427Z" fill="#FFB8B8"/>
<path d="M137.022 230.093H128.925C128.538 230.091 128.167 229.933 127.893 229.652C127.618 229.371 127.462 228.99 127.457 228.59L127.258 205.92C127.251 205.136 127.395 204.359 127.681 203.632C127.967 202.906 128.389 202.246 128.924 201.689C129.458 201.133 130.095 200.691 130.795 200.39C131.496 200.089 132.248 199.935 133.007 199.936C133.766 199.937 134.518 200.093 135.218 200.396C135.918 200.699 136.553 201.142 137.086 201.7C137.62 202.257 138.041 202.919 138.325 203.646C138.609 204.373 138.751 205.151 138.742 205.935L138.49 228.594C138.484 228.993 138.327 229.373 138.053 229.653C137.778 229.934 137.408 230.091 137.022 230.093Z" fill="#FEBF25"/>
<path d="M135.398 194.877C131.73 194.884 128.269 191.89 127.634 188.158C127.406 186.693 127.509 185.192 127.933 183.774C128.395 182.16 129.186 180.666 130.253 179.394C131.321 178.122 132.64 177.101 134.122 176.4C135.604 175.7 137.214 175.335 138.844 175.331C140.474 175.327 142.086 175.684 143.571 176.378C144.552 176.837 145.519 177.496 145.968 178.507C146.417 179.518 146.136 180.931 145.153 181.386C144.511 181.683 143.705 181.537 143.135 181.964C142.316 182.577 142.527 183.881 142.892 184.855C143.258 185.828 143.671 187.006 143.059 187.837C142.488 188.611 141.346 188.587 140.447 188.296C139.549 188.004 138.661 187.516 137.724 187.616C136.357 187.76 135.375 189.165 135.193 190.571C135.011 191.978 135.439 193.384 135.862 194.734L135.398 194.877Z" fill="#2F2E41"/>
<path d="M235.656 203.322C235.656 180.694 253.418 127 275.328 127C297.238 127 315 180.694 315 203.322C315 214.188 310.821 224.609 303.381 232.293C295.941 239.977 285.85 244.293 275.328 244.293C264.807 244.293 254.716 239.977 247.276 232.293C239.836 224.609 235.656 214.188 235.656 203.322Z" fill="#FEBF25"/>
<path d="M275.328 303C275.242 303 275.159 302.965 275.098 302.901C275.036 302.838 275.002 302.753 275.002 302.663V161.408C275.002 161.319 275.036 161.233 275.098 161.17C275.159 161.107 275.242 161.072 275.328 161.072C275.415 161.072 275.498 161.107 275.559 161.17C275.62 161.233 275.654 161.319 275.654 161.408V302.663C275.654 302.753 275.62 302.838 275.559 302.901C275.498 302.965 275.415 303 275.328 303Z" fill="#3F3D56"/>
<path d="M275.328 188.679C275.285 188.679 275.242 188.67 275.203 188.653C275.163 188.636 275.127 188.611 275.097 188.58L259.395 172.364C259.334 172.3 259.301 172.215 259.301 172.126C259.301 172.037 259.335 171.952 259.396 171.889C259.457 171.826 259.54 171.79 259.626 171.79C259.712 171.79 259.795 171.825 259.856 171.887L275.558 188.103C275.604 188.151 275.635 188.211 275.648 188.276C275.66 188.341 275.654 188.409 275.629 188.471C275.604 188.532 275.562 188.585 275.509 188.622C275.455 188.659 275.392 188.679 275.328 188.679Z" fill="#3F3D56"/>
<path d="M275.328 216.752C275.264 216.752 275.201 216.732 275.147 216.695C275.093 216.658 275.051 216.606 275.027 216.544C275.002 216.482 274.996 216.415 275.008 216.349C275.021 216.284 275.052 216.224 275.097 216.177L301.394 189.02C301.455 188.957 301.538 188.922 301.624 188.923C301.71 188.923 301.792 188.958 301.853 189.021C301.914 189.084 301.949 189.169 301.949 189.258C301.949 189.347 301.915 189.433 301.855 189.496L275.559 216.653C275.529 216.685 275.493 216.709 275.453 216.726C275.413 216.743 275.371 216.752 275.328 216.752Z" fill="#3F3D56"/>
<path d="M165.539 237.261C170.744 236.046 176.641 240.251 176.823 245.895C176.875 247.483 176.424 249.15 175.241 250.23C174.265 251.122 172.811 251.571 171.549 251.136C169.12 250.297 168.99 246.801 170.293 244.934C172.058 242.405 175.553 241.974 178.327 242.274C181.719 242.642 184.942 244.178 187.647 246.283C193.061 250.496 196.509 256.955 199.3 263.194C202.157 269.595 204.234 276.337 205.485 283.266C205.642 284.137 205.786 285.009 205.917 285.884C205.954 286.012 206.039 286.12 206.152 286.185C206.266 286.249 206.399 286.265 206.524 286.228C206.647 286.188 206.75 286.1 206.812 285.984C206.874 285.867 206.89 285.73 206.857 285.602C205.715 278.041 203.605 270.67 200.583 263.683C197.661 256.92 193.977 249.906 188.116 245.393C185.195 243.143 181.745 241.578 178.094 241.243C175.021 240.961 171.381 241.633 169.47 244.393C167.962 246.571 168.115 250.191 170.448 251.708C171.731 252.541 173.361 252.444 174.693 251.796C175.4 251.435 176.022 250.92 176.517 250.287C177.012 249.653 177.367 248.916 177.559 248.126C178.387 244.992 177.129 241.601 174.973 239.36C172.948 237.251 170.198 236.057 167.322 236.038C166.63 236.045 165.941 236.13 165.266 236.291C164.651 236.434 164.926 237.405 165.539 237.261Z" fill="#CCCCCC"/>
<path d="M190.639 299.339L187.404 293.636L191.392 291.223L194.627 296.926C194.937 297.472 195.024 298.123 194.869 298.736C194.714 299.348 194.33 299.872 193.801 300.192C193.272 300.512 192.642 300.601 192.049 300.441C191.456 300.281 190.948 299.885 190.639 299.339Z" fill="#FEBF25"/>
<path d="M179.946 287.485C181.517 287.485 182.79 286.17 182.79 284.547C182.79 282.925 181.517 281.61 179.946 281.61C178.375 281.61 177.102 282.925 177.102 284.547C177.102 286.17 178.375 287.485 179.946 287.485Z" fill="#FEBF25"/>
<path d="M203.154 299.339L199.92 293.636L203.908 291.223L207.142 296.926C207.451 297.472 207.538 298.123 207.383 298.735C207.228 299.346 206.844 299.87 206.315 300.19C205.787 300.509 205.157 300.599 204.564 300.44C203.971 300.28 203.464 299.884 203.154 299.339Z" fill="#FEBF25"/>
<path d="M180.486 290.465C180.488 288.81 181.125 287.223 182.259 286.053C183.392 284.883 184.928 284.225 186.53 284.223H205.663C206.34 284.224 206.99 284.502 207.469 284.997C207.948 285.491 208.217 286.162 208.218 286.861V289.11C208.215 291.124 207.44 293.055 206.061 294.479C204.682 295.903 202.812 296.704 200.861 296.707H186.53C184.928 296.705 183.392 296.047 182.259 294.876C181.125 293.706 180.488 292.12 180.486 290.465Z" fill="#3F3D56"/>
<path d="M184.898 300.074V293.465H189.52V300.074C189.52 300.707 189.277 301.314 188.843 301.762C188.41 302.209 187.822 302.461 187.209 302.461C186.596 302.461 186.009 302.209 185.575 301.762C185.142 301.314 184.898 300.707 184.898 300.074Z" fill="#3F3D56"/>
<path d="M198.309 300.074V293.465H202.93V300.074C202.931 300.388 202.871 300.698 202.755 300.988C202.639 301.278 202.469 301.541 202.255 301.763C202.04 301.985 201.785 302.161 201.505 302.281C201.224 302.402 200.923 302.463 200.62 302.463C200.316 302.463 200.015 302.402 199.735 302.281C199.454 302.161 199.199 301.985 198.984 301.763C198.77 301.541 198.6 301.278 198.484 300.988C198.368 300.698 198.308 300.388 198.309 300.074Z" fill="#3F3D56"/>
<path d="M217.115 273.925C217.588 273.32 218.274 272.933 219.023 272.849C219.772 272.765 220.522 272.992 221.11 273.479C221.697 273.966 222.073 274.674 222.156 275.448C222.238 276.221 222.02 276.997 221.55 277.604L216.875 283.616L212.439 279.937L217.115 273.925Z" fill="#FEBF25"/>
<path d="M205.851 285.768L209.597 280.952C210.508 279.784 211.83 279.036 213.274 278.873C214.717 278.711 216.165 279.146 217.298 280.084L218.468 281.054C219.817 282.176 220.68 283.804 220.868 285.582C221.056 287.359 220.553 289.142 219.471 290.537L216.385 294.505C216.044 294.943 215.549 295.222 215.008 295.283C214.468 295.344 213.926 295.181 213.501 294.83L206.166 288.746C205.743 288.394 205.472 287.882 205.413 287.324C205.354 286.766 205.511 286.206 205.851 285.768Z" fill="#3F3D56"/>
<path d="M217.671 273.21C217.832 273.003 218.031 272.831 218.256 272.704C218.481 272.576 218.728 272.496 218.984 272.467C219.239 272.438 219.497 272.462 219.744 272.536C219.99 272.61 220.22 272.734 220.42 272.9C220.62 273.066 220.787 273.271 220.911 273.504C221.034 273.736 221.112 273.992 221.14 274.255C221.168 274.519 221.145 274.786 221.073 275.04C221.001 275.295 220.881 275.532 220.72 275.739L215.489 282.467L212.439 279.937L217.671 273.21Z" fill="#3F3D56"/>
<path d="M210.175 284.455L218.214 291.123C218.8 291.611 219.174 292.32 219.255 293.093C219.336 293.866 219.116 294.641 218.645 295.248C218.173 295.854 217.488 296.242 216.74 296.328C215.991 296.413 215.24 296.189 214.652 295.703L206.613 289.035L210.175 284.455Z" fill="#3F3D56"/>
<path d="M218.994 295.47C219.409 294.936 219.513 294.311 219.226 294.072C218.939 293.834 218.369 294.074 217.954 294.608C217.54 295.141 217.436 295.767 217.723 296.005C218.01 296.243 218.579 296.003 218.994 295.47Z" fill="#FEBF25"/>
<path d="M298.74 302.937H73.3262C73.2397 302.937 73.1567 302.902 73.0955 302.839C73.0344 302.776 73 302.69 73 302.601C73 302.511 73.0344 302.426 73.0955 302.362C73.1567 302.299 73.2397 302.264 73.3262 302.264H298.74C298.826 302.264 298.909 302.299 298.97 302.362C299.031 302.426 299.066 302.511 299.066 302.601C299.066 302.69 299.031 302.776 298.97 302.839C298.909 302.902 298.826 302.937 298.74 302.937Z" fill="#CCCCCC"/>
</g>
<defs>
<clipPath id="clip0_126_636">
<rect width="242" height="176" fill="white" transform="translate(73 127)"/>
</clipPath>
</defs>
</svg>
