<svg width="430" height="210" viewBox="0 0 430 210" fill="none" xmlns="http://www.w3.org/2000/svg">
<path d="M337.606 0C337.497 5.83363 338.944 11.6759 341.946 17.5268C342.257 18.1481 342.156 18.7263 341.643 19.2613C341.083 19.8309 341.122 20.34 341.76 20.7888C342.444 21.272 342.95 21.8675 343.276 22.5751" stroke="#FCBB25" stroke-width="2"/>
<path d="M-166.113 0H337.607C337.498 5.83363 338.945 11.6759 341.947 17.5268C342.258 18.1481 342.157 18.7263 341.643 19.2613C341.083 19.8309 341.122 20.34 341.76 20.7888C342.445 21.272 342.95 21.8675 343.277 22.5751C319.267 24.931 297.077 36.6587 274.63 44.9431C236.052 59.1302 200.656 67.9497 168.44 71.4016C148.078 73.5762 124.791 72.765 98.5802 68.968C80.0536 66.2756 61.0136 63.8679 42.4636 59.8551C-25.1565 45.2193 -92.0298 27.1229 -158.157 5.56611C-161.75 4.39248 -165.164 3.51226 -168.4 2.92544C-171.387 2.39041 -171.425 1.66552 -168.517 0.750778L-166.113 0Z" fill="#FED23D"/>
<path d="M337.606 0H533.583C533.63 1.58785 533.225 2.54574 532.37 2.87367C531.779 3.08078 531.709 3.42596 532.16 3.90922C533.233 5.06559 533.598 6.45496 533.256 8.07733C533.155 8.52298 533.157 8.99275 533.263 9.44457C533.369 9.89639 533.575 10.3161 533.863 10.6662C537.083 14.6013 537.083 20.6076 538.693 25.0087C539.93 28.426 540.046 31.1702 540.326 34.5617C540.529 37.0988 541.096 39.4374 542.03 41.5776C543.896 45.8233 545.973 48.8523 546.16 53.7971C546.284 56.8693 546.572 59.9155 547.023 62.9359C547.241 64.3684 548.073 66.6121 549.52 69.667C551.083 73.0326 551.223 79.1164 551.526 83.0516C551.604 83.9836 552.055 84.4496 552.88 84.4496H554.023C555.143 84.4496 555.524 85.0277 555.166 86.1841L553.743 90.9218C553.494 91.733 553.486 92.5442 553.72 93.3553C556.177 102.106 558.363 110.943 560.276 119.866C562.252 129.082 564.414 138.247 566.763 147.36C567.214 149.068 567.836 150.837 568.63 152.667C570.846 157.793 571.71 163.488 574.02 167.967C574.393 168.675 574.58 169.443 574.58 170.271L574.486 176.07C550.173 199.733 515.406 215.887 483.976 206.438C452.336 196.911 437.94 165.792 429.516 132.318C417.22 83.3363 403.826 18.64 343.276 22.5751C342.95 21.8675 342.444 21.272 341.76 20.7888C341.122 20.34 341.083 19.8309 341.643 19.2613C342.156 18.7263 342.257 18.1481 341.946 17.5268C338.944 11.6759 337.497 5.83363 337.606 0Z" fill="#FAA30C"/>
</svg>
