<svg width="430" height="321" viewBox="0 0 430 321" fill="none" xmlns="http://www.w3.org/2000/svg">
<rect width="430" height="321" fill="#FD9038"/>
<rect x="54.3887" y="100" width="106.818" height="64" rx="16" fill="#3DC6C1"/>
<rect x="14.457" y="231" width="57" height="63.8913" rx="16" transform="rotate(-90 14.457 231)" fill="#B9723F"/>
<rect x="64.3711" y="253" width="107" height="63.8913" rx="16" transform="rotate(-90 64.3711 253)" fill="#1E9A96" fill-opacity="0.7"/>
<path d="M360.428 186C360.428 177.163 367.591 170 376.428 170H430.001V234H376.428C367.591 234 360.428 226.837 360.428 218V186Z" fill="#3DC6C1"/>
<rect x="343.896" y="209" width="107" height="63.8913" rx="16" transform="rotate(-90 343.896 209)" fill="#FECC51" fill-opacity="0.7"/>
<rect x="299.971" y="259" width="50" height="49.9151" rx="24.9575" transform="rotate(-90 299.971 259)" fill="#B9723F"/>
<path d="M44.4492 0L150.741 0V2C150.741 10.8366 143.578 18 134.741 18L60.4492 18C51.6126 18 44.4492 10.8366 44.4492 2V0Z" fill="#3DC6C1"/>
<path d="M344.539 54C335.703 54 328.539 46.8366 328.539 38V0L393.281 0V38C393.281 46.8366 386.117 54 377.281 54L344.539 54Z" fill="#B9723F"/>
<rect x="191.156" y="212" width="57" height="63.8913" rx="16" transform="rotate(-90 191.156 212)" fill="#3DC6C1"/>
<rect x="277.01" y="114" width="57" height="63.8913" rx="16" transform="rotate(-90 277.01 114)" fill="#3DC6C1"/>
<rect x="97.3145" y="85" width="57" height="63.8913" rx="16" transform="rotate(-90 97.3145 85)" fill="#B9723F"/>
<rect x="170.191" y="130" width="50" height="49.9151" rx="24.9575" transform="rotate(-90 170.191 130)" fill="#1E9A96"/>
<path d="M240.123 26C226.514 26 215.482 14.9681 215.482 1.35956V0L264.763 0V1.35956C264.763 14.9681 253.731 26 240.123 26Z" fill="#FECC51"/>
<path d="M0 62L0 12H10.7528C24.5599 12 35.7528 23.1929 35.7528 37C35.7528 50.8071 24.5599 62 10.7528 62H0Z" fill="#FECC51"/>
<rect x="300.969" y="76" width="50" height="49.9151" rx="24.9575" transform="rotate(-90 300.969 76)" fill="#FECC51" fill-opacity="0.7"/>
<rect x="223.102" y="185" width="57" height="63.8913" rx="16" transform="rotate(-90 223.102 185)" fill="#FECC51" fill-opacity="0.7"/>
</svg>
