<svg width="430" height="932" viewBox="0 0 430 932" fill="none" xmlns="http://www.w3.org/2000/svg">
<mask id="mask0_130_174" style="mask-type:luminance" maskUnits="userSpaceOnUse" x="0" y="0" width="430" height="972">
<path d="M430 0H0V972H430V0Z" fill="white"/>
</mask>
<g mask="url(#mask0_130_174)">
<mask id="mask1_130_174" style="mask-type:luminance" maskUnits="userSpaceOnUse" x="-181" y="0" width="840" height="972">
<path d="M659 0H-181V972H659V0Z" fill="white"/>
</mask>
<g mask="url(#mask1_130_174)">
<path d="M337.605 0C337.496 6.084 338.943 12.177 341.945 18.279C342.256 18.927 342.155 19.53 341.642 20.088C341.082 20.682 341.121 21.213 341.759 21.681C342.443 22.185 342.949 22.806 343.275 23.544" stroke="#FCBB25" stroke-width="2"/>
<path d="M33 896.221C31.9887 897.253 30.5418 897.354 28.6592 896.524C27.986 896.233 27.2222 896.08 26.4422 896.079H17.4573C16.6016 896.079 15.8236 895.907 15.1235 895.564C12.253 894.212 8.19232 894.194 5.83532 893.678C-0.489173 892.291 -7.25693 892.665 -12.9046 891.935C-20.4192 890.963 -25.4756 890.602 -28.0739 890.851C-33.597 891.372 -39.0269 891.035 -44.3633 889.837C-45.2657 889.636 -46.1525 889.547 -47.0238 889.57C-47.6617 889.594 -48.1985 889.434 -48.634 889.09L-49.8009 888.201C-50.3299 887.798 -50.2599 887.472 -49.5909 887.223C-47.4283 886.417 -46.8993 885.154 -48.0039 883.435C-49.0152 881.846 -50.9055 879.961 -53.6749 877.78C-53.9706 877.543 -54.1339 877.264 -54.165 876.944C-54.1806 876.73 -54.2506 876.547 -54.375 876.392C-55.153 875.515 -55.3786 875.639 -55.0519 876.766C-54.6785 878.064 -54.6784 878.669 -53.6982 879.843C-52.6558 881.076 -52.5392 882.439 -53.3482 883.933C-53.6438 884.466 -54.165 884.686 -54.9118 884.591C-79.6338 881.425 -104.356 878.265 -129.078 875.112C-129.358 875.077 -129.584 875.142 -129.755 875.307C-129.864 875.426 -130.019 875.474 -130.222 875.45L-160 871.448" stroke="#FF7844" stroke-width="2"/>
<path d="M332 912C316.07 917.75 299.334 921.726 281.792 923.928C280.932 924.034 280.249 924.334 279.743 924.826C278.715 925.82 278.754 926.877 279.859 928" stroke="#FCA624" stroke-width="2"/>
<path d="M280 927.681C264.487 922.179 248.211 919.54 231.173 919.766C228.749 919.789 225.974 920.08 222.849 920.637C215.738 921.9 208.905 922.558 202.283 924.409C194.526 926.579 186.8 928.79 179.105 931.043C166.156 934.838 153.627 939.292 141.518 944.403C132.914 948.032 117.197 947.729 107.661 948.227C93.7633 948.956 83.7831 946.164 69 939.884" stroke="#FEA549" stroke-width="2"/>
<path d="M69 940.454C61.7952 936.344 55.8152 931.299 51.0597 925.319C50.6621 924.82 50.4076 924.227 50.2963 923.542C50.2167 923.008 49.8827 922.579 49.2943 922.254C45.668 920.251 44.165 916.036 42.1134 913.319C37.9145 907.763 36.006 901.946 33 896.093" stroke="#FF9A44" stroke-width="2"/>
<path d="M69 940.454C66.1183 940.155 63.9299 939.184 62.4344 937.541C61.056 936.059 59.1634 935.145 58.112 933.939C57.6135 933.364 56.9983 933.088 56.2662 933.111C55.316 933.146 55.1758 933.415 55.8455 933.921L56.383 934.318C56.436 934.353 56.4726 934.401 56.4879 934.453C56.5031 934.505 56.4962 934.559 56.4681 934.608C56.4399 934.657 56.392 934.699 56.3308 934.727C56.2695 934.755 56.198 934.769 56.126 934.766C55.5808 934.766 54.9967 934.726 54.3737 934.645C53.7039 934.565 53.0885 934.387 52.5277 934.11C48.4623 932.094 42.2238 931.818 37.4807 931.129C32.8312 930.422 30.4947 932.559 24.8871 931.042C18.2047 929.233 11.1486 929.25 3.01759 929.163C-1.74884 929.13 -6.1648 927.992 -11.0248 927.612C-22.3801 926.733 -33.3849 925.061 -44.6001 923.458C-44.6312 923.447 -44.6468 923.452 -44.6468 923.475C-44.6468 923.487 -44.6468 923.498 -44.6468 923.51C-44.6624 923.545 -44.639 923.561 -44.5767 923.561C-42.7542 923.378 -40.9084 923.561 -39.0392 924.113C-38.6809 924.216 -38.4395 924.131 -38.3149 923.854L-38.1513 923.423C-38.0267 923.148 -38.1514 922.975 -38.5252 922.907C-44.7558 921.746 -50.9787 920.803 -57.1937 920.08C-59.9742 919.752 -62.0302 918.597 -64.7173 917.873C-65.4805 917.655 -66.2594 917.626 -67.0537 917.787C-68.1285 918.017 -69.0553 917.764 -69.8342 917.029C-69.9289 916.946 -70.0588 916.889 -70.203 916.867C-70.3471 916.845 -70.4971 916.859 -70.6285 916.908L-71.166 917.115C-71.68 917.31 -72.1706 917.287 -72.638 917.046C-73.261 916.724 -73.8139 916.322 -74.2968 915.839C-74.4681 915.667 -74.4838 915.483 -74.3436 915.288L-73.3622 913.926C-73.2064 913.696 -73.2064 913.466 -73.3622 913.236C-73.4402 913.099 -73.5492 912.978 -73.6894 912.874C-74.546 912.242 -74.4681 911.691 -73.4557 911.22C-72.5834 910.818 -72.4978 910.525 -73.1987 910.341C-73.9152 910.156 -73.9541 909.909 -73.3155 909.599L-71.8669 908.91C-70.8856 908.439 -70.9712 908.272 -72.1239 908.41C-74.9899 908.755 -77.5446 908.318 -79.7876 907.1C-80.0708 906.945 -80.4173 906.862 -80.7752 906.865C-81.1331 906.868 -81.4833 906.957 -81.7736 907.117L-83.4792 908.065C-83.6039 908.123 -83.6116 908.192 -83.5026 908.272L-83.012 908.634C-82.9297 908.698 -82.8756 908.777 -82.8556 908.863C-82.8355 908.95 -82.8502 909.041 -82.8982 909.125C-82.9461 909.21 -83.0254 909.286 -83.1277 909.345C-83.23 909.405 -83.3515 909.445 -83.4792 909.461L-120.746 913.702C-121.249 913.758 -121.762 913.701 -122.217 913.537C-122.672 913.374 -123.047 913.113 -123.293 912.788C-123.9 911.995 -124.719 911.731 -125.746 911.995C-126.478 912.179 -127.211 912.19 -127.943 912.03C-134.095 910.651 -137.982 909.628 -139.602 908.962C-142.717 907.674 -145.49 907.054 -147.92 907.1C-148.605 907.123 -149.228 906.991 -149.788 906.704C-152.312 905.44 -154.983 904.509 -157.803 903.911C-158.566 903.75 -159.181 903.434 -159.649 902.963C-163.838 898.861 -169.431 896.976 -176.424 897.31C-181.923 897.585 -186.658 897.522 -190.631 897.12C-194.789 896.706 -196.752 899.55 -199.135 900.86C-201.067 901.918 -203.021 903.015 -205 904.153" stroke="#FF9751" stroke-width="2"/>
<path d="M326 965.099C322.864 958.537 318.539 952.637 313.027 947.399C312.778 947.184 312.476 947.058 312.118 947.022C311.839 947.011 311.614 946.921 311.443 946.754C302.934 938.318 292.453 931.947 280 927.639" stroke="#FCA331" stroke-width="2"/>
<path d="M339 914.219C362.73 925.592 386.651 929.375 410.762 925.567C436.191 921.556 455.937 909.701 470 890" stroke="#F68913" stroke-width="2"/>
<path d="M-166.113 0H337.607C337.498 6.084 338.945 12.177 341.947 18.279C342.258 18.927 342.157 19.53 341.643 20.088C341.083 20.682 341.122 21.213 341.76 21.681C342.445 22.185 342.95 22.806 343.277 23.544C319.267 26.001 297.077 38.232 274.63 46.872C236.052 61.668 200.656 70.866 168.44 74.4661C148.078 76.734 124.791 75.888 98.5797 71.928C80.0531 69.1201 61.0131 66.609 42.4631 62.424C-25.157 47.16 -92.0303 28.287 -158.157 5.805C-161.75 4.581 -165.164 3.663 -168.4 3.051C-171.387 2.493 -171.425 1.737 -168.517 0.783L-166.113 0Z" fill="#FED23D"/>
<path d="M337.605 0H533.582C533.629 1.656 533.224 2.655 532.369 2.997C531.778 3.213 531.708 3.573 532.159 4.077C533.232 5.283 533.597 6.732 533.255 8.424C533.154 8.88877 533.156 9.3787 533.262 9.84992C533.368 10.3211 533.574 10.7589 533.862 11.124C537.082 15.228 537.082 21.492 538.692 26.082C539.929 29.646 540.045 32.508 540.325 36.045C540.528 38.691 541.095 41.13 542.029 43.362C543.895 47.79 545.972 50.949 546.159 56.106C546.283 59.31 546.571 62.487 547.022 65.637C547.24 67.131 548.072 69.471 549.519 72.657C551.082 76.167 551.222 82.5119 551.525 86.616C551.603 87.588 552.054 88.074 552.879 88.074H554.022C555.142 88.074 555.523 88.677 555.165 89.883L553.742 94.824C553.493 95.67 553.485 96.5161 553.719 97.362C556.176 106.488 558.362 115.704 560.275 125.01C562.251 134.622 564.413 144.18 566.762 153.684C567.213 155.466 567.835 157.311 568.629 159.219C570.845 164.565 571.709 170.505 574.019 175.176C574.392 175.914 574.579 176.715 574.579 177.579L574.485 183.627C550.172 208.305 515.405 225.153 483.975 215.298C452.335 205.362 437.939 172.908 429.515 137.997C417.219 86.913 403.825 19.44 343.275 23.544C342.949 22.806 342.443 22.185 341.759 21.681C341.121 21.213 341.082 20.682 341.642 20.088C342.155 19.53 342.256 18.927 341.945 18.279C338.943 12.177 337.496 6.084 337.605 0Z" fill="#FAA30C"/>
<path d="M14.0145 854.273C23.399 867.592 30.3942 881.581 35 896.238C33.9782 897.155 32.5163 897.244 30.6143 896.507C29.9341 896.248 29.1623 896.112 28.3742 896.111H19.2962C18.4316 896.111 17.6457 895.959 16.9383 895.653C14.038 894.452 9.93526 894.436 7.55382 893.977C1.16379 892.745 -5.67409 893.077 -11.3803 892.429C-18.9728 891.565 -24.0816 891.243 -26.7067 891.464C-32.2871 891.928 -37.7733 891.627 -43.165 890.563C-44.0767 890.384 -44.9727 890.305 -45.853 890.326C-46.4976 890.347 -47.0399 890.205 -47.48 889.9L-48.659 889.11C-49.1935 888.751 -49.1227 888.461 -48.4468 888.24C-46.2618 887.523 -45.7273 886.401 -46.8434 884.873C-47.8651 883.462 -49.775 881.786 -52.5731 879.847C-52.8718 879.636 -53.0368 879.389 -53.0683 879.104C-53.084 878.914 -53.1548 878.751 -53.2805 878.614C-54.0665 877.834 -54.2944 877.945 -53.9643 878.946C-53.5871 880.1 -53.587 880.637 -52.5966 881.681C-51.5435 882.777 -51.4256 883.988 -52.243 885.316C-52.5417 885.79 -53.0683 885.985 -53.8228 885.901C-78.801 883.087 -103.779 880.279 -128.757 877.476C-129.04 877.444 -129.269 877.502 -129.441 877.65C-129.552 877.756 -129.708 877.798 -129.913 877.776L-160 874.22C-143.463 862.081 -125.457 851.465 -105.98 842.371C-101.327 841.665 -96.7133 840.532 -92.1389 838.973C-84.3421 836.306 -79.98 834.858 -79.0525 834.626C-50.8989 827.482 -13.4552 830.453 4.81862 847.492C8.73273 851.138 11.7981 853.398 14.0145 854.273Z" fill="#FF643B"/>
<path d="M335 913.483C318.752 919.549 301.68 923.742 283.787 926.065C282.911 926.177 282.214 926.494 281.698 927.012C280.648 928.061 280.688 929.176 281.815 930.361C266.192 925.129 249.802 922.621 232.645 922.835C230.203 922.858 227.409 923.133 224.262 923.664C217.101 924.864 210.22 925.49 203.551 927.249C195.74 929.312 187.96 931.414 180.211 933.557C167.171 937.164 154.553 941.397 142.359 946.256C133.695 949.707 117.868 949.419 108.264 949.892C94.2691 950.586 84.2188 947.931 69.3319 941.961C62.2405 937.97 56.3545 933.071 51.6738 927.266C51.2825 926.781 51.032 926.206 50.9225 925.54C50.8442 925.022 50.5154 924.605 49.9363 924.29C46.3671 922.344 44.8878 918.252 42.8683 915.614C38.7357 910.219 36.8571 904.571 33.8985 898.889C29.3117 883.207 22.3456 868.241 13 853.99C23.144 848.906 34.6734 844.87 47.5881 841.882C63.3207 838.252 77.918 835.941 91.3809 834.948C145.248 830.98 194.277 839.464 238.468 860.4C252.244 866.927 266.959 875.067 282.614 884.819C294.26 892.08 311.722 901.634 335 913.483Z" fill="#FEA83B"/>
<path d="M-159.486 871.448L-129.671 875.389C-129.469 875.413 -129.314 875.366 -129.205 875.249C-129.033 875.086 -128.807 875.022 -128.527 875.056C-103.776 878.162 -79.0243 881.274 -54.2732 884.391C-53.5255 884.485 -53.0036 884.269 -52.7077 883.743C-51.8977 882.272 -52.0145 880.93 -53.0581 879.715C-54.0395 878.559 -54.0394 877.964 -54.4133 876.685C-54.7404 875.576 -54.5146 875.453 -53.7357 876.317C-53.6112 876.469 -53.541 876.65 -53.5255 876.86C-53.4943 877.176 -53.3307 877.45 -53.0348 877.684C-50.2621 879.832 -48.3696 881.689 -47.3571 883.253C-46.2511 884.946 -46.7807 886.19 -48.946 886.984C-49.6157 887.229 -49.6859 887.55 -49.1562 887.947L-47.988 888.823C-47.5518 889.161 -47.0145 889.319 -46.3758 889.295C-45.5035 889.272 -44.6156 889.36 -43.7122 889.558C-38.3694 890.738 -32.9332 891.07 -27.4035 890.556C-24.8022 890.312 -19.7398 890.667 -12.2163 891.625C-6.56203 892.343 0.213806 891.975 6.54565 893.341C8.90555 893.849 12.971 893.867 15.8449 895.198C16.5459 895.536 17.3247 895.705 18.1814 895.705H27.1769C27.9578 895.706 28.7226 895.857 29.3965 896.144C31.2813 896.961 32.7299 896.862 33.7424 895.845C36.6864 901.731 38.5556 907.58 42.6678 913.168C44.6772 915.899 46.1491 920.138 49.7006 922.153C50.2769 922.479 50.6041 922.911 50.682 923.448C50.791 924.137 51.0403 924.733 51.4297 925.235C56.0871 931.248 61.9438 936.321 69 940.454C66.1183 940.151 63.9299 939.164 62.4344 937.495C61.056 935.989 59.1634 935.06 58.112 933.834C57.6135 933.251 56.9983 932.97 56.2662 932.994C55.316 933.029 55.1758 933.303 55.8455 933.817L56.383 934.22C56.436 934.256 56.4726 934.304 56.4879 934.357C56.5031 934.41 56.4962 934.465 56.4681 934.515C56.4399 934.565 56.392 934.607 56.3308 934.636C56.2695 934.664 56.198 934.678 56.126 934.675C55.5808 934.675 54.9967 934.634 54.3737 934.552C53.7039 934.471 53.0885 934.29 52.5277 934.009C48.4623 931.96 42.2238 931.68 37.4807 930.98C32.8312 930.261 30.4947 932.433 24.8871 930.892C18.2047 929.053 11.1486 929.071 3.01759 928.983C-1.74884 928.948 -6.16479 927.792 -11.0248 927.406C-22.3801 926.513 -33.3849 924.815 -44.6001 923.186C-44.6312 923.174 -44.6468 923.179 -44.6468 923.203C-44.6468 923.215 -44.6468 923.226 -44.6468 923.238C-44.6624 923.273 -44.639 923.29 -44.5767 923.29C-42.7542 923.104 -40.9084 923.29 -39.0392 923.851C-38.6809 923.956 -38.4395 923.869 -38.3149 923.588L-38.1513 923.15C-38.0267 922.87 -38.1514 922.695 -38.5252 922.625C-44.7558 921.446 -50.9787 920.488 -57.1937 919.753C-59.9742 919.42 -62.0302 918.246 -64.7173 917.511C-65.4805 917.289 -66.2594 917.26 -67.0537 917.424C-68.1285 917.657 -69.0553 917.4 -69.8342 916.652C-69.9289 916.569 -70.0588 916.51 -70.203 916.488C-70.3471 916.466 -70.4971 916.481 -70.6285 916.53L-71.166 916.74C-71.68 916.939 -72.1706 916.916 -72.638 916.67C-73.261 916.343 -73.8139 915.935 -74.2968 915.444C-74.4681 915.269 -74.4838 915.082 -74.3436 914.884L-73.3622 913.501C-73.2064 913.266 -73.2064 913.033 -73.3622 912.8C-73.4402 912.66 -73.5492 912.537 -73.6894 912.432C-74.546 911.79 -74.4681 911.229 -73.4557 910.75C-72.5834 910.342 -72.4978 910.044 -73.1987 909.857C-73.9152 909.67 -73.9541 909.419 -73.3155 909.104L-71.8669 908.404C-70.8856 907.925 -70.9712 907.756 -72.1239 907.896C-74.9899 908.246 -77.5446 907.802 -79.7876 906.564C-80.0708 906.407 -80.4173 906.323 -80.7752 906.326C-81.1331 906.329 -81.4833 906.419 -81.7736 906.582L-83.4792 907.545C-83.6039 907.604 -83.6116 907.674 -83.5026 907.756L-83.012 908.124C-82.9297 908.188 -82.8756 908.268 -82.8556 908.356C-82.8355 908.444 -82.8503 908.536 -82.8982 908.622C-82.9461 908.709 -83.0254 908.786 -83.1277 908.846C-83.23 908.906 -83.3515 908.947 -83.4792 908.964L-120.746 913.273C-121.249 913.329 -121.762 913.271 -122.217 913.105C-122.672 912.939 -123.047 912.674 -123.293 912.344C-123.9 911.539 -124.719 911.27 -125.746 911.539C-126.478 911.725 -127.211 911.737 -127.943 911.574C-134.095 910.173 -137.982 909.134 -139.602 908.456C-142.717 907.148 -145.49 906.518 -147.92 906.564C-148.605 906.588 -149.228 906.454 -149.788 906.162C-152.312 904.878 -154.983 903.932 -157.803 903.324C-158.566 903.161 -159.181 902.84 -159.649 902.361C-163.838 898.193 -169.431 896.278 -176.424 896.617C-181.923 896.897 -186.658 896.833 -190.631 896.424C-194.789 896.004 -196.752 898.893 -199.135 900.225C-201.067 901.299 -203.021 902.414 -205 903.569V900.96H-203.551C-203.006 900.96 -202.71 900.762 -202.664 900.365C-202.601 899.769 -202.134 899.215 -201.262 898.7C-186.682 890.154 -172.756 881.07 -159.486 871.448Z" fill="#FF8B4C"/>
<path d="M468.329 882.131C492.973 881.68 511.958 882.394 525.285 884.273C555.017 888.481 579.106 896.466 601.314 912.322C617.438 923.844 628.666 938.686 635 956.846V965H315.523C312.276 958.112 307.798 951.918 302.091 946.42C301.834 946.194 301.521 946.063 301.151 946.025C300.862 946.013 300.629 945.919 300.452 945.743C291.642 936.889 280.791 930.2 267.899 925.679C266.742 924.364 266.702 923.124 267.778 921.959C268.309 921.383 269.024 921.033 269.925 920.907C288.299 918.327 305.829 913.668 322.516 906.93L331.438 907.869C355.47 919.091 379.697 922.824 404.116 919.066C429.869 915.108 449.866 903.41 464.109 883.972L468.329 882.131Z" fill="#FAA30C"/>
<path d="M464 874C448.863 901.155 427.61 917.496 400.24 923.025C374.289 928.274 348.541 923.059 323 907.383C369.795 891.82 417.539 878.304 464 874Z" fill="#F26E19"/>
<path d="M68.7037 939.896C83.5007 946.195 93.4904 948.996 107.401 948.264C116.947 947.765 132.678 948.068 141.29 944.428C153.411 939.302 165.952 934.836 178.913 931.029C186.615 928.769 194.349 926.551 202.113 924.374C208.741 922.519 215.58 921.858 222.698 920.592C225.826 920.033 228.604 919.741 231.03 919.717C248.084 919.491 264.375 922.138 279.904 927.657C292.383 931.951 302.886 938.303 311.412 946.712C311.583 946.879 311.809 946.968 312.089 946.98C312.447 947.015 312.75 947.14 313 947.354C318.523 952.576 322.856 958.458 326 965H-205V902.322C-203.023 901.144 -201.071 900.008 -199.141 898.914C-196.761 897.558 -194.8 894.614 -190.646 895.042C-186.678 895.458 -181.948 895.524 -176.455 895.239C-169.469 894.893 -163.883 896.844 -159.698 901.09C-159.231 901.578 -158.617 901.905 -157.854 902.072C-155.038 902.691 -152.369 903.654 -149.848 904.962C-149.288 905.26 -148.666 905.396 -147.982 905.372C-145.554 905.325 -142.784 905.967 -139.672 907.3C-138.054 907.99 -134.172 909.048 -128.026 910.475C-127.295 910.642 -126.563 910.63 -125.832 910.44C-124.805 910.166 -123.988 910.44 -123.381 911.26C-123.136 911.596 -122.761 911.866 -122.306 912.035C-121.852 912.205 -121.339 912.264 -120.837 912.206L-83.6106 907.817C-83.4831 907.799 -83.3617 907.758 -83.2595 907.697C-83.1573 907.635 -83.0781 907.557 -83.0302 907.469C-82.9823 907.381 -82.9676 907.287 -82.9876 907.198C-83.0076 907.108 -83.0617 907.026 -83.1439 906.961L-83.634 906.586C-83.7429 906.502 -83.7351 906.431 -83.6106 906.371L-81.9068 905.39C-81.6169 905.224 -81.2671 905.132 -80.9095 905.13C-80.552 905.126 -80.2059 905.212 -79.923 905.372C-77.6824 906.633 -75.1306 907.085 -72.2675 906.728C-71.1161 906.586 -71.0306 906.758 -72.0109 907.246L-73.4579 907.959C-74.0958 908.28 -74.0569 908.536 -73.3412 908.727C-72.6411 908.917 -72.7266 909.22 -73.5979 909.637C-74.6094 910.125 -74.6871 910.695 -73.8314 911.349C-73.6913 911.457 -73.5824 911.582 -73.5046 911.724C-73.349 911.962 -73.349 912.2 -73.5046 912.438L-74.4848 913.848C-74.6249 914.049 -74.6094 914.24 -74.4381 914.418C-73.9558 914.918 -73.4035 915.334 -72.7811 915.667C-72.3143 915.917 -71.8241 915.941 -71.3107 915.739L-70.7738 915.524C-70.6425 915.474 -70.4927 915.459 -70.3487 915.482C-70.2047 915.504 -70.075 915.564 -69.9803 915.65C-69.2023 916.411 -68.2765 916.672 -67.2029 916.435C-66.4094 916.268 -65.6314 916.298 -64.869 916.524C-62.1848 917.273 -60.131 918.468 -57.3535 918.808C-51.1452 919.557 -44.9291 920.532 -38.7052 921.734C-38.3318 921.805 -38.2073 921.983 -38.3318 922.269L-38.4951 922.714C-38.6197 923 -38.8609 923.089 -39.2187 922.983C-41.0859 922.411 -42.9297 922.221 -44.7501 922.411C-44.8125 922.411 -44.8358 922.394 -44.8202 922.358C-44.8202 922.346 -44.8202 922.334 -44.8202 922.322C-44.8202 922.298 -44.8046 922.293 -44.7735 922.304C-33.5705 923.964 -22.5775 925.694 -11.2345 926.604C-6.37981 926.997 -1.96863 928.175 2.79266 928.21C10.9149 928.3 17.9633 928.282 24.6385 930.155C30.2401 931.725 32.574 929.512 37.2186 930.244C41.9565 930.958 48.1882 931.243 52.2493 933.33C52.8094 933.616 53.424 933.8 54.0931 933.884C54.7156 933.967 55.299 934.009 55.8436 934.009C55.9156 934.012 55.987 933.998 56.0482 933.969C56.1093 933.94 56.1572 933.896 56.1852 933.846C56.2133 933.795 56.2203 933.739 56.205 933.685C56.1898 933.631 56.1534 933.582 56.1003 933.545L55.5635 933.135C54.8944 932.611 55.0344 932.332 55.9836 932.296C56.7149 932.272 57.3296 932.558 57.8275 933.153C58.8778 934.401 60.7683 935.347 62.1453 936.881C63.6391 938.582 65.8251 939.587 68.7037 939.896Z" fill="#FEA256"/>
</g>
</g>
</svg>
