<?xml version="1.0" encoding="UTF-8" standalone="no"?>
<!DOCTYPE svg PUBLIC "-//W3C//DTD SVG 1.1//EN"
 "http://www.w3.org/Graphics/SVG/1.1/DTD/svg11.dtd">
<!-- Generated by graphviz version 2.47.0 (20210316.0004)
 -->
<!-- Title: dependencies Pages: 1 -->
<svg width="504pt" height="211pt"
 viewBox="0.00 0.00 504.00 211.00" xmlns="http://www.w3.org/2000/svg" xmlns:xlink="http://www.w3.org/1999/xlink">
<g id="graph0" class="graph" transform="scale(1 1) rotate(0) translate(4 207)">
<title>dependencies</title>
<polygon fill="white" stroke="transparent" points="-4,4 -4,-207 500,-207 500,4 -4,4"/>
<text text-anchor="start" x="227.01" y="-42.4" font-family="Times-12" font-weight="bold" font-size="14.00">Legend</text>
<polygon fill="#ffffb3" stroke="transparent" points="14,-10 14,-30 34,-30 34,-10 14,-10"/>
<text text-anchor="start" x="37.63" y="-15.4" font-family="Times-12" font-size="14.00"> &#160;Declarations</text>
<polygon fill="#8dd3c7" stroke="transparent" points="127,-10 127,-30 147,-30 147,-10 127,-10"/>
<text text-anchor="start" x="150.73" y="-15.4" font-family="Times-12" font-size="14.00"> &#160;Module</text>
<polygon fill="#80b1d3" stroke="transparent" points="213,-10 213,-30 233,-30 233,-10 213,-10"/>
<text text-anchor="start" x="236.78" y="-15.4" font-family="Times-12" font-size="14.00"> &#160;Bootstrap</text>
<polygon fill="#fdb462" stroke="transparent" points="310,-10 310,-30 330,-30 330,-10 310,-10"/>
<text text-anchor="start" x="333.67" y="-15.4" font-family="Times-12" font-size="14.00"> &#160;Providers</text>
<polygon fill="#fb8072" stroke="transparent" points="406,-10 406,-30 426,-30 426,-10 406,-10"/>
<text text-anchor="start" x="429.73" y="-15.4" font-family="Times-12" font-size="14.00"> &#160;Exports</text>
<g id="clust1" class="cluster">
<title>cluster_NotFoundPageModule</title>
<polygon fill="none" stroke="black" stroke-dasharray="1,5" points="76,-70 76,-195 420,-195 420,-70 76,-70"/>
</g>
<g id="clust2" class="cluster">
<title>cluster_NotFoundPageModule_declarations</title>
<polygon fill="none" stroke="black" points="296,-78 296,-130 412,-130 412,-78 296,-78"/>
</g>
<g id="clust4" class="cluster">
<title>cluster_NotFoundPageModule_imports</title>
<polygon fill="none" stroke="black" points="84,-78 84,-130 288,-130 288,-78 84,-78"/>
</g>
<!-- NotFoundPage -->
<g id="node1" class="node">
<title>NotFoundPage</title>
<polygon fill="#ffffb3" stroke="black" points="403.99,-122 304.01,-122 304.01,-86 403.99,-86 403.99,-122"/>
<text text-anchor="middle" x="354" y="-99.8" font-family="Times,serif" font-size="14.00">NotFoundPage</text>
</g>
<!-- NotFoundPageModule -->
<g id="node2" class="node">
<title>NotFoundPageModule</title>
<polygon fill="#8dd3c7" stroke="black" points="334.54,-187 331.54,-191 310.54,-191 307.54,-187 191.46,-187 191.46,-151 334.54,-151 334.54,-187"/>
<text text-anchor="middle" x="263" y="-164.8" font-family="Times,serif" font-size="14.00">NotFoundPageModule</text>
</g>
<!-- NotFoundPage&#45;&gt;NotFoundPageModule -->
<g id="edge1" class="edge">
<title>NotFoundPage&#45;&gt;NotFoundPageModule</title>
<path fill="none" stroke="black" d="M319.39,-122.11C319.39,-122.11 319.39,-140.99 319.39,-140.99"/>
<polygon fill="black" stroke="black" points="315.89,-140.99 319.39,-150.99 322.89,-140.99 315.89,-140.99"/>
</g>
<!-- NotFoundPageRoutingModule -->
<g id="node3" class="node">
<title>NotFoundPageRoutingModule</title>
<polygon fill="#8dd3c7" stroke="black" points="280.16,-122 277.16,-126 256.16,-126 253.16,-122 91.84,-122 91.84,-86 280.16,-86 280.16,-122"/>
<text text-anchor="middle" x="186" y="-99.8" font-family="Times,serif" font-size="14.00">NotFoundPageRoutingModule</text>
</g>
<!-- NotFoundPageRoutingModule&#45;&gt;NotFoundPageModule -->
<g id="edge2" class="edge">
<title>NotFoundPageRoutingModule&#45;&gt;NotFoundPageModule</title>
<path fill="none" stroke="black" d="M235.78,-122.11C235.78,-122.11 235.78,-140.99 235.78,-140.99"/>
<polygon fill="black" stroke="black" points="232.28,-140.99 235.78,-150.99 239.28,-140.99 232.28,-140.99"/>
</g>
</g>
</svg>
